<svg width="700" height="585" viewBox="0 0 700 585" fill="none" xmlns="http://www.w3.org/2000/svg">
<g clip-path="url(#clip0)">
<path opacity="0.1" d="M226.919 20.7838C247.388 2.56471 279.517 -1.17021 308.765 0.280315C400.625 4.84911 483.543 49.1917 555.27 99.3573C581.239 117.513 606.802 137.085 623.655 162.094C657.991 213.003 647.788 283.525 600.082 325.464C583.846 339.731 564.169 350.69 543.967 360.367C508.047 377.605 469.29 391.445 428.521 395.404C399.454 398.207 370.024 395.93 341.118 392.013C260.372 381.039 181.126 356.822 114.675 315.394C85.5389 297.224 58.077 274.632 46.0664 245.251C34.0558 215.869 41.7429 178.59 71.4961 161.162C83.801 153.966 98.5165 150.714 112.917 147.659C134.121 143.167 155.661 138.739 174.792 129.608C194.559 120.176 217.957 101.936 214.033 81.0541C209.856 58.6796 206.479 39.003 226.919 20.7838Z" fill="#00FFAB"/>
<path d="M479.969 468.715C479.969 468.715 497.529 437.609 523.968 428.647C535.083 424.958 544.702 417.764 551.381 408.144C554.516 403.552 557.223 398.683 559.467 393.596" stroke="#535461" stroke-width="2" stroke-miterlimit="10"/>
<path d="M576.103 387.843C573.09 390.772 559.054 393.792 559.054 393.792C559.054 393.792 562.495 379.855 565.508 376.933C566.955 375.528 568.9 374.755 570.917 374.785C572.933 374.814 574.856 375.644 576.261 377.09C577.666 378.537 578.438 380.483 578.409 382.499C578.379 384.516 577.55 386.438 576.103 387.843V387.843Z" fill="#00FFAB"/>
<path d="M568.163 413.063C564.043 413.883 550.645 408.795 550.645 408.795C550.645 408.795 561.114 398.985 565.227 398.144C567.206 397.751 569.259 398.16 570.936 399.281C572.613 400.402 573.776 402.143 574.169 404.121C574.562 406.1 574.153 408.153 573.032 409.83C571.911 411.507 570.17 412.67 568.191 413.063H568.163Z" fill="#00FFAB"/>
<path d="M539.258 440.349C535.285 438.948 526.267 427.806 526.267 427.806C526.267 427.806 540.281 424.611 544.233 425.984C545.197 426.294 546.09 426.794 546.858 427.454C547.626 428.113 548.255 428.92 548.707 429.826C549.159 430.732 549.426 431.719 549.491 432.729C549.557 433.74 549.42 434.753 549.089 435.71C548.757 436.667 548.238 437.548 547.562 438.301C546.885 439.055 546.065 439.665 545.149 440.098C544.234 440.53 543.241 440.775 542.229 440.818C541.217 440.861 540.207 440.702 539.258 440.349V440.349Z" fill="#00FFAB"/>
<path d="M512.735 456.074C508.594 455.373 497.817 445.906 497.817 445.906C497.817 445.906 511.068 440.384 515.209 441.071C516.201 441.225 517.154 441.575 518.01 442.099C518.867 442.623 519.611 443.312 520.2 444.125C520.79 444.939 521.212 445.861 521.442 446.839C521.673 447.816 521.707 448.83 521.544 449.821C521.38 450.812 521.022 451.761 520.49 452.613C519.958 453.464 519.262 454.202 518.443 454.784C517.624 455.365 516.698 455.779 515.718 456C514.739 456.221 513.725 456.247 512.735 456.074V456.074Z" fill="#00FFAB"/>
<path d="M538.915 397.906C538.915 402.11 546.511 414.282 546.511 414.282C546.511 414.282 554.121 402.11 554.121 397.913C554.121 395.896 553.32 393.963 551.894 392.537C550.468 391.111 548.534 390.31 546.518 390.31C544.501 390.31 542.567 391.111 541.142 392.537C539.716 393.963 538.915 395.896 538.915 397.913V397.906Z" fill="#00FFAB"/>
<path d="M508.131 416.686C509.393 420.694 520.282 430.042 520.282 430.042C520.282 430.042 523.898 416.146 522.644 412.138C522.041 410.213 520.698 408.607 518.911 407.673C517.123 406.739 515.038 406.552 513.114 407.155C511.189 407.759 509.583 409.101 508.649 410.889C507.714 412.676 507.528 414.761 508.131 416.686V416.686Z" fill="#00FFAB"/>
<path d="M480.719 439.039C481.279 443.201 490.438 454.259 490.438 454.259C490.438 454.259 496.352 441.176 495.791 437.014C495.523 435.015 494.471 433.205 492.868 431.981C491.265 430.758 489.241 430.221 487.242 430.49C485.244 430.759 483.433 431.81 482.21 433.413C480.987 435.017 480.45 437.04 480.719 439.039Z" fill="#00FFAB"/>
<path opacity="0.25" d="M576.103 387.843C573.09 390.772 559.054 393.792 559.054 393.792C559.054 393.792 562.495 379.855 565.508 376.933C566.955 375.528 568.9 374.755 570.917 374.785C572.933 374.814 574.856 375.644 576.261 377.09C577.666 378.537 578.438 380.483 578.409 382.499C578.379 384.516 577.55 386.438 576.103 387.843V387.843Z" fill="black"/>
<path opacity="0.25" d="M568.163 413.063C564.043 413.883 550.645 408.795 550.645 408.795C550.645 408.795 561.114 398.985 565.227 398.144C567.206 397.751 569.259 398.16 570.936 399.281C572.613 400.402 573.776 402.143 574.169 404.121C574.562 406.1 574.153 408.153 573.032 409.83C571.911 411.507 570.17 412.67 568.191 413.063H568.163Z" fill="black"/>
<path opacity="0.25" d="M539.258 440.349C535.285 438.948 526.267 427.806 526.267 427.806C526.267 427.806 540.281 424.611 544.233 425.984C545.197 426.294 546.09 426.794 546.858 427.454C547.626 428.113 548.255 428.92 548.707 429.826C549.159 430.732 549.426 431.719 549.491 432.729C549.557 433.74 549.42 434.753 549.089 435.71C548.757 436.667 548.238 437.548 547.562 438.301C546.885 439.055 546.065 439.665 545.149 440.098C544.234 440.53 543.241 440.775 542.229 440.818C541.217 440.861 540.207 440.702 539.258 440.349V440.349Z" fill="black"/>
<path opacity="0.25" d="M512.735 456.074C508.594 455.373 497.817 445.906 497.817 445.906C497.817 445.906 511.068 440.384 515.209 441.071C516.201 441.225 517.154 441.575 518.01 442.099C518.867 442.623 519.611 443.312 520.2 444.125C520.79 444.939 521.212 445.861 521.442 446.839C521.673 447.816 521.707 448.83 521.544 449.821C521.38 450.812 521.022 451.761 520.49 452.613C519.958 453.464 519.262 454.202 518.443 454.784C517.624 455.365 516.698 455.779 515.718 456C514.739 456.221 513.725 456.247 512.735 456.074V456.074Z" fill="black"/>
<path opacity="0.25" d="M538.915 397.906C538.915 402.11 546.511 414.282 546.511 414.282C546.511 414.282 554.121 402.11 554.121 397.913C554.121 395.896 553.32 393.963 551.894 392.537C550.468 391.111 548.534 390.31 546.518 390.31C544.501 390.31 542.567 391.111 541.142 392.537C539.716 393.963 538.915 395.896 538.915 397.913V397.906Z" fill="black"/>
<path opacity="0.25" d="M508.131 416.686C509.393 420.694 520.282 430.042 520.282 430.042C520.282 430.042 523.898 416.146 522.644 412.138C522.041 410.213 520.698 408.607 518.911 407.673C517.123 406.739 515.038 406.552 513.114 407.155C511.189 407.759 509.583 409.101 508.649 410.889C507.714 412.676 507.528 414.761 508.131 416.686V416.686Z" fill="black"/>
<path opacity="0.25" d="M480.719 439.039C481.279 443.201 490.438 454.259 490.438 454.259C490.438 454.259 496.352 441.176 495.791 437.014C495.523 435.015 494.471 433.205 492.868 431.981C491.265 430.758 489.241 430.221 487.242 430.49C485.244 430.759 483.433 431.81 482.21 433.413C480.987 435.017 480.45 437.04 480.719 439.039Z" fill="black"/>
<path d="M480.978 468.084C480.978 468.084 484.426 432.529 504.971 413.623C513.637 405.745 519.514 395.268 521.719 383.765C522.728 378.294 523.23 372.742 523.218 367.179" stroke="#535461" stroke-width="2" stroke-miterlimit="10"/>
<path d="M536.091 355.21C534.521 359.106 522.917 367.557 522.917 367.557C522.917 367.557 520.422 353.416 521.992 349.527C522.347 348.577 522.889 347.707 523.586 346.969C524.283 346.231 525.12 345.641 526.049 345.232C526.977 344.823 527.978 344.604 528.993 344.587C530.008 344.571 531.015 344.758 531.956 345.138C532.897 345.517 533.753 346.081 534.473 346.796C535.192 347.511 535.762 348.363 536.147 349.302C536.533 350.241 536.726 351.247 536.716 352.262C536.707 353.276 536.494 354.279 536.091 355.21V355.21Z" fill="#00FFAB"/>
<path d="M539.055 381.481C535.621 383.898 521.284 384.683 521.284 384.683C521.284 384.683 526.89 371.46 530.303 369.042C531.12 368.468 532.041 368.06 533.016 367.841C533.99 367.623 534.998 367.598 535.982 367.77C536.966 367.941 537.907 368.304 538.75 368.839C539.593 369.373 540.323 370.069 540.898 370.885C541.473 371.702 541.881 372.624 542.099 373.598C542.318 374.573 542.342 375.581 542.171 376.565C542 377.549 541.637 378.489 541.102 379.332C540.567 380.176 539.872 380.906 539.055 381.481Z" fill="#00FFAB"/>
<path d="M523.688 418.143C519.483 418.493 506.73 411.935 506.73 411.935C506.73 411.935 518.229 403.343 522.384 402.986C524.394 402.817 526.389 403.453 527.93 404.755C529.471 406.057 530.431 407.917 530.601 409.927C530.77 411.937 530.133 413.932 528.832 415.472C527.53 417.013 525.67 417.974 523.66 418.143H523.688Z" fill="#00FFAB"/>
<path d="M505.812 443.264C501.748 444.316 488.055 440.013 488.055 440.013C488.055 440.013 497.929 429.593 501.993 428.542C502.967 428.268 503.985 428.192 504.988 428.317C505.992 428.442 506.96 428.765 507.837 429.269C508.714 429.773 509.481 430.447 510.095 431.251C510.708 432.055 511.155 432.973 511.409 433.952C511.663 434.93 511.719 435.95 511.574 436.951C511.429 437.952 511.086 438.913 510.565 439.78C510.044 440.647 509.355 441.4 508.539 441.998C507.723 442.595 506.796 443.023 505.812 443.257V443.264Z" fill="#00FFAB"/>
<path d="M506.176 379.469C507.872 383.309 519.757 391.382 519.757 391.382C519.757 391.382 521.782 377.171 520.079 373.331C519.238 371.526 517.723 370.123 515.859 369.424C513.995 368.724 511.931 368.783 510.11 369.589C508.29 370.395 506.858 371.883 506.122 373.733C505.387 375.583 505.406 377.648 506.176 379.483V379.469Z" fill="#00FFAB"/>
<path d="M485.645 409.118C488.413 412.271 502.161 416.405 502.161 416.405C502.161 416.405 499.842 402.236 497.067 399.083C496.414 398.313 495.614 397.682 494.714 397.224C493.814 396.767 492.832 396.494 491.825 396.42C490.819 396.346 489.807 396.474 488.851 396.795C487.894 397.116 487.01 397.625 486.252 398.291C485.494 398.957 484.876 399.768 484.434 400.675C483.992 401.583 483.735 402.569 483.679 403.577C483.622 404.585 483.767 405.594 484.105 406.545C484.442 407.496 484.966 408.371 485.645 409.118V409.118Z" fill="#00FFAB"/>
<path d="M469.64 440.665C471.84 444.245 484.692 450.636 484.692 450.636C484.692 450.636 484.797 436.285 482.59 432.704C482.067 431.854 481.382 431.114 480.573 430.528C479.765 429.942 478.849 429.521 477.878 429.289C476.907 429.057 475.899 429.019 474.913 429.176C473.927 429.334 472.982 429.684 472.131 430.206C471.28 430.729 470.541 431.414 469.955 432.222C469.369 433.031 468.948 433.947 468.716 434.918C468.484 435.889 468.446 436.897 468.603 437.883C468.76 438.869 469.11 439.814 469.633 440.665H469.64Z" fill="#00FFAB"/>
<path opacity="0.1" d="M262.194 584.4C308.201 584.4 345.498 578.147 345.498 570.434C345.498 562.721 308.201 556.468 262.194 556.468C216.187 556.468 178.891 562.721 178.891 570.434C178.891 578.147 216.187 584.4 262.194 584.4Z" fill="#00FFAB"/>
<path opacity="0.1" d="M426.159 477.194C472.167 477.194 509.463 470.941 509.463 463.228C509.463 455.515 472.167 449.263 426.159 449.263C380.152 449.263 342.856 455.515 342.856 463.228C342.856 470.941 380.152 477.194 426.159 477.194Z" fill="#00FFAB"/>
<path d="M431.688 278.914L431.611 281.64L426.874 448.779H418.914L422.817 281.64L422.894 278.493L431.688 278.914Z" fill="#B77B7F"/>
<path d="M477.776 420.505L471.812 420.49L383.211 420.301L378.489 420.294L381.004 412.544H477.145L477.776 420.505Z" fill="#DDA2A6"/>
<path opacity="0.1" d="M431.688 278.914L431.611 281.64H422.817L422.894 278.493L431.688 278.914Z" fill="black"/>
<path d="M435.045 274.829H420.28V280.385H435.045V274.829Z" fill="#B77B7F"/>
<path opacity="0.1" d="M383.996 412.544L383.212 420.301L378.489 420.294L381.004 412.544H383.996Z" fill="black"/>
<path d="M396.714 274.723L396.469 277.134L376.814 470.986L367.809 470.558L388.523 277.134L388.754 274.934L396.714 274.723Z" fill="#DDA2A6"/>
<path opacity="0.1" d="M477.776 420.505L471.812 420.49L471.007 412.544H477.145L477.776 420.505Z" fill="black"/>
<path d="M487.201 470.558L478.189 470.986L458.54 277.134L458.295 274.723L466.249 274.934L466.48 277.134L487.201 470.558Z" fill="#DDA2A6"/>
<path d="M525.524 83.5978H326.963V273.988H525.524V83.5978Z" fill="white"/>
<path d="M430.119 19.9219V65.8972H422.376V19.9219C422.353 19.3996 422.437 18.8783 422.622 18.3892C422.806 17.9001 423.088 17.4534 423.449 17.076C423.811 16.6986 424.245 16.3982 424.726 16.1931C425.207 15.9879 425.724 15.8821 426.247 15.8821C426.77 15.8821 427.287 15.9879 427.768 16.1931C428.249 16.3982 428.683 16.6986 429.045 17.076C429.407 17.4534 429.688 17.9001 429.873 18.3892C430.057 18.8783 430.141 19.3996 430.119 19.9219V19.9219Z" fill="#DDA2A6"/>
<path opacity="0.1" d="M430.119 61.7138H422.368V65.8972H430.119V61.7138Z" fill="black"/>
<path d="M433.16 64.8531V80.031H419.376V64.8531C419.375 64.6053 419.423 64.3598 419.518 64.1307C419.612 63.9015 419.751 63.6934 419.926 63.5182C420.101 63.3429 420.31 63.2041 420.539 63.1097C420.768 63.0153 421.013 62.9672 421.261 62.9681H431.289C431.786 62.9718 432.262 63.172 432.613 63.5251C432.963 63.8782 433.16 64.3556 433.16 64.8531Z" fill="#DDA2A6"/>
<path opacity="0.1" d="M426.244 75.5323C427.861 75.5323 429.173 74.2209 429.173 72.6032C429.173 70.9856 427.861 69.6742 426.244 69.6742C424.626 69.6742 423.314 70.9856 423.314 72.6032C423.314 74.2209 424.626 75.5323 426.244 75.5323Z" fill="black"/>
<path d="M426.244 74.9016C427.861 74.9016 429.173 73.5902 429.173 71.9726C429.173 70.3549 427.861 69.0435 426.244 69.0435C424.626 69.0435 423.314 70.3549 423.314 71.9726C423.314 73.5902 424.626 74.9016 426.244 74.9016Z" fill="#B77B7F"/>
<path opacity="0.1" d="M433.16 78.1531H419.334V80.038H433.16V78.1531Z" fill="black"/>
<path opacity="0.1" d="M438.815 80.6687H413.679V84.8591H438.815V80.6687Z" fill="black"/>
<path d="M438.815 79.4074H413.679V83.5978H438.815V79.4074Z" fill="#DDA2A6"/>
<path opacity="0.1" d="M375.398 269.083H480.964C482.172 269.083 483.33 269.562 484.185 270.417C485.039 271.271 485.519 272.429 485.519 273.637V274.632H370.843V273.637C370.843 272.429 371.323 271.271 372.177 270.417C373.032 269.562 374.19 269.083 375.398 269.083V269.083Z" fill="black"/>
<path opacity="0.1" d="M388.754 274.934L396.715 274.723L396.469 277.134H388.523L388.754 274.934Z" fill="black"/>
<path opacity="0.1" d="M435.045 274.829H420.28V277.134H435.045V274.829Z" fill="black"/>
<path opacity="0.1" d="M466.48 277.134H458.54L458.295 274.723L466.249 274.934L466.48 277.134Z" fill="black"/>
<path d="M375.398 270.323H480.964C482.172 270.323 483.33 270.803 484.185 271.657C485.039 272.511 485.519 273.67 485.519 274.878V275.873H370.843V274.878C370.843 273.67 371.323 272.511 372.177 271.657C373.032 270.803 374.19 270.323 375.398 270.323V270.323Z" fill="#DDA2A6"/>
<path d="M352.253 181.932C350.662 181.091 333.333 168.001 333.333 168.001L305.367 150.266C305.367 150.266 305.22 149.845 304.953 149.124C312.626 140.413 310.952 127.772 303.145 118.887C293.686 108.11 250.941 84.9082 238.061 104.753C236.26 107.556 236.197 110.737 235.728 113.821C234.628 121.017 231.082 127.989 225.518 133.862C221.229 138.395 215.603 142.572 213.136 147.701C213.136 147.638 213.087 147.575 213.066 147.505C212.47 148.604 212.038 149.785 211.784 151.009C210.557 157.266 214.762 163.264 216.997 169.354C217.747 171.416 218.292 173.547 218.623 175.716C218.679 175.282 218.728 174.855 218.777 174.42C219.322 177.509 219.507 180.65 219.33 183.782C203.809 186.942 203.802 213.493 203.802 213.493C203.802 213.493 201.889 224.046 202.211 227.851C202.534 231.656 202.527 239.883 202.527 241.866C202.527 243.849 200.614 256.217 200.425 257.703C200.426 257.724 200.426 257.745 200.425 257.766C200.144 259.391 197.236 267.226 204.265 268.977C204.755 269.104 205.274 269.209 205.813 269.307C206.115 275.648 206.661 288.927 206.178 291.884C206.178 291.884 208.735 309.725 210.859 314.259C212.201 316.917 213.772 319.454 215.553 321.841C215.399 322.927 215.033 323.973 214.474 324.917C213.388 326.48 213.949 327.762 215.764 328.316C215.701 328.855 215.631 329.465 215.553 330.152C214.776 337.033 213.612 350.711 215.589 357.642C218.3 367.144 218.462 370.311 218.462 370.311C218.462 370.311 218.462 373.156 219.583 374.739C220.704 376.323 222.771 391.053 222.771 393.428C222.771 395.804 228.195 417.176 226.597 422.242C224.999 427.309 226.282 434.435 226.282 434.435C226.282 434.435 225.322 446.943 224.18 449.634C223.037 452.325 222.582 495.707 224.334 506.947C226.086 518.187 227.207 527.528 227.207 527.528C227.207 527.528 226.093 537.822 227.046 539.244C227.999 540.667 229.757 549.223 228.482 549.692C227.207 550.162 226.569 553.651 226.569 553.651C227.243 554.677 227.971 555.666 228.748 556.615C228.257 556.444 227.777 556.24 227.312 556.006C227.816 556.707 228.573 557.702 229.505 558.809L228.629 570.196C228.592 570.64 228.712 571.083 228.969 571.448C229.225 571.813 229.6 572.076 230.031 572.193C232.829 572.953 235.781 572.941 238.572 572.156C241.364 571.371 243.89 569.843 245.881 567.736C253.856 559.664 256.568 560.771 258.004 555.866C258.158 555.34 258.291 554.822 258.403 554.331C259.434 549.958 254.774 546.707 251.067 548.571C251.578 545.109 251.978 541.178 251.592 538.957C250.793 534.367 250.955 522.335 250.955 522.335L249.84 464.7C249.84 464.7 251.908 453.299 254.304 448.87C256.701 444.442 256.406 428.92 256.406 428.92L259.118 377.935L261.669 353.08C261.669 353.08 264.22 344.531 267.408 354.033C267.408 354.033 265.656 373.184 266.455 377.781C267.254 382.377 268.368 404.696 267.569 409.601C266.77 414.506 263.267 441.428 265.467 448.233C267.667 455.037 270.12 463.284 269.629 465.982C269.139 468.68 267.527 527.093 267.527 527.093C267.527 527.093 271.837 538.305 268.648 541.977C265.46 545.649 268.487 560.196 268.487 560.196C268.487 560.196 268.872 560.469 269.531 560.848L269.44 562.06L268.438 575.157C268.402 575.602 268.523 576.045 268.778 576.411C269.034 576.777 269.409 577.042 269.839 577.161C272.638 577.922 275.59 577.91 278.381 577.125C281.173 576.34 283.699 574.812 285.69 572.704C293.665 564.625 296.376 565.739 297.813 560.827C297.967 560.301 298.1 559.79 298.219 559.292C299.34 554.52 293.664 551.059 289.867 554.177L289.677 554.338C289.479 554.507 289.271 554.663 289.054 554.808C288.953 554.882 288.848 554.95 288.738 555.011C289.537 551.395 290.7 545.2 290.14 542.299C289.341 538.025 290.932 525.047 290.932 525.047C290.932 525.047 295.557 509.526 295.718 503.324L296.993 453.93C296.993 453.93 296.839 433.818 297.476 428.913C298.114 424.008 303.216 381.572 308.317 368.902C312.234 359.204 313.986 334.454 312.949 321.904C312.893 321.287 312.837 320.692 312.767 320.138C319.024 315.52 319.648 307.84 319.648 307.84C319.648 307.84 313.902 296.867 308.373 292.221C302.844 287.575 301.653 279.587 301.849 276.188C301.943 274.117 301.261 272.086 299.936 270.491C299.936 270.491 297.385 262.257 295.683 261.416C295.543 261.346 295.418 261.251 295.311 261.136C294.155 259.896 295.045 256.35 295.045 256.35V256.238C295.248 255.418 296.446 250.107 296.089 248.747C295.662 247.276 296.299 240.303 296.299 240.303C296.299 240.303 300.342 228.272 299.705 218.77C299.067 209.268 308.002 210.116 308.002 210.116L335.59 209.828H338.729C339.836 208.888 340.847 207.842 341.749 206.703C347.004 206.079 357.635 204.096 358.826 198.294C360.445 190.593 353.851 182.78 352.253 181.932ZM224.439 269.776L224.628 264.948C225.28 265.509 225.714 265.866 225.714 265.866C226.066 267.129 226.083 268.462 225.763 269.734C225.592 270.331 225.288 270.882 224.875 271.346C224.461 271.809 223.948 272.173 223.374 272.411C223.24 272.469 223.111 272.537 222.988 272.614L222.722 269.888L224.439 269.776ZM324.504 184.987C323.334 184.462 319.396 184.567 317.37 184.567C315.345 184.567 312.059 182.878 312.059 182.878C311.358 181.512 307.483 180.699 304.035 180.236C301.415 173.775 297.729 167.476 297.231 160.742C297.231 160.497 297.231 160.251 297.196 160.006L297.596 160.707C297.596 160.707 313.657 170.951 315.464 174.021C316.866 176.361 323.614 181.589 326.739 183.929C326.309 184.491 325.705 184.894 325.022 185.078C324.844 185.098 324.665 185.066 324.504 184.987V184.987Z" fill="url(#paint0_linear)"/>
<path d="M297.981 559.334C297.862 559.825 297.736 560.336 297.581 560.855C296.18 565.76 293.496 564.625 285.669 572.634C283.719 574.725 281.234 576.242 278.483 577.023C275.733 577.804 272.821 577.817 270.064 577.063C269.633 576.949 269.257 576.687 269 576.323C268.744 575.959 268.624 575.516 268.662 575.073L269.65 562.081L270.12 555.831C270.12 555.831 282.621 559.334 288.983 554.885C289.197 554.739 289.403 554.582 289.6 554.415C289.649 554.371 289.696 554.324 289.74 554.275C290.561 553.595 291.575 553.189 292.638 553.114C293.702 553.039 294.762 553.299 295.671 553.857C296.579 554.414 297.29 555.242 297.705 556.225C298.119 557.207 298.216 558.294 297.981 559.334V559.334Z" fill="#67647E"/>
<path d="M258.74 554.429C258.621 554.92 258.494 555.431 258.34 555.95C256.939 560.855 254.255 559.72 246.428 567.729C244.477 569.82 241.993 571.337 239.242 572.118C236.492 572.898 233.58 572.912 230.822 572.158C230.392 572.044 230.015 571.782 229.759 571.418C229.503 571.054 229.383 570.611 229.421 570.168L230.409 557.176L230.878 550.925C230.878 550.925 243.38 554.429 249.742 549.979C249.956 549.834 250.162 549.677 250.359 549.51C250.408 549.466 250.455 549.419 250.499 549.37C251.32 548.69 252.334 548.284 253.397 548.209C254.461 548.134 255.521 548.394 256.429 548.951C257.338 549.509 258.049 550.337 258.463 551.32C258.878 552.302 258.974 553.389 258.74 554.429V554.429Z" fill="#67647E"/>
<path opacity="0.1" d="M245.825 556.377L246.329 563.132C239.154 570.301 230.612 559.629 228.11 556.125C234.69 559.516 245.825 556.377 245.825 556.377Z" fill="black"/>
<path opacity="0.1" d="M288.002 559.124L288.941 558.5C282.389 568.465 272.656 563.868 269.622 562.081L270.092 555.831C270.092 555.831 282.593 559.334 288.955 554.885C288.458 557.323 288.002 559.124 288.002 559.124Z" fill="black"/>
<path d="M307.96 370.465C302.928 383.029 297.904 425.122 297.273 430.028C296.643 434.933 296.804 454.848 296.804 454.848L295.543 503.822C295.381 509.953 290.827 525.349 290.827 525.349C290.827 525.349 289.257 538.228 290.042 542.468C290.827 546.707 288.003 557.884 288.003 557.884L288.942 557.253C281.086 569.166 268.676 560.238 268.676 560.238C268.676 560.238 265.691 545.789 268.837 542.173C271.984 538.557 267.737 527.409 267.737 527.409C267.737 527.409 269.307 469.444 269.776 466.774C270.246 464.104 267.891 455.934 265.691 449.179C263.491 442.424 266.953 415.718 267.737 410.848C268.522 405.978 267.422 383.828 266.637 379.273C265.852 374.718 267.576 355.707 267.576 355.707C264.437 346.283 261.921 354.768 261.921 354.768L259.406 379.427L256.736 430.013C256.736 430.013 257.051 445.43 254.697 449.809C252.342 454.189 250.296 465.513 250.296 465.513L251.396 522.7C251.396 522.7 251.242 534.612 252.027 539.188C252.812 543.764 250.296 555.529 250.296 555.529C241.502 576.25 227.375 553.784 227.375 553.784C227.375 553.784 228.006 550.33 229.26 549.86C230.514 549.391 228.79 540.905 227.858 539.489C226.926 538.074 228.013 527.864 228.013 527.864C228.013 527.864 226.912 518.6 225.21 507.445C223.507 496.289 223.955 453.25 225.056 450.58C226.156 447.91 227.095 435.5 227.095 435.5C227.095 435.5 225.84 428.43 227.41 423.399C228.98 418.367 223.64 397.17 223.64 394.809C223.64 392.447 221.601 377.844 220.501 376.274C219.401 374.704 219.401 371.873 219.401 371.873C219.401 371.873 219.246 368.734 216.598 359.309C214.65 352.428 215.799 338.862 216.563 332.03C216.836 329.5 217.074 327.888 217.074 327.888C217.074 327.888 307.168 313.278 310.763 316.578C311.603 317.356 312.164 320.026 312.493 323.831C313.565 336.276 311.8 360.872 307.96 370.465Z" fill="#444053"/>
<path opacity="0.1" d="M273.862 441.099C274.282 441.099 284.232 441.94 287.876 441.204C291.52 440.468 273.862 441.099 273.862 441.099Z" fill="black"/>
<path opacity="0.1" d="M274.597 446.964C274.597 446.964 288.339 449.375 289.039 448.121C289.74 446.866 274.597 446.964 274.597 446.964Z" fill="black"/>
<path opacity="0.1" d="M232.602 444.449C232.602 444.449 239.722 444.764 243.597 446.551C247.472 448.338 232.602 444.449 232.602 444.449Z" fill="black"/>
<path d="M206.731 268.305C206.731 268.305 207.88 290.189 207.257 294.064C207.257 294.064 209.765 311.764 211.86 316.263C213.956 320.762 218.461 326.424 218.461 326.424L224.642 282.978L223.17 268.095L206.731 268.305Z" fill="#EFB7B9"/>
<path d="M271.661 168.604C285.02 168.604 295.85 157.774 295.85 144.415C295.85 131.055 285.02 120.225 271.661 120.225C258.302 120.225 247.472 131.055 247.472 144.415C247.472 157.774 258.302 168.604 271.661 168.604Z" fill="#EFB7B9"/>
<path d="M259.097 155.718C259.097 155.718 251.557 170.489 244.017 177.398C236.477 184.308 289.257 192.163 290.511 192.163C291.765 192.163 281.086 160.749 282.971 156.958C284.856 153.167 259.097 155.718 259.097 155.718Z" fill="#EFB7B9"/>
<path opacity="0.1" d="M312.507 323.831C311.323 324.736 310.016 325.467 308.625 326.003C298.997 329.773 288.521 335.008 281.402 332.92C274.282 330.831 259.202 332.92 259.202 332.92C259.202 332.92 228.826 330.404 222.764 331.868C220.003 332.534 217.859 332.506 216.458 332.03C216.731 329.5 216.969 327.888 216.969 327.888C216.969 327.888 307.168 313.278 310.763 316.578C311.617 317.356 312.164 320.026 312.507 323.831Z" fill="black"/>
<path d="M319.101 309.872C319.101 309.872 318.267 320.348 308.625 324.118C298.983 327.888 288.521 333.123 281.401 331.035C274.282 328.946 259.202 331.035 259.202 331.035C259.202 331.035 228.825 328.519 222.764 329.983C216.703 331.448 213.542 329.57 215.427 326.844C217.312 324.118 217.109 315.114 217.109 311.344C217.109 307.574 215.007 292.284 216.892 289.558C218.777 286.832 220.451 276.363 224.221 274.681C224.788 274.443 225.293 274.081 225.7 273.621C226.108 273.161 226.407 272.616 226.576 272.026C226.887 270.765 226.871 269.445 226.527 268.193C226.527 268.193 225.889 267.667 225.013 266.889C222.792 264.906 219.036 261.227 220.241 260.022C221.916 258.34 220.241 247.451 220.241 247.451C220.241 247.451 216.261 239.077 217.733 235.938C219.204 232.798 204.951 216.247 204.951 216.247C204.951 216.247 204.951 187.769 222.126 186.508C222.126 186.508 234.277 186.928 235.742 181.484C237.206 176.039 246.841 172.893 246.841 172.893L268.837 177.714C268.837 177.714 288.311 181.918 291.877 179.388C295.444 176.859 298.184 182.738 298.184 182.738C298.184 182.738 310.328 183.369 311.582 185.884C312.836 188.4 307.609 212.898 307.609 212.898C307.609 212.898 298.808 212.064 299.438 221.489C300.069 230.913 296.047 242.854 296.047 242.854C296.047 242.854 295.416 249.763 295.837 251.228C296.229 252.58 295.01 257.85 294.814 258.663V258.768C294.814 258.768 293.938 262.271 295.073 263.519C295.178 263.632 295.301 263.726 295.437 263.799C297.119 264.633 299.642 272.803 299.642 272.803C300.949 274.39 301.621 276.405 301.527 278.458C301.323 281.815 302.578 289.768 308.022 294.379C313.467 298.99 319.101 309.872 319.101 309.872Z" fill="#A36468"/>
<path d="M225.686 261.367V262.257L225.308 272.068C225.308 272.068 212.421 273.112 205.407 271.367C198.392 269.622 201.342 261.837 201.623 260.225C201.625 260.204 201.625 260.183 201.623 260.162C201.826 258.691 203.725 246.442 203.725 244.452C203.725 242.462 203.725 234.291 203.41 230.521C203.094 226.751 204.951 216.247 204.951 216.247L206.311 214.579L221.068 220.234L225.686 261.367Z" fill="#A36468"/>
<path opacity="0.1" d="M225.651 262.278L225.272 272.089C225.272 272.089 212.386 273.133 205.372 271.388C198.357 269.643 201.307 261.858 201.588 260.246L225.651 262.278Z" fill="black"/>
<path opacity="0.1" d="M226.576 272.033C226.887 270.772 226.871 269.452 226.527 268.2C226.527 268.2 225.889 267.674 225.013 266.896C236.106 265.348 280.035 259.321 294.828 258.663V258.768C294.828 258.768 293.952 262.271 295.087 263.519L226.576 272.033Z" fill="black"/>
<path opacity="0.1" d="M296.481 279.587C296.481 279.587 299.207 295.003 289.046 300.426C289.039 300.454 294.806 292.809 296.481 279.587Z" fill="black"/>
<path opacity="0.1" d="M229.981 300.868C229.981 300.868 254.507 296.663 259.307 299.929C264.107 303.194 229.981 300.868 229.981 300.868Z" fill="black"/>
<path opacity="0.1" d="M288.002 205.463C288.002 205.463 284.233 220.963 287.056 224.523C289.88 228.083 288.002 205.463 288.002 205.463Z" fill="black"/>
<path opacity="0.1" d="M216.997 192.793C216.997 192.793 220.451 198.553 218.356 204.524C216.261 210.494 216.997 192.793 216.997 192.793Z" fill="black"/>
<path opacity="0.1" d="M209.856 243.274C209.856 243.274 214.257 245.888 212.793 249.973C211.328 254.059 209.856 243.274 209.856 243.274Z" fill="black"/>
<path opacity="0.1" d="M209.457 231.334C209.457 231.334 213.535 233.534 214.061 236.779C214.586 240.023 209.457 231.334 209.457 231.334Z" fill="black"/>
<path opacity="0.1" d="M269.986 356.583C269.986 356.583 295.647 359.204 300.777 353.129C300.777 353.164 277.631 357.74 269.986 356.583Z" fill="black"/>
<path opacity="0.1" d="M225.686 355.119C225.686 355.119 253.232 361.615 258.677 356.478C258.677 356.478 235.006 358.258 225.686 355.119Z" fill="black"/>
<path opacity="0.1" d="M271.977 365.076C271.977 365.076 283.497 365.076 288.836 365.392C294.176 365.707 271.977 365.076 271.977 365.076Z" fill="black"/>
<path opacity="0.1" d="M227.571 369.981C227.571 369.981 233.226 376.372 239.616 375.223C246.007 374.074 227.571 369.981 227.571 369.981Z" fill="black"/>
<path d="M238.677 108.362C236.905 111.116 236.842 114.304 236.379 117.359C235.3 124.5 231.803 131.416 226.331 137.246C221.306 142.586 214.418 147.428 213.115 153.952C211.881 160.146 216.065 166.109 218.258 172.171C224.039 188.07 215.967 204.748 213.612 221.159C212.96 225.693 213.745 231.488 219.33 232.995C221.075 233.471 223.072 233.408 224.642 234.165C226.744 235.174 227.389 237.269 227.774 239.154C229.18 245.897 229.665 252.799 229.218 259.672C228.965 263.526 228.685 267.961 232.329 270.61C233.983 271.822 236.211 272.439 238.362 273.021C244.101 274.569 251.522 275.824 255.39 272.187C257.016 270.666 257.625 268.522 259.651 267.317C262.685 265.516 266.987 266.735 270.806 266.924C278.647 267.317 285.851 262.72 288.941 257.177C292.031 251.634 291.744 245.265 290.623 239.287C289.502 233.31 287.498 227.375 287.358 221.306C287.309 219.204 287.498 217.067 288.703 215.203C291.036 211.594 296.467 209.954 300.181 207.116C307.139 201.791 307.118 193.067 304.589 185.765C302.059 178.463 297.518 171.463 296.958 163.916C296.707 162.092 297.07 160.236 297.988 158.64C298.983 157.105 300.721 155.956 302.192 154.687C312.346 146.11 311.148 132.026 302.753 122.384C293.461 111.697 251.361 88.6781 238.677 108.362Z" fill="#E3787D"/>
<g opacity="0.1">
<path opacity="0.1" d="M219.547 178.772C220.339 172.402 220.192 166.088 217.943 159.887C216.835 156.846 215.231 153.826 214.061 150.777C213.476 151.879 213.051 153.059 212.799 154.281C211.566 160.475 215.749 166.439 217.943 172.5C218.681 174.533 219.218 176.634 219.547 178.772Z" fill="black"/>
<path opacity="0.1" d="M228.902 247.388C229.349 240.515 228.866 233.614 227.466 226.87C227.073 224.985 226.429 222.897 224.327 221.888C222.757 221.131 220.76 221.187 219.015 220.718C217.943 220.461 216.944 219.962 216.094 219.26C215.244 218.558 214.565 217.672 214.11 216.667C213.787 218.265 213.507 219.856 213.276 221.454C212.624 225.987 213.409 231.782 218.994 233.289C220.739 233.758 222.736 233.695 224.305 234.452C226.408 235.461 227.052 237.556 227.445 239.441C228.088 242.569 228.537 245.733 228.79 248.915C228.839 248.397 228.867 247.892 228.902 247.388Z" fill="black"/>
<path opacity="0.1" d="M288.633 244.9C285.535 250.464 278.332 255.04 270.491 254.647C266.672 254.451 262.369 253.246 259.342 255.04C257.317 256.238 256.7 258.389 255.075 259.91C251.206 263.519 243.786 262.292 238.047 260.744C235.895 260.155 233.674 259.546 232.013 258.333C230.431 257.169 229.363 255.435 229.035 253.498C229.077 255.649 229.035 257.808 228.902 259.959C228.65 263.813 228.369 268.249 232.013 270.904C233.674 272.11 235.895 272.726 238.047 273.308C243.786 274.857 251.206 276.111 255.075 272.474C256.7 270.953 257.317 268.809 259.342 267.569C262.369 265.768 266.672 266.987 270.491 267.177C278.332 267.569 285.535 262.972 288.633 257.429C291.604 252.076 291.471 246.021 290.434 240.24C290.043 241.867 289.437 243.434 288.633 244.9Z" fill="black"/>
<path opacity="0.1" d="M301.905 142.439C300.405 143.7 298.667 144.856 297.7 146.391C296.782 147.987 296.42 149.843 296.67 151.667C296.874 153.96 297.359 156.22 298.114 158.394C299.281 157.15 300.559 156.015 301.933 155.003C308.8 149.208 310.468 140.89 308.24 133.126C307.064 136.773 304.865 140.005 301.905 142.439V142.439Z" fill="black"/>
<path opacity="0.1" d="M299.866 194.833C296.159 197.671 290.721 199.317 288.394 202.926C287.182 204.79 286.993 206.941 287.042 209.022C287.128 211.473 287.428 213.912 287.939 216.31C288.072 216.027 288.224 215.753 288.394 215.49C290.721 211.881 296.159 210.242 299.866 207.404C306.221 202.541 306.754 194.847 304.876 187.986C303.923 190.716 302.179 193.099 299.866 194.833V194.833Z" fill="black"/>
</g>
<path d="M337.951 209.758C337.951 209.758 356.072 208.819 357.642 201.174C359.211 193.529 352.736 185.758 351.153 184.938C349.569 184.118 332.485 171.113 332.485 171.113L304.946 153.524C304.946 153.524 291.751 115.684 288.829 130.169C285.907 144.653 297.315 163.888 297.315 163.888C297.315 163.888 313.124 174.049 314.904 177.083C316.684 180.117 327.58 188.077 327.58 188.077L337.951 209.758Z" fill="#EFB7B9"/>
<path d="M347.691 197.397C343.402 208.294 337.846 212.589 337.846 212.589H334.755L307.588 212.87L304.456 204.314L308.856 185.772L311.575 185.884C311.575 185.884 314.826 187.559 316.81 187.559C318.793 187.559 322.682 187.454 323.817 187.972C323.975 188.05 324.154 188.077 324.328 188.049C325.359 187.944 326.431 186.403 326.431 186.403C326.431 186.403 351.986 186.508 347.691 197.397Z" fill="#A36468"/>
<path opacity="0.1" d="M347.691 197.397C343.402 208.294 337.846 212.589 337.846 212.589H334.755C336.367 208.273 339.766 199.415 341.062 197.369C342.33 195.435 330.95 190.621 324.293 188.021C325.324 187.916 326.396 186.375 326.396 186.375C326.396 186.375 351.986 186.508 347.691 197.397Z" fill="black"/>
<path opacity="0.1" d="M63.6406 540.814C80.7385 540.814 94.5991 538.103 94.5991 534.759C94.5991 531.416 80.7385 528.705 63.6406 528.705C46.5427 528.705 32.6821 531.416 32.6821 534.759C32.6821 538.103 46.5427 540.814 63.6406 540.814Z" fill="#00FFAB"/>
<path opacity="0.1" d="M579.705 499.232C592.158 499.232 602.254 497.259 602.254 494.825C602.254 492.39 592.158 490.417 579.705 490.417C567.251 490.417 557.155 492.39 557.155 494.825C557.155 497.259 567.251 499.232 579.705 499.232Z" fill="#00FFAB"/>
<path opacity="0.1" d="M677.45 517.094C689.904 517.094 700 515.121 700 512.686C700 510.252 689.904 508.279 677.45 508.279C664.996 508.279 654.901 510.252 654.901 512.686C654.901 515.121 664.996 517.094 677.45 517.094Z" fill="#00FFAB"/>
<path opacity="0.1" d="M526.098 553.883C538.552 553.883 548.648 551.909 548.648 549.475C548.648 547.041 538.552 545.067 526.098 545.067C513.644 545.067 503.549 547.041 503.549 549.475C503.549 551.909 513.644 553.883 526.098 553.883Z" fill="#00FFAB"/>
<path d="M92.8964 366.695C92.8964 366.695 97.9698 373.331 90.556 383.337C83.1422 393.344 77.0388 401.795 79.5194 408.038C79.5194 408.038 90.6961 389.448 99.7987 389.189C108.901 388.929 102.91 377.879 92.8964 366.695Z" fill="#00FFAB"/>
<path opacity="0.1" d="M92.8966 366.695C93.3404 367.343 93.6897 368.051 93.9337 368.797C102.812 379.231 107.542 388.964 99.007 389.21C91.0607 389.434 81.5237 403.652 79.2393 407.24C79.3124 407.519 79.4037 407.792 79.5125 408.059C79.5125 408.059 90.6893 389.469 99.7918 389.21C108.894 388.95 102.91 377.879 92.8966 366.695Z" fill="black"/>
<path d="M102.322 375.146C102.322 377.479 102.062 379.35 101.74 379.35C101.418 379.35 101.151 377.458 101.151 375.146C101.151 372.833 101.481 373.913 101.803 373.913C102.125 373.913 102.322 372.784 102.322 375.146Z" fill="#FFD037"/>
<path d="M105.559 377.935C103.513 379.049 101.726 379.729 101.572 379.441C101.417 379.154 102.973 378.04 104.998 376.905C107.023 375.77 106.238 376.603 106.4 376.905C106.561 377.206 107.605 376.814 105.559 377.935Z" fill="#FFD037"/>
<path d="M66.1216 366.695C66.1216 366.695 61.0483 373.331 68.4621 383.337C75.8758 393.344 81.9792 401.795 79.5197 408.038C79.5197 408.038 68.3079 389.448 59.1983 389.189C50.0888 388.929 56.1081 377.879 66.1216 366.695Z" fill="#00FFAB"/>
<path opacity="0.1" d="M66.1213 366.695C65.6775 367.343 65.3282 368.051 65.0842 368.797C56.2059 379.231 51.4759 388.964 60.0109 389.21C67.9572 389.434 77.5293 403.652 79.7786 407.24C79.7047 407.517 79.6158 407.791 79.5124 408.059C79.5124 408.059 68.3006 389.469 59.191 389.21C50.0815 388.95 56.1078 377.879 66.1213 366.695Z" fill="black"/>
<path d="M56.6963 375.146C56.6963 377.479 56.9556 379.35 57.2779 379.35C57.6002 379.35 57.8665 377.458 57.8665 375.146C57.8665 372.833 57.5372 373.913 57.2148 373.913C56.8925 373.913 56.6963 372.784 56.6963 375.146Z" fill="#FFD037"/>
<path d="M53.4594 377.935C55.5125 379.049 57.2924 379.729 57.4536 379.441C57.6147 379.154 56.0521 378.04 54.02 376.905C51.9878 375.77 52.7797 376.603 52.6185 376.905C52.4573 377.206 51.4132 376.814 53.4594 377.935Z" fill="#FFD037"/>
<path opacity="0.1" d="M79.5053 458.758C108.782 458.758 132.516 455.115 132.516 450.622C132.516 446.129 108.782 442.487 79.5053 442.487C50.2283 442.487 26.4946 446.129 26.4946 450.622C26.4946 455.115 50.2283 458.758 79.5053 458.758Z" fill="#00FFAB"/>
<path d="M106.792 399.104L106.54 401.206L106.182 404.128L106.035 405.348L105.678 408.277L105.523 409.496L105.166 412.418L101.116 445.661C100.751 448.632 95.9024 450.944 90.0442 450.944H69.0082C63.15 450.944 58.3079 448.632 57.9435 445.661L53.8863 412.411L53.5289 409.489L53.3818 408.27L53.0174 405.341L52.8702 404.121L52.5128 401.199L52.2606 399.097C52.0574 397.415 54.6781 396 57.9926 396H101.102C104.374 396.007 107.002 397.422 106.792 399.104Z" fill="#65617D"/>
<path d="M106.533 401.171L106.182 404.1H52.8284L52.478 401.171H106.533Z" fill="#9D9CB5"/>
<path d="M106.029 405.32L105.678 408.242H53.3403L52.9829 405.32H106.029Z" fill="#9D9CB5"/>
<path d="M105.524 409.461L105.167 412.383H53.8447L53.4873 409.461H105.524Z" fill="#9D9CB5"/>
<path opacity="0.1" d="M126.125 109.329C138.316 109.329 148.199 99.4463 148.199 87.2556C148.199 75.0649 138.316 65.1824 126.125 65.1824C113.935 65.1824 104.052 75.0649 104.052 87.2556C104.052 99.4463 113.935 109.329 126.125 109.329Z" fill="#00FFAB"/>
<path opacity="0.1" d="M79.8767 48.3648C87.4234 48.3648 93.5411 42.2471 93.5411 34.7004C93.5411 27.1538 87.4234 21.0361 79.8767 21.0361C72.3301 21.0361 66.2124 27.1538 66.2124 34.7004C66.2124 42.2471 72.3301 48.3648 79.8767 48.3648Z" fill="#00FFAB"/>
<path opacity="0.1" d="M8.40883 73.5913C13.0529 73.5913 16.8177 69.8265 16.8177 65.1824C16.8177 60.5384 13.0529 56.7736 8.40883 56.7736C3.76476 56.7736 0 60.5384 0 65.1824C0 69.8265 3.76476 73.5913 8.40883 73.5913Z" fill="#00FFAB"/>
</g>
<defs>
<linearGradient id="paint0_linear" x1="279.327" y1="577.694" x2="279.327" y2="96.9888" gradientUnits="userSpaceOnUse">
<stop stop-color="#808080" stop-opacity="0.25"/>
<stop offset="0.54" stop-color="#808080" stop-opacity="0.12"/>
<stop offset="1" stop-color="#808080" stop-opacity="0.1"/>
</linearGradient>
<clipPath id="clip0">
<rect width="700" height="584.407" fill="white"/>
</clipPath>
</defs>
</svg>
