<svg width="700" height="518" viewBox="0 0 700 518" fill="none" xmlns="http://www.w3.org/2000/svg">
<g clip-path="url(#clip0)">
<path opacity="0.1" d="M464.154 498.295C572.762 498.295 660.806 489.418 660.806 478.467C660.806 467.516 572.762 458.638 464.154 458.638C355.546 458.638 267.502 467.516 267.502 478.467C267.502 489.418 355.546 498.295 464.154 498.295Z" fill="#00FFAB"/>
<path opacity="0.1" d="M406.703 72.7655C361.83 71.4632 319.086 59.4045 278.277 46.2063C237.467 33.008 197.034 18.4011 153.232 11.4076C125.057 6.91215 92.8443 6.27352 70.1419 18.8519C48.3035 30.9482 41.2411 51.8412 37.4469 71.219C34.5919 85.8009 32.9139 101.153 40.7339 114.802C46.1685 124.281 55.8104 132.245 62.4784 141.324C85.688 172.917 69.2841 211.866 44.1337 242.708C32.3379 257.177 18.6576 270.983 9.55408 286.385C0.450572 301.787 -3.75057 319.449 4.20718 335.146C12.1023 350.717 30.9104 362.412 51.29 370.639C92.6753 387.35 141.449 392.133 189.032 394.838C294.274 400.843 400.085 398.238 505.664 395.64C544.727 394.682 583.927 393.705 622.388 388.677C643.726 385.885 665.758 381.452 681.242 370.752C700.914 357.166 705.785 334.169 692.605 317.133C670.504 288.564 609.384 281.445 593.932 250.81C585.429 233.936 594.164 215.122 606.523 199.47C633.032 165.898 677.473 136.44 679.814 98.0412C681.423 71.6823 660.061 45.2859 627.028 32.814C592.404 19.741 544.382 21.3876 518.844 43.0257C492.547 65.3399 446.329 73.9112 406.703 72.7655Z" fill="#00FFAB"/>
<path opacity="0.5" d="M107.883 392.077C102.925 389.867 107.119 365.856 117.901 328.841C124.788 305.093 134.417 275.992 146.075 243.873C146.914 241.569 147.766 239.258 148.617 236.923C149.577 234.306 150.55 231.668 151.535 229.009L151.623 228.79C151.76 228.408 151.904 228.032 152.042 227.657C155.774 217.639 159.674 207.39 163.744 196.909C163.819 196.696 163.901 196.489 163.982 196.283L164.189 195.751C165.165 193.246 166.155 190.742 167.15 188.194C167.256 187.931 167.357 187.655 167.463 187.392C167.607 187.023 167.751 186.666 167.889 186.303C167.939 186.19 167.976 186.071 168.027 185.971C168.108 185.752 168.196 185.539 168.277 185.345C169.279 182.84 170.274 180.305 171.27 177.832C172.898 173.783 174.513 169.774 176.116 165.804C176.395 165.107 176.677 164.418 176.961 163.738C177.767 161.739 178.574 159.754 179.384 157.784C179.697 157.032 180.01 156.275 180.311 155.53C180.549 154.96 180.78 154.384 181.012 153.821C183.554 147.672 186.079 141.643 188.588 135.733C188.594 135.712 188.594 135.69 188.588 135.67C198.136 113.174 207.371 92.519 215.948 74.4622C215.998 74.3683 216.036 74.2681 216.086 74.1742L216.994 72.2584C239.008 26.1084 256.326 -2.37291 262.18 0.256718C268.203 2.93643 260.702 37.9104 244.267 89.3259C244.054 90.0083 243.835 90.6783 243.61 91.3607C243.575 91.4945 243.534 91.6262 243.484 91.7552C242.65 94.4182 241.771 97.1313 240.848 99.8945C240.798 100.057 240.742 100.22 240.686 100.383C238.599 106.769 236.378 113.364 234.024 120.168C233.705 121.082 233.398 122.015 233.06 122.941C229.428 133.454 225.547 144.398 221.383 155.68C221.132 156.375 220.876 157.064 220.619 157.765C216.456 169.066 212.067 180.699 207.471 192.57C207.177 193.321 206.882 194.079 206.594 194.836C206.532 194.999 206.469 195.156 206.4 195.319C205.252 198.261 204.098 201.216 202.938 204.184C202.606 205.011 202.312 205.837 201.961 206.657C201.135 208.755 200.308 210.852 199.457 212.918C199.388 213.106 199.313 213.294 199.238 213.475C199.163 213.657 199.119 213.77 199.056 213.914C198.918 214.277 198.774 214.634 198.63 214.991C198.242 215.961 197.86 216.932 197.472 217.89C196.802 219.567 196.132 221.227 195.462 222.898L195.256 223.399C195.257 223.422 195.257 223.445 195.256 223.468C192.534 230.192 189.821 236.802 187.116 243.297C186.206 245.488 185.299 247.665 184.393 249.827C183.723 251.423 183.059 253.014 182.389 254.585C177.418 266.337 172.535 277.588 167.776 288.251C139.001 352.633 114.983 395.245 107.883 392.077Z" fill="#00FFAB"/>
<path opacity="0.5" d="M119.635 347.38C116.58 346.065 120.374 328.985 128.977 302.451C134.487 285.433 141.981 264.521 150.89 241.393L152.838 236.385C153.568 234.502 154.311 232.603 155.066 230.687C155.09 230.634 155.111 230.579 155.129 230.524L155.455 229.71C158.297 222.477 161.263 215.089 164.352 207.546C164.408 207.39 164.471 207.246 164.533 207.095C164.596 206.945 164.633 206.839 164.69 206.714C165.428 204.898 166.174 203.088 166.925 201.26L167.169 200.678L167.488 199.895C167.526 199.814 167.557 199.726 167.588 199.651C167.62 199.576 167.72 199.344 167.783 199.194C168.542 197.366 169.296 195.552 170.043 193.753C171.27 190.831 172.487 187.937 173.693 185.069L174.319 183.579C174.945 182.133 175.534 180.705 176.141 179.278L176.836 177.65C177.018 177.237 177.187 176.824 177.362 176.398C179.269 171.961 181.162 167.603 183.041 163.325C183.044 163.31 183.044 163.295 183.041 163.281C190.178 147.002 197.04 132.064 203.339 118.972C203.376 118.903 203.408 118.828 203.445 118.759L204.109 117.369C220.3 83.8913 232.672 63.0609 236.278 64.6199C239.991 66.2227 233.567 91.1603 220.688 128.075L220.175 129.54C220.143 129.634 220.112 129.728 220.075 129.822C219.407 131.734 218.72 133.677 218.015 135.651L217.889 136.002C216.249 140.593 214.523 145.333 212.712 150.22C212.467 150.884 212.223 151.554 211.967 152.218C209.162 159.775 206.163 167.657 202.995 175.784L202.412 177.281C199.232 185.42 195.892 193.78 192.395 202.362C192.175 202.907 191.956 203.452 191.731 203.996C191.681 204.115 191.631 204.228 191.587 204.347L188.964 210.739L188.225 212.524C187.599 214.039 186.973 215.554 186.346 217.051C186.296 217.188 186.24 217.32 186.184 217.451C186.127 217.583 186.096 217.664 186.046 217.771L185.727 218.541C185.432 219.242 185.144 219.943 184.85 220.638L183.379 224.282L183.222 224.645V224.695C181.169 229.554 179.132 234.327 177.111 239.014C176.431 240.6 175.749 242.174 175.064 243.735C174.563 244.895 174.062 246.043 173.562 247.178C169.842 255.668 166.205 263.814 162.674 271.528C141.292 318.197 124.012 349.271 119.635 347.38Z" fill="#00FFAB"/>
<path d="M321.065 220.688C321.065 218.941 319.355 219.843 319.118 219.918C318.431 219.354 317.683 218.869 316.889 218.472C313.076 216.487 307.316 215.279 302.726 214.571C302.71 214.565 302.692 214.565 302.676 214.571C298.632 213.945 295.514 213.732 295.514 213.732L293.128 213.764H292.239C292.551 213.3 293.01 212.954 293.541 212.781C294.205 212.699 290.736 212.442 289.09 212.33H289.021L288.257 212.28C284.638 213.131 277.857 208.479 277.857 208.479L277.069 204.51C279.748 201.611 279.36 194.367 279.36 194.367C279.36 194.367 279.586 191.938 281.865 188.594C284.144 185.251 281.483 183.135 281.483 183.135L285.421 178.933C285.252 178.209 285.227 177.458 285.35 176.724C285.472 175.99 285.739 175.288 286.135 174.657C286.375 174.301 286.673 173.988 287.017 173.731V173.699L287.08 173.643C289.653 171.671 291.826 164.821 291.826 164.821C291.826 164.821 291.325 163.6 294.142 160.288V160.251C294.518 159.812 294.956 159.343 295.463 158.817C295.463 158.773 295.539 158.735 295.576 158.692C300.097 154.159 298.318 151.654 298.318 151.654L292.828 144.98C294.124 142.814 283.718 127.268 283.718 127.268C283.718 127.268 282.39 124.068 283.142 121.007C283.352 120.285 283.374 119.522 283.204 118.79C283.105 118.377 282.903 117.995 282.616 117.682C282.439 117.493 282.226 117.342 281.99 117.237L281.614 117.206L282.059 116.881C282.24 116.762 282.416 116.63 282.597 116.505C282.985 116.655 283.373 116.787 283.768 116.906C287.589 118.14 291.66 118.394 295.605 117.643C299.551 116.893 303.244 115.162 306.345 112.611C306.502 112.492 306.652 112.36 306.796 112.229C306.94 112.097 307.19 111.891 307.384 111.709C307.472 111.628 307.56 111.552 307.635 111.471C307.71 111.39 307.929 111.183 308.073 111.033C308.117 111.171 308.161 111.302 308.211 111.44C308.407 111.995 308.644 112.535 308.918 113.055C308.942 113.103 308.969 113.149 309 113.193C308.998 113.212 308.998 113.23 309 113.249C309.044 113.343 309.1 113.431 309.15 113.518C309.507 114.115 309.94 114.662 310.44 115.146C310.562 115.267 310.692 115.38 310.828 115.484C311.023 115.651 311.233 115.8 311.454 115.929C311.487 115.958 311.523 115.983 311.561 116.004C311.598 116.033 311.638 116.058 311.679 116.079V116.079C311.842 115.791 311.999 115.497 312.149 115.203C313.479 112.609 314.253 109.766 314.422 106.857C314.429 106.503 314.459 106.149 314.509 105.799C314.543 105.531 314.622 105.271 314.741 105.028C314.973 104.553 315.347 104.161 315.812 103.908C316.563 103.526 317.352 103.223 318.166 103.006L318.36 102.937L318.598 102.856L319.061 102.674L319.136 102.637C319.274 102.58 319.399 102.512 319.531 102.449C319.57 102.42 319.612 102.395 319.656 102.374C319.806 102.29 319.948 102.194 320.082 102.086L320.144 102.036C320.266 101.943 320.379 101.841 320.482 101.729C320.533 101.679 320.564 101.616 320.614 101.566C320.683 101.49 320.746 101.409 320.802 101.322L320.952 101.103C320.984 101.033 321.022 100.966 321.065 100.902C321.544 99.9317 321.76 98.8523 321.691 97.772C321.603 96.2192 321.146 94.7166 321.165 93.1576C321.221 89.4323 323.907 85.8761 323.669 82.1758C323.456 78.9702 321.096 76.4783 318.661 74.4873C316.225 72.4963 313.52 70.6367 312.187 67.788C311.191 65.653 311.053 63.1674 310.158 60.9885C308.28 56.4243 302.77 53.851 297.793 55.2096C294.812 56.0298 292.22 58.002 289.321 59.0977C287.406 59.8177 285.396 60.1433 283.486 60.8758C281.231 61.7473 279.209 63.1321 277.582 64.9204C277.294 65.2335 277.025 65.5465 276.762 65.8972L276.518 66.229C276.336 66.4794 276.154 66.7299 275.992 66.9928C275.917 67.1055 275.848 67.212 275.779 67.3309C275.551 67.6933 275.342 68.0674 275.153 68.4517C274.971 68.8085 274.815 69.1717 274.658 69.5411C273.788 71.6448 273.249 73.8862 272.204 75.8897C271.972 76.346 271.708 76.7853 271.415 77.2045C271.008 77.7868 270.538 78.3315 270.075 78.8825C269.95 79.0328 269.825 79.183 269.699 79.3208C269.648 79.3939 269.592 79.4629 269.53 79.5274C269.443 79.6463 269.343 79.759 269.249 79.878C269.155 79.997 269.136 80.022 269.086 80.0909C269.036 80.1597 268.898 80.3476 268.817 80.4791C268.735 80.6105 268.723 80.598 268.679 80.6669C268.554 80.861 268.441 81.0613 268.328 81.2617V81.3055C267.978 81.9796 267.785 82.7247 267.765 83.4843C267.757 83.8602 267.812 84.2347 267.928 84.5925C267.958 84.6843 267.993 84.7743 268.034 84.8618C268.128 85.0632 268.253 85.249 268.403 85.4127C268.328 85.6193 268.241 85.8322 268.172 86.0388C268.009 86.5147 267.859 87.003 267.721 87.4851C267.633 87.817 267.564 88.1112 267.489 88.4556C267.197 89.7236 267.011 91.0136 266.932 92.3124V92.3124L266.531 92.519C265.826 92.8691 265.101 93.1764 264.359 93.4394V93.4394H264.284C263.658 93.5771 259.337 94.4787 257.822 94.2157L252.419 93.2703C252.419 93.2703 251.167 92.7506 249.796 92.0932C248.761 91.641 247.795 91.0445 246.928 90.3214C245.895 89.2069 238.751 84.6113 237.249 84.6176C236.635 84.5217 236.076 84.2111 235.671 83.741C235.217 83.1858 234.799 82.6024 234.419 81.9942C234.419 81.9942 234.275 81.9191 234.049 81.7813C233.767 81.3869 233.592 81.0926 233.592 81.0926C233.592 81.0926 231.47 79.9281 229.31 78.5882L228.389 80.4665C228.339 80.5605 228.295 80.6606 228.245 80.7608C219.53 98.7299 210.001 119.247 200.071 141.53C200.074 141.551 200.074 141.572 200.071 141.593C197.454 147.436 194.814 153.407 192.15 159.506L191.418 161.196L190.441 163.425L187.893 169.31L187.004 171.358C185.313 175.277 183.61 179.242 181.895 183.254C180.843 185.712 179.787 188.194 178.727 190.698C178.645 190.905 178.552 191.117 178.464 191.324C178.414 191.43 178.37 191.543 178.32 191.656C178.176 192.013 178.019 192.37 177.869 192.733C177.756 192.989 177.644 193.265 177.531 193.522C176.479 196.026 175.434 198.53 174.401 200.985L173.925 201.229L174.181 201.511C174.094 201.717 174.006 201.918 173.925 202.137C169.605 212.455 165.431 222.566 161.403 232.471L160.952 233.586L160.858 233.805C159.798 236.422 158.754 239.02 157.727 241.6C156.809 243.904 155.897 246.187 154.991 248.45C142.4 280.08 131.75 308.637 123.83 331.852C123.455 332.109 123.054 332.403 122.647 332.735C123.054 332.428 123.448 332.109 123.812 331.89C124.125 331.676 124.451 331.482 124.788 331.308C125.525 330.916 126.202 330.421 126.798 329.836C127.067 329.586 127.33 329.329 127.587 329.06C129.056 327.414 130.387 325.651 131.569 323.788C131.759 323.562 131.969 323.353 132.195 323.162L132.527 322.862L132.577 322.818C132.759 322.661 132.953 322.486 133.172 322.304L133.209 322.273L133.535 322.004L133.572 321.973L133.923 321.678C134.994 320.802 136.302 319.769 137.548 318.792L137.999 318.448L139.52 317.271L140.272 316.701L141.931 315.449C141.946 315.423 141.963 315.398 141.981 315.373C142.131 315.179 142.476 314.747 142.958 314.153C142.967 314.139 142.98 314.128 142.995 314.121C143.052 314.043 143.113 313.968 143.177 313.896C143.841 313.12 144.705 312.149 145.681 311.185C145.8 311.072 145.919 310.947 146.051 310.834L146.408 310.49L146.99 309.97C147.562 309.461 148.164 308.987 148.793 308.549C149.597 307.969 150.367 307.342 151.097 306.671L151.254 306.533C151.36 306.426 151.479 306.314 151.604 306.207C151.694 306.131 151.78 306.049 151.861 305.963L152.13 305.713L152.575 305.293L152.856 305.024L153.52 304.398L154.265 303.659L154.378 303.546C154.76 303.158 155.148 302.764 155.542 302.376L155.999 301.912C156.187 301.718 156.375 301.518 156.563 301.33C156.882 301.011 157.189 300.704 157.515 300.36L158.21 299.633C158.435 299.389 158.66 299.164 158.873 298.938C159.218 298.581 159.543 298.243 159.85 297.911L159.919 297.836L160.714 296.997C160.714 296.997 160.714 296.997 160.751 296.954C160.946 296.759 161.115 296.578 161.277 296.396L161.434 296.227C161.59 296.077 161.728 295.921 161.847 295.795C162.317 295.301 162.586 295.006 162.586 295.006L168.221 288.589L173.962 281.883L174.219 281.595C174.219 281.595 175.684 279.391 177.18 277.569L177.381 277.325C177.892 276.684 178.464 276.095 179.09 275.566C179.594 275.143 180.058 274.673 180.474 274.163C180.505 274.163 180.53 274.095 180.568 274.057C182.258 272.079 184.443 269.004 185.144 267.996L185.376 267.671C185.958 267.187 186.495 266.65 186.979 266.068C187.567 265.387 188.04 264.615 188.381 263.783C188.712 263.035 189.132 262.331 189.634 261.685C189.636 261.675 189.636 261.664 189.634 261.654L189.734 261.516L190.091 261.053C190.533 261.138 190.981 261.193 191.43 261.216C193.488 261.294 195.544 261.032 197.516 260.439C197.574 260.424 197.63 260.405 197.685 260.383V260.383C198.199 260.264 198.587 260.151 198.793 260.089L198.975 260.032L202.863 254.335L202.957 254.203C202.957 254.203 205.011 252.256 206.977 250.171C207.189 249.946 207.396 249.72 207.603 249.501C209.005 247.986 210.245 246.496 210.489 245.707C211.115 243.735 214.565 239.728 214.565 239.728C214.565 239.728 220.482 232.165 222.792 229.31C222.886 229.191 222.98 229.072 223.061 228.978L223.374 228.596C223.445 228.645 223.512 228.699 223.574 228.759C223.749 228.931 223.906 229.12 224.044 229.322C224.057 229.348 224.071 229.373 224.088 229.397L224.282 229.122C224.413 228.946 224.595 228.677 224.839 228.345C225.028 228.523 225.194 228.723 225.334 228.94L225.39 229.022C225.39 229.022 238.476 210.952 240.517 205.856C240.988 204.793 241.578 203.786 242.276 202.857C244.95 199.157 249.458 194.887 251.574 192.952L252.2 192.395C252.525 192.094 252.72 191.931 252.72 191.931L252.945 192.42C252.945 192.457 252.945 192.495 252.989 192.539C253.527 193.76 254.617 196.464 254.034 197.209C253.289 198.186 251.292 208.047 251.292 208.047C251.292 208.047 248.568 212.38 250.334 219.035C252.1 225.691 259.475 228.014 261.122 227.876C262.18 227.782 271.434 231.632 277.989 234.456L279.604 235.151L281.232 235.846L283.768 236.954L283.912 237.017C284.119 237.117 284.331 237.211 284.538 237.292L284.669 237.117L284.732 237.023L285.358 237.317L284.732 236.961C284.989 236.597 285.433 235.94 285.984 235.045C286.012 234.983 286.045 234.924 286.084 234.869L286.26 234.575L286.554 234.074C286.585 234.005 286.623 233.949 286.654 233.893L286.955 233.354C286.974 233.329 286.99 233.301 287.005 233.273C287.418 232.521 287.85 231.683 288.257 230.768C288.32 230.649 288.382 230.518 288.439 230.393L290.054 230.255L291.168 230.161L291.795 230.111L292.608 230.03L292.99 230.105L308.418 231.219L309.544 231.307C311.014 231.436 312.494 231.257 313.89 230.781C315.286 230.305 316.567 229.543 317.651 228.543C318.736 227.544 319.599 226.329 320.187 224.976C320.775 223.623 321.074 222.163 321.065 220.688V220.688Z" fill="url(#paint0_linear)"/>
<path d="M283.292 237.668C283.292 237.668 295.025 221.765 287.005 212.962L267.978 218.741L268.979 225.722C268.979 225.722 277.225 235.245 283.292 237.668Z" fill="#4A4566"/>
<path opacity="0.1" d="M267.978 218.741L268.979 225.722C268.979 225.722 274.802 232.421 280.249 236.015C281.214 236.664 282.239 237.218 283.311 237.668C283.311 237.668 283.38 237.587 283.499 237.411C283.513 237.391 283.525 237.37 283.536 237.349C284.955 235.292 286.195 233.118 287.243 230.85C287.631 229.992 288.013 229.072 288.363 228.139C289.616 224.576 290.392 220.544 289.303 216.975C288.91 215.654 288.254 214.425 287.374 213.363C287.299 213.275 287.224 213.181 287.136 213.094C287.102 213.047 287.065 213.003 287.024 212.962L286.604 213.087L280.168 215.041L267.978 218.741Z" fill="black"/>
<path d="M188.544 169.943L186.948 171.364L187.837 169.317L188.544 169.943Z" fill="#4A4566"/>
<path opacity="0.1" d="M188.544 169.943L186.948 171.364L187.837 169.317L188.544 169.943Z" fill="black"/>
<path d="M289.071 214.458C289.071 214.458 280.794 223.481 285.815 229.197C285.815 229.197 288.232 229.898 291.794 230.556C300.003 232.058 314.259 233.31 318.829 225.083C325.366 213.3 294.174 214.365 294.174 214.365L291.813 214.408L289.071 214.458Z" fill="#FBBEBE"/>
<path opacity="0.1" d="M289.071 214.458C289.071 214.458 280.794 223.481 285.815 229.197C285.815 229.197 288.232 229.898 291.794 230.556L292.846 230.462C291.475 229.974 290.227 229.192 289.19 228.17C287.863 226.799 286.923 224.739 288.013 221.846C288.62 220.193 289.329 218.579 290.135 217.013C290.6 216.087 291.163 215.214 291.813 214.408L289.071 214.458Z" fill="black"/>
<path d="M275.09 231.902L277.87 231.664L287.224 230.85L291.995 230.43C290.625 229.943 289.378 229.161 288.344 228.139C287.017 226.761 286.072 224.708 287.161 221.815C287.771 220.161 288.48 218.545 289.284 216.975C290.623 214.471 291.656 213.519 292.226 213.444C292.796 213.369 289.453 213.119 287.844 213.012H287.781C287.324 212.975 287.023 212.962 287.023 212.962L286.585 213.087L280.349 214.89L280.149 215.034C278.621 216.143 269.417 223.337 275.09 231.902Z" fill="#E7EFFD"/>
<path d="M203.02 235.358L193.39 257.365C193.39 257.365 191.718 259.118 190.216 260.965C190.192 261.001 190.165 261.035 190.134 261.065L189.771 261.535C189.732 261.576 189.696 261.62 189.665 261.667C189.667 261.677 189.667 261.688 189.665 261.698C189.019 262.472 188.48 263.329 188.062 264.246C187.794 264.903 187.438 265.52 187.004 266.081C186.461 266.785 185.846 267.431 185.169 268.009C185.141 268.039 185.109 268.066 185.075 268.09C185.075 268.09 182.571 271.678 180.593 274.07C180.555 274.107 180.53 274.151 180.499 274.176C179.994 274.807 179.435 275.391 178.827 275.923C178.31 276.349 177.834 276.823 177.406 277.338L177.205 277.582C175.634 279.46 173.987 281.896 173.987 281.896L168.252 288.426L162.411 295.031L161.853 295.658L161.44 296.09L161.284 296.259L160.758 296.816C160.758 296.816 160.726 296.816 160.72 296.86L159.925 297.699L159.856 297.774C159.543 298.093 159.23 298.437 158.879 298.801C158.667 299.026 158.441 299.251 158.216 299.496L157.521 300.222C157.208 300.541 156.895 300.848 156.569 301.192C156.381 301.38 156.193 301.58 156.006 301.775L155.549 302.238C155.154 302.626 154.766 303.021 154.384 303.409L154.271 303.521L153.526 304.26L152.863 304.886L152.581 305.156L152.136 305.575L151.867 305.825C151.786 305.912 151.7 305.993 151.61 306.07C151.491 306.189 151.372 306.295 151.26 306.395L151.103 306.533C150.355 307.244 149.56 307.905 148.724 308.511C147.913 309.085 147.141 309.713 146.414 310.39V310.39L146.057 310.734C145.925 310.847 145.806 310.972 145.687 311.085C144.717 312.049 143.853 313.019 143.183 313.796C143.119 313.868 143.058 313.943 143.001 314.021C142.986 314.027 142.973 314.038 142.964 314.052C142.482 314.635 142.137 315.079 141.987 315.273L141.906 315.373L140.247 316.626L139.495 317.195L137.974 318.373L137.523 318.717C136.271 319.694 134.969 320.727 133.898 321.603L133.547 321.897L133.51 321.929L133.184 322.198L133.147 322.229C132.928 322.411 132.733 322.586 132.552 322.743L132.502 322.787L132.17 323.087C131.972 323.26 131.789 323.451 131.625 323.657C130.429 325.539 129.076 327.318 127.581 328.972C127.324 329.242 127.061 329.498 126.792 329.749C126.231 330.289 125.599 330.75 124.913 331.12C124.543 331.304 124.185 331.513 123.843 331.746C131.763 308.53 142.413 279.974 155.004 248.343C155.905 246.077 156.817 243.793 157.74 241.494C158.779 238.914 159.823 236.316 160.87 233.699L160.964 233.479L161.415 232.365C165.422 222.473 169.596 212.361 173.937 202.03C174.019 201.824 174.106 201.623 174.194 201.404L173.937 201.123L174.413 200.878C175.452 198.374 176.498 195.92 177.543 193.415C177.656 193.159 177.769 192.883 177.882 192.626C178.032 192.263 178.188 191.906 178.332 191.549C178.382 191.437 178.426 191.324 178.476 191.218C178.564 191.005 178.658 190.792 178.739 190.591C179.804 188.087 180.86 185.606 181.907 183.147L192.939 195.481L193.403 195.988L201.104 204.472L201.573 204.979L203.971 207.621L205.267 209.049L205.893 209.731L213.607 218.228L213.707 218.34L214.07 218.735L203.02 235.358Z" fill="#3F3D56"/>
<path d="M258.198 96.8641L256.658 118.471C256.658 118.471 275.153 127.236 275.697 124.018C275.917 122.766 278.327 120.7 281.207 118.646C285.746 115.397 291.45 112.16 291.45 112.16C291.45 112.16 272.849 84.1167 270.639 89.977C269.831 92.1183 267.959 93.6147 265.905 94.6477C263.471 95.7946 260.869 96.543 258.198 96.8641V96.8641Z" fill="#FBBEBE"/>
<path opacity="0.1" d="M270.639 89.977C269.831 92.1183 270.012 92.6129 267.965 93.646C267.496 99.9946 267.508 107.514 272.179 112.554C274.673 115.26 277.764 117.346 281.207 118.646C285.746 115.397 291.45 112.16 291.45 112.16C291.45 112.16 272.849 84.1167 270.639 89.977Z" fill="black"/>
<path d="M273.913 78.4881C271.617 80.6131 269.761 83.1696 268.453 86.0116C267.144 88.8536 266.409 91.9256 266.287 95.052C266.166 98.1784 266.662 101.298 267.746 104.233C268.831 107.168 270.483 109.86 272.608 112.157C274.733 114.453 277.289 116.308 280.131 117.617C282.973 118.925 286.045 119.661 289.172 119.782C292.298 119.904 295.418 119.408 298.353 118.323C301.287 117.239 303.98 115.587 306.276 113.462L306.52 113.224C311.124 108.9 313.822 102.924 314.02 96.6115C314.218 90.2986 311.899 84.1656 307.575 79.5618C303.251 74.958 297.276 72.2605 290.963 72.0626C284.65 71.8648 278.517 74.1828 273.913 78.5068V78.4881Z" fill="#FBBEBE"/>
<path opacity="0.1" d="M204.259 229.535C203.47 230.568 202.162 230.343 200.058 227.594C199.08 226.396 198.015 225.272 196.871 224.232C196.658 224.032 196.433 223.825 196.214 223.606C193.878 221.458 190.886 218.898 187.661 215.992L187.455 215.811C186.021 214.515 184.524 213.144 183.034 211.722L182.145 210.871C180.104 208.899 178.057 206.808 176.103 204.61L176.016 204.522C175.296 203.721 174.582 202.907 173.875 202.118C173.956 201.911 174.044 201.711 174.131 201.492L173.875 201.21L174.35 200.966C175.39 198.462 176.435 196.007 177.481 193.503C177.594 193.246 177.706 192.971 177.819 192.714C177.969 192.351 178.126 191.994 178.27 191.637C178.32 191.524 178.364 191.412 178.414 191.305L179.146 192.219C180.336 193.709 181.551 195.206 182.778 196.69L182.884 196.821C183.579 197.654 184.268 198.487 184.963 199.326C184.994 199.326 185.019 199.394 185.05 199.42C185.821 200.34 186.609 201.241 187.405 202.105L187.868 202.6C188.719 203.52 189.571 204.384 190.422 205.223C192.426 207.189 194.404 208.98 196.226 210.483C196.402 210.633 196.571 210.777 196.752 210.921C198.361 212.261 199.845 213.425 201.135 214.34L201.717 214.778L202.443 215.297C204.134 216.512 205.167 217.176 205.167 217.176C205.167 217.176 205.261 218.034 205.336 219.298C205.38 220.031 205.424 220.901 205.443 221.803C205.468 224.733 205.286 228.189 204.259 229.535Z" fill="black"/>
<path d="M204.259 229.535C203.452 230.017 202.243 229.479 200.503 227.193C199.485 225.948 198.374 224.782 197.178 223.706L197.116 223.65L196.521 223.086C194.267 221.02 191.431 218.578 188.381 215.823C188.31 215.768 188.243 215.707 188.181 215.642C186.497 214.139 184.756 212.511 183.003 210.846C182.709 210.57 182.415 210.282 182.114 209.988C180.236 208.16 178.358 206.231 176.554 204.222L176.473 204.128L174.144 201.523L173.887 201.241L174.363 200.997C175.402 198.493 176.448 196.039 177.494 193.534C177.606 193.277 177.719 193.002 177.832 192.745C177.982 192.382 178.138 192.025 178.282 191.668C178.333 191.556 178.376 191.443 178.426 191.337C178.514 191.124 178.608 190.911 178.689 190.71C179.985 192.332 181.319 193.991 182.665 195.632C182.681 195.643 182.693 195.658 182.703 195.675L183.329 196.452C184.049 197.322 184.769 198.18 185.489 199.044C186.115 199.814 186.791 200.559 187.449 201.285C187.561 201.417 187.68 201.542 187.799 201.667C187.918 201.792 188.106 202.005 188.256 202.168C190.878 204.955 193.665 207.581 196.602 210.032C196.771 210.182 196.946 210.326 197.122 210.47C198.675 211.76 200.108 212.881 201.335 213.801C201.567 213.964 201.786 214.133 201.999 214.289L202.725 214.809C204.497 216.061 205.58 216.769 205.58 216.769C205.58 216.769 205.731 218.209 205.812 220.131C205.843 220.926 205.862 221.796 205.856 222.685C205.837 225.666 205.499 228.796 204.259 229.535Z" fill="#5F5D7E"/>
<path opacity="0.1" d="M278.177 140.823L213.607 218.215L208.029 224.908L207.208 225.891C206.822 224.797 206.37 223.726 205.856 222.685C205.718 222.41 205.574 222.116 205.412 221.815C204.448 219.883 203.146 218.14 201.567 216.669C201.336 216.468 201.098 216.28 200.86 216.111L200.465 215.848C200.086 215.61 199.683 215.411 199.263 215.254C197.832 214.598 196.53 213.69 195.419 212.574V212.574L194.918 212.111C192.186 209.342 189.674 206.366 187.405 203.207C187.261 203.013 187.123 202.825 186.998 202.644C186.259 201.636 185.821 200.997 185.821 200.997C185.821 200.997 185.345 200.421 184.569 199.564C183.943 198.837 183.135 197.911 182.265 196.971C180.918 195.423 179.428 194.005 177.813 192.739C177.963 192.376 178.12 192.019 178.264 191.662C178.314 191.549 178.358 191.437 178.408 191.33C178.495 191.117 178.589 190.905 178.671 190.704C179.735 188.2 180.791 185.718 181.839 183.26C183.554 179.253 185.257 175.287 186.948 171.364L187.837 169.317L190.385 163.431L191.362 161.202L192.094 159.512C194.762 153.426 197.402 147.455 200.015 141.599L240.88 105.285L245.801 102.944L250.541 100.702L253.934 101.679L254.442 101.817L257.735 102.768H257.779L258.574 103L260.208 103.469L261.016 114.295V114.389V114.689L262.506 116.83L263.432 118.177L263.833 118.333L265.53 118.991L266.043 119.185L266.231 119.26L267.715 119.836L271.929 121.47L272.937 124.6L273.563 126.616L273.907 127.7L274.239 128.488L278.177 140.823Z" fill="black"/>
<path d="M279.053 140.009L213.707 218.328L208.072 225.071L208.016 224.908C207.417 223.254 206.675 221.656 205.8 220.131C205.643 219.855 205.468 219.574 205.292 219.298C204.46 217.924 203.414 216.692 202.193 215.648C201.955 215.46 201.717 215.285 201.473 215.128C201.292 215.005 201.104 214.892 200.91 214.79C200.661 214.659 200.404 214.544 200.14 214.446C198.655 213.763 197.308 212.814 196.164 211.647L195.657 211.178C193.787 209.309 192.035 207.327 190.41 205.242C189.54 204.134 188.77 203.114 188.15 202.275L187.743 201.711C187.63 201.561 187.53 201.417 187.436 201.279C186.948 200.603 186.666 200.19 186.666 200.19C186.666 200.19 184.788 197.898 182.678 195.669C182.668 195.652 182.656 195.637 182.64 195.625C181.552 194.42 180.38 193.292 179.134 192.251C178.858 192.033 178.565 191.839 178.257 191.668C178.307 191.556 178.351 191.443 178.401 191.337C178.489 191.124 178.583 190.911 178.664 190.71C179.729 188.206 180.785 185.725 181.832 183.266C183.548 179.259 185.251 175.294 186.941 171.37L187.83 169.323L190.379 163.437L191.355 161.209L192.088 159.518C194.755 153.432 197.395 147.461 200.008 141.605C200.012 141.585 200.012 141.563 200.008 141.543L241.738 104.452L245.951 102.449L251.398 99.8632L254.66 100.802L255.168 100.946L257.829 101.716L258.455 101.892L259.193 102.105L261.072 102.649L261.911 113.869L262.336 114.495L262.405 114.595L262.493 114.727L263.789 116.605L264.315 117.369L266.406 118.183L269.011 119.191L272.817 120.669L274.12 124.744L274.351 125.471L274.689 126.523L274.852 127.036L274.959 127.355L279.053 140.009Z" fill="#E7EFFD"/>
<path opacity="0.1" d="M269.317 124.337C269.317 124.337 261.09 124.732 260.201 125.69C259.312 126.648 257.177 128.902 257.177 128.902L253.947 137.342C253.947 137.342 248.024 145.825 246.484 147.253C244.943 148.68 233.961 163.619 233.961 163.619L216.255 185.739L192.914 214.577L182.415 216.938L182.026 208.567L224.269 157.853L232.515 147.766C232.515 147.766 248.255 130.598 250.046 128.983C251.837 127.368 257.184 123.88 257.184 123.88C257.184 123.88 260.702 118.872 258.06 113.925C255.418 108.979 258.548 114.019 258.548 114.019L262.493 114.595L263.52 117.325C263.52 117.325 270.282 121.263 269.317 124.337Z" fill="black"/>
<path d="M270.163 124.369C270.163 124.369 261.936 124.763 261.047 125.721C260.158 126.679 258.023 128.933 258.023 128.933L254.83 137.373C254.83 137.373 248.875 145.857 247.316 147.272C245.757 148.687 234.794 163.644 234.794 163.644L217.094 185.758L193.753 214.602L183.254 216.957L182.878 208.629L225.115 157.915L233.367 147.823C233.367 147.823 249.107 130.655 250.866 129.039C252.626 127.424 258.004 123.937 258.004 123.937C258.004 123.937 261.523 118.928 258.88 113.988C256.238 109.048 259.375 114.076 259.375 114.076L263.319 114.652L264.346 117.381C264.346 117.381 271.108 121.295 270.163 124.369Z" fill="#00FFAB"/>
<path opacity="0.1" d="M280.255 119.804C280.255 119.804 280.356 120.8 277.557 123.668C274.758 126.535 270.044 134.706 270.044 134.706C270.044 134.706 268.259 122.184 264.14 118.903L280.255 119.804Z" fill="black"/>
<path d="M281.126 118.991C281.126 118.991 281.232 119.986 278.433 122.847C275.635 125.709 270.92 133.892 270.92 133.892C270.92 133.892 269.136 121.37 265.01 118.083L281.126 118.991Z" fill="#E7EFFD"/>
<path opacity="0.1" d="M263.295 96.7765L263.871 118.609C263.871 118.609 248.469 114.051 245.776 114.088C243.084 114.126 257.722 98.1226 257.722 98.1226L263.295 96.7765Z" fill="black"/>
<path d="M263.77 95.518L264.346 117.35C264.346 117.35 248.944 112.792 246.252 112.83C243.56 112.867 258.192 96.8641 258.192 96.8641L263.77 95.518Z" fill="#E7EFFD"/>
<path opacity="0.1" d="M279.874 119.36C279.874 119.36 281.752 120.074 281.007 123.117C280.262 126.159 281.552 129.296 281.552 129.296C281.552 129.296 291.795 144.629 290.505 146.777L295.914 153.357C295.914 153.357 297.661 155.83 293.241 160.332C288.821 164.834 289.484 166.418 289.484 166.418C289.484 166.418 287.312 173.205 284.757 175.183C282.203 177.162 283.073 180.43 283.073 180.43L250.71 193.346C250.71 193.346 240.548 202.112 238.551 207.127C236.554 212.142 223.525 230.061 223.525 230.061C223.525 230.061 222.592 228.464 221.778 229.353C220.964 230.242 212.774 240.692 212.774 240.692C212.774 240.692 209.368 244.668 208.724 246.621C208.079 248.575 201.248 255.049 201.248 255.049L197.347 260.84C197.347 260.84 188.519 263.833 185.451 258.755C182.383 253.677 191.875 230.543 191.875 230.543L205.311 208.968L219.543 188.701L230.562 176.448L255.606 150.008L270.852 131.124C270.852 131.124 277.645 119.491 279.874 119.36Z" fill="black"/>
<path d="M281.126 118.991C281.126 118.991 283.004 119.698 282.259 122.716C281.514 125.734 282.797 128.895 282.797 128.895C282.797 128.895 293.047 144.229 291.757 146.376L297.166 152.957C297.166 152.957 298.913 155.43 294.493 159.931C290.073 164.433 290.736 166.017 290.736 166.017C290.736 166.017 288.564 172.804 286.009 174.782C283.455 176.761 284.325 180.029 284.325 180.029L251.949 192.921C251.949 192.921 241.838 201.742 239.803 206.751C237.768 211.76 224.777 229.679 224.777 229.679C224.777 229.679 223.844 228.082 223.03 228.971C222.216 229.861 214.026 240.31 214.026 240.31C214.026 240.31 210.62 244.286 209.976 246.246C209.331 248.205 202.5 254.667 202.5 254.667L198.593 260.464C198.593 260.464 189.771 263.451 186.697 258.373C183.623 253.296 193.165 230.161 193.165 230.161L206.62 208.592L220.851 188.325L231.852 176.072L256.896 149.632L272.141 130.749C272.141 130.749 278.934 119.097 281.126 118.991Z" fill="#4A4566"/>
<path opacity="0.1" d="M267.978 218.741L268.979 225.722C268.979 225.722 274.802 232.421 280.249 236.015L283.499 237.411L284.125 237.693L283.499 237.349C280.5 235.564 278.734 233.636 277.864 231.664C274.314 223.762 284.876 215.21 287.349 213.363C287.593 213.175 287.75 213.056 287.819 213.012H287.85H287.756C287.55 213.055 287.34 213.082 287.13 213.094C286.953 213.103 286.775 213.103 286.598 213.094V213.094L280.349 214.89L280.149 215.034L267.978 218.741Z" fill="black"/>
<path d="M283.004 177.406L284.325 180.004L280.412 184.174C280.412 184.174 283.017 186.253 280.769 189.565C278.521 192.877 278.265 195.275 278.265 195.275C278.265 195.275 278.628 202.444 275.967 205.292L276.743 209.256C276.743 209.256 283.436 213.832 287.005 212.981C287.005 212.981 265.617 227.876 283.292 237.687C283.292 237.687 261.779 228.295 260.126 228.446C258.474 228.596 251.211 226.329 249.483 219.749C247.755 213.169 250.466 208.886 250.466 208.886C250.466 208.886 252.475 199.119 253.221 198.155C253.966 197.191 251.931 192.939 251.931 192.939L261.36 172.485L283.004 177.406Z" fill="#4A4566"/>
<path opacity="0.1" d="M263.764 95.5243V95.5619L262.85 96.8704L259.212 102.098L258.586 102.987L257.684 104.296L256.081 106.625L249.326 113.312L248.199 114.426L237.436 125.07L213.682 148.599L196.376 158.617C196.376 158.617 193.903 159.869 191.368 161.184L192.1 159.493C194.767 153.407 197.407 147.436 200.02 141.58C200.024 141.56 200.024 141.538 200.02 141.518C209.969 119.235 219.498 98.7174 228.195 80.7483C228.341 80.8134 228.481 80.8909 228.614 80.9799C230.574 82.2885 232.891 83.6033 233.774 84.1105L234.143 84.3171C234.523 84.9254 234.941 85.5089 235.395 86.0639C236.115 86.9342 237.01 87.7857 237.749 87.7857C239.239 87.7857 246.289 92.2873 247.31 93.4206C247.776 93.8509 248.301 94.2134 248.869 94.4975C250.515 95.4179 252.719 96.3257 252.719 96.3257L257.866 97.196L258.066 97.2335H258.129C259.513 97.4151 262.512 96.1066 263.432 95.6683L263.695 95.5493L263.764 95.5243Z" fill="black"/>
<path d="M263.777 95.5243L262.637 96.8892L258.505 101.829L257.835 102.637L257.785 102.681L255.28 105.68L247.918 112.967L246.766 114.107L238.501 122.29L212.881 147.66L195.575 157.677L192.138 159.437C194.805 153.351 197.445 147.38 200.058 141.524C200.062 141.503 200.062 141.482 200.058 141.461C210.007 119.178 219.536 98.6611 228.233 80.6919C228.283 80.5918 228.327 80.4916 228.377 80.3977C230.737 81.9316 233.386 83.3717 233.386 83.3717C233.386 83.3717 233.555 83.6534 233.83 84.0478C234.311 84.75 234.858 85.4041 235.464 86.0013C235.863 86.4535 236.408 86.7506 237.005 86.8403C238.495 86.8403 245.545 91.3419 246.565 92.4752C247.315 93.123 248.16 93.6529 249.07 94.0467C250.51 94.773 251.975 95.374 251.975 95.374L257.315 96.2881C258.73 96.526 262.631 95.7246 263.576 95.518C263.628 95.5234 263.681 95.5234 263.733 95.518C263.733 95.518 263.733 95.518 263.733 95.518H263.77L263.777 95.5243Z" fill="#4A4566"/>
<path opacity="0.1" d="M161.422 234.475L160.795 233.799L160.889 233.58C161.046 233.89 161.223 234.189 161.422 234.475Z" fill="black"/>
<path opacity="0.1" d="M160.144 241.813L154.935 248.475C155.837 246.208 156.749 243.925 157.671 241.625L160.144 241.813Z" fill="black"/>
<path d="M185.477 199.038L184.957 199.338L184.569 199.564L176.53 204.247L176.448 204.153L174.119 201.548L173.862 201.267L174.338 201.022L182.265 197.003L182.772 196.746L183.323 196.471C184.043 197.316 184.756 198.174 185.477 199.038Z" fill="#3F3D56"/>
<path opacity="0.1" d="M288.257 162.029C288.257 162.029 283.799 160.15 281.063 161.328C278.327 162.505 288.257 162.029 288.257 162.029Z" fill="black"/>
<path opacity="0.1" d="M275.491 192.407C275.491 192.407 274.114 202.425 270.144 202.538C266.175 202.65 275.491 192.407 275.491 192.407Z" fill="black"/>
<path opacity="0.1" d="M194.098 187.58C194.129 186.728 199.733 162.73 196.226 161.603L194.098 187.58Z" fill="black"/>
<path opacity="0.1" d="M273.913 78.4881C271.033 81.1512 268.856 84.4849 267.577 88.1926L267.721 88.3053C268.973 89.1944 270.807 88.5746 272.398 88.6747C273.373 88.7375 274.304 89.1038 275.061 89.7225C275.818 90.3411 276.362 91.1811 276.618 92.1246C276.829 93.123 276.757 94.1607 276.411 95.1208C276.065 96.0809 275.458 96.9253 274.658 97.5591C277.525 95.9375 279.861 93.4519 282.722 91.8178C285.583 90.1836 289.49 89.6139 291.619 91.8178C292.533 92.7694 293.203 94.247 294.58 94.2783C295.407 94.2783 296.183 93.7462 297.01 93.5646C301.098 92.7632 304.316 98.8802 304.83 102.117C305.337 105.248 305.368 109.63 306.52 113.193C308.8 111.052 310.635 108.483 311.922 105.632C313.209 102.782 313.921 99.706 314.019 96.5802C314.117 93.4543 313.599 90.3398 312.493 87.4144C311.387 84.4891 309.716 81.8101 307.575 79.5305C305.434 77.251 302.865 75.4154 300.015 74.1287C297.164 72.842 294.088 72.1293 290.962 72.0313C287.837 71.9334 284.722 72.4521 281.797 73.5577C278.871 74.6634 276.192 76.3345 273.913 78.4755V78.4881Z" fill="black"/>
<path d="M297.448 93.1701C296.622 93.3454 295.852 93.9027 295.019 93.8839C293.648 93.8839 292.972 92.375 292.058 91.4233C289.935 89.2069 286.028 89.7704 283.167 91.4233C280.306 93.0762 277.97 95.5493 275.096 97.1709C275.899 96.539 276.508 95.6948 276.854 94.7341C277.2 93.7734 277.27 92.7348 277.056 91.7364C276.801 90.7929 276.256 89.9529 275.5 89.3343C274.743 88.7156 273.812 88.3493 272.836 88.2865C271.246 88.1864 269.424 88.8062 268.165 87.9109C266.907 87.0156 266.982 84.9682 267.777 83.4906C268.572 82.013 269.881 80.8485 270.845 79.4648C272.673 76.8477 273.168 73.617 274.602 70.7745C276.339 67.339 279.281 64.6641 282.866 63.2613C284.745 62.535 286.761 62.2032 288.652 61.4831C291.525 60.3937 294.092 58.4278 297.041 57.6138C301.975 56.2489 307.416 58.7784 309.257 63.2863C310.139 65.4338 310.258 67.8944 311.235 69.9981C312.55 72.8156 315.223 74.6501 317.615 76.6035C320.007 78.5569 322.336 80.9862 322.53 84.1856C322.755 87.842 320.088 91.367 320.025 95.0484C320.025 96.5949 320.445 98.0788 320.52 99.6127C320.595 101.147 320.213 102.893 318.942 103.883C317.302 105.166 314.56 104.953 313.645 106.807C313.419 107.383 313.309 107.997 313.32 108.616C313.123 111.841 312.18 114.977 310.565 117.776C305.7 114.984 306.095 106.713 305.293 101.748C304.755 98.4857 301.543 92.3687 297.448 93.1701Z" fill="#7C5C5C"/>
<path opacity="0.1" d="M269.286 173.937C269.286 173.937 252.544 189.439 252.218 192.401C251.893 195.362 269.286 173.937 269.286 173.937Z" fill="black"/>
<g opacity="0.1">
<path opacity="0.1" d="M314.854 105.235C315.73 103.426 318.385 103.582 320.032 102.393C319.791 102.966 319.41 103.47 318.923 103.858C317.721 104.797 315.924 104.941 314.691 105.673C314.73 105.522 314.785 105.375 314.854 105.235V105.235Z" fill="black"/>
<path opacity="0.1" d="M276.474 95.5118C279.273 93.8964 281.583 91.4672 284.394 89.8769C287.205 88.2866 291.162 87.673 293.285 89.8769C294.199 90.8285 294.875 92.3061 296.246 92.3374C297.079 92.3374 297.849 91.799 298.676 91.6237C302.77 90.8223 305.982 96.9393 306.502 100.176C307.285 105.029 306.928 113.018 311.442 115.992C311.166 116.618 310.878 117.175 310.547 117.751C305.682 114.958 306.076 106.688 305.275 101.723C304.755 98.4857 301.518 92.3687 297.449 93.1701C296.622 93.3455 295.852 93.9027 295.019 93.8839C293.648 93.8839 292.972 92.375 292.058 91.4233C289.935 89.2069 286.028 89.7704 283.167 91.4233C280.306 93.0762 277.97 95.5493 275.097 97.1709C275.661 96.7141 276.129 96.1502 276.474 95.5118V95.5118Z" fill="black"/>
<path opacity="0.1" d="M269.004 81.9254C268.209 83.403 268.109 85.4378 269.393 86.3456C270.676 87.2535 272.473 86.6211 274.063 86.7213C275.039 86.7846 275.971 87.1511 276.729 87.7695C277.486 88.388 278.032 89.2276 278.29 90.1711C278.489 91.1216 278.432 92.1081 278.124 93.0292C277.816 93.9503 277.268 94.7726 276.536 95.4116C277.159 94.2862 277.344 92.9709 277.056 91.7176C276.801 90.7741 276.256 89.9342 275.5 89.3155C274.743 88.6969 273.812 88.3305 272.836 88.2678C271.246 88.1676 269.424 88.7874 268.165 87.8921C266.907 86.9968 266.982 84.9494 267.777 83.4718C268.27 82.6256 268.851 81.8343 269.512 81.1114C269.327 81.3729 269.158 81.6446 269.004 81.9254V81.9254Z" fill="black"/>
<path opacity="0.1" d="M275.81 69.2092C274.395 72.0517 273.932 75.2824 272.054 77.8995C271.684 78.4317 271.265 78.9263 270.845 79.421C272.661 76.8101 273.156 73.5857 274.564 70.7557C275.202 69.4815 276.015 68.3033 276.981 67.2558C276.54 67.8753 276.149 68.5285 275.81 69.2092V69.2092Z" fill="black"/>
</g>
<path d="M321.071 224.62C321.206 224.62 321.315 224.511 321.315 224.376C321.315 224.241 321.206 224.132 321.071 224.132C320.936 224.132 320.827 224.241 320.827 224.376C320.827 224.511 320.936 224.62 321.071 224.62Z" fill="#E6E8EC"/>
<path d="M512.959 475.818C513.109 483.331 450.881 474.391 453.21 468.305L452.884 468.399C445.045 470.177 403.629 455.708 406.953 449.115C372.981 418.737 357.635 391.451 388.058 330.175C388.195 329.77 388.275 329.349 388.296 328.922C388.296 328.772 388.352 328.622 388.377 328.478C388.483 327.939 388.584 327.401 388.69 326.862C388.69 326.775 388.721 326.693 388.74 326.612C388.759 326.531 388.796 326.349 388.821 326.218C389.698 321.697 390.673 317.158 391.745 312.6C397.047 289.517 404.542 266.994 414.128 245.338C414.329 244.906 414.517 244.474 414.717 244.048C414.83 243.791 414.949 243.535 415.068 243.284L415.838 241.606C415.869 241.531 415.907 241.462 415.938 241.387C416.063 241.137 416.176 240.886 416.295 240.642C424.196 223.737 433.037 208.899 442.334 196.709C437.952 194.204 423.783 175.083 427.308 160.006C431.064 144.003 451.607 137.893 456.703 139.076C461.8 140.259 462.902 154.202 459.17 170.206C458.31 173.944 457.203 177.621 455.858 181.212C472.137 165.097 489.179 157.383 504.757 161.008C517.679 164.02 528.041 174.476 535.479 190.316C535.63 189.583 535.799 188.845 535.968 188.1C539.724 172.096 546.843 160.082 551.946 161.265C557.049 162.448 574.223 180.142 570.491 196.145C568.018 206.789 547.951 211.885 544.057 216.299C551.72 250.635 553.824 301.261 559.215 351.856C566.365 419.106 553.987 455.038 512.959 475.818Z" fill="#00FFAB"/>
<path opacity="0.2" d="M504.468 252.945C501.638 265.079 485.322 271.822 466.859 269.123C465.256 268.89 463.642 268.585 462.019 268.209C460.683 267.896 459.379 267.544 458.106 267.151C439.88 261.56 427.821 248.074 430.695 235.752C432.849 226.486 442.891 220.356 455.739 219.186C458.532 218.944 461.339 218.925 464.135 219.129C467.168 219.356 470.179 219.823 473.138 220.525C493.512 225.24 507.536 239.765 504.468 252.945Z" fill="black"/>
<path d="M496.271 260.438C498.197 252.174 489.857 243.167 477.643 240.32C465.429 237.473 453.966 241.865 452.039 250.129C450.113 258.393 458.453 267.4 470.668 270.247C482.882 273.094 494.345 268.702 496.271 260.438Z" fill="#3F3D56"/>
<path d="M461.975 226.786C459.239 233.329 457.392 231.664 455.088 230.712C452.784 229.76 450.937 229.861 453.679 223.318C454.274 221.896 454.96 220.513 455.733 219.179C458.525 218.938 461.333 218.919 464.129 219.123C463.751 221.761 463.027 224.338 461.975 226.786V226.786Z" fill="white"/>
<path d="M466.858 269.123C465.256 268.89 463.642 268.585 462.019 268.209C460.683 267.896 459.379 267.544 458.105 267.151C459.577 260.421 461.918 259.882 464.291 260.37C466.664 260.859 468.217 262.28 466.858 269.123Z" fill="white"/>
<path opacity="0.2" d="M479.694 206.232C487.353 206.232 493.562 200.023 493.562 192.363C493.562 184.704 487.353 178.495 479.694 178.495C472.035 178.495 465.826 184.704 465.826 192.363C465.826 200.023 472.035 206.232 479.694 206.232Z" fill="black"/>
<path opacity="0.1" d="M450.191 168.668C451.526 162.94 450.1 157.712 447.005 156.99C443.91 156.269 440.319 160.328 438.984 166.056C437.649 171.784 439.075 177.013 442.17 177.734C445.265 178.455 448.856 174.397 450.191 168.668Z" fill="black"/>
<path opacity="0.12" d="M555.538 192.445C559.09 187.757 559.916 182.4 557.383 180.481C554.851 178.562 549.918 180.807 546.366 185.495C542.814 190.183 541.987 195.54 544.52 197.459C547.053 199.378 551.986 197.133 555.538 192.445Z" fill="black"/>
<path d="M480.226 185.545C479.974 185.486 479.719 185.442 479.462 185.414C479.801 186.179 479.88 187.034 479.688 187.849C479.515 188.59 479.129 189.265 478.577 189.788C478.025 190.312 477.331 190.663 476.582 190.796C475.833 190.929 475.061 190.84 474.362 190.538C473.663 190.237 473.068 189.738 472.65 189.101C472.412 189.577 472.229 190.08 472.106 190.598C471.804 191.9 471.894 193.262 472.365 194.512C472.837 195.762 473.668 196.845 474.755 197.623C475.841 198.402 477.134 198.84 478.469 198.885C479.805 198.929 481.123 198.576 482.259 197.871C483.394 197.167 484.295 196.141 484.848 194.925C485.401 193.708 485.581 192.355 485.366 191.036C485.15 189.717 484.549 188.492 483.638 187.515C482.726 186.537 481.546 185.852 480.245 185.545H480.226Z" fill="#3F3D56"/>
<path opacity="0.2" d="M460.404 210.508C459.828 212.981 459.101 212.148 458.024 211.898C456.948 211.647 455.933 212.073 456.509 209.6C457.085 207.127 460.116 202.938 460.116 202.938C460.116 202.938 460.98 208.035 460.404 210.508Z" fill="black"/>
<path opacity="0.2" d="M486.919 172.059C486.343 174.563 485.616 173.699 484.54 173.449C483.463 173.198 482.448 173.624 483.024 171.151C483.6 168.678 486.631 164.489 486.631 164.489C486.631 164.489 487.495 169.58 486.919 172.059Z" fill="black"/>
<path opacity="0.2" d="M511.531 188.281C510.955 190.754 510.229 189.922 509.152 189.671C508.075 189.421 507.061 189.846 507.637 187.373C508.213 184.9 511.243 180.712 511.243 180.712C511.243 180.712 512.101 185.808 511.531 188.281Z" fill="black"/>
<path opacity="0.2" d="M518.331 211.052C517.755 213.526 517.034 212.693 515.958 212.442C514.881 212.192 513.866 212.618 514.442 210.145C515.018 207.672 518.043 203.483 518.043 203.483C518.043 203.483 518.913 208.573 518.331 211.052Z" fill="black"/>
<path opacity="0.2" d="M453.21 466.99L452.884 468.374C445.045 470.152 403.629 455.683 406.953 449.09L453.21 466.99Z" fill="black"/>
<path opacity="0.2" d="M453.21 468.28L452.884 468.374L453.21 466.99C465.106 463.515 512.959 475.818 512.959 475.818C513.109 483.306 450.881 474.391 453.21 468.28Z" fill="black"/>
<g opacity="0.1">
<path opacity="0.1" d="M459.565 257.96C456.397 272.204 443.23 290.899 423.689 306.971C412.979 315.737 401.106 322.977 388.408 328.484C388.527 327.858 388.652 327.232 388.771 326.606C389.673 321.96 390.675 317.289 391.777 312.594C397.078 289.511 404.573 266.988 414.16 245.332C414.36 244.9 414.548 244.468 414.748 244.042C414.861 243.785 414.98 243.528 415.099 243.278C428.147 237.142 440.08 234.675 448.439 236.591C451.276 237.162 453.902 238.503 456.027 240.467C456.396 240.819 456.743 241.193 457.066 241.587C458.923 243.95 460.015 246.822 460.197 249.821C460.404 252.55 460.191 255.295 459.565 257.96V257.96Z" fill="black"/>
</g>
<g opacity="0.1">
<path opacity="0.1" d="M458.525 256.332C455.357 270.576 442.19 289.271 422.643 305.343C412.349 313.772 400.98 320.794 388.834 326.224C389.711 321.703 390.685 317.164 391.758 312.606C397.06 289.524 404.555 267.001 414.141 245.344C414.341 244.912 414.529 244.48 414.73 244.054C414.842 243.798 414.961 243.541 415.08 243.29L415.85 241.612L416.307 240.648C428.479 235.264 439.536 233.173 447.406 234.976C450.244 235.547 452.87 236.89 454.994 238.858C455.363 239.208 455.71 239.58 456.033 239.972C457.903 242.332 459.008 245.207 459.201 248.212C459.393 250.937 459.165 253.676 458.525 256.332V256.332Z" fill="black"/>
</g>
<path d="M458.369 256.996C455.182 271.24 442.034 289.935 422.493 306.007C412.198 314.43 400.829 321.445 388.684 326.869C388.684 326.781 388.715 326.7 388.734 326.618C388.752 326.537 388.79 326.355 388.815 326.224C389.692 321.703 390.666 317.164 391.739 312.606C397.041 289.524 404.536 267.001 414.122 245.344C414.322 244.912 414.51 244.48 414.711 244.054C414.823 243.798 414.942 243.541 415.061 243.29L415.831 241.612C415.863 241.537 415.9 241.468 415.932 241.393C428.184 235.94 439.316 233.818 447.237 235.633C450.074 236.209 452.698 237.551 454.825 239.515C455.195 239.866 455.542 240.24 455.864 240.636C457.722 242.998 458.814 245.87 458.995 248.869C459.203 251.594 458.992 254.335 458.369 256.996V256.996Z" fill="#00FFAB"/>
<path opacity="0.1" d="M511.558 398.02C520.104 361.354 498.375 324.95 463.026 316.711C427.676 308.472 392.091 331.517 383.545 368.183C374.999 404.85 396.728 441.253 432.078 449.492C467.427 457.731 503.012 434.686 511.558 398.02Z" fill="black"/>
<path d="M511.253 399.339C519.799 362.672 498.071 326.269 462.721 318.03C427.371 309.791 391.787 332.836 383.241 369.502C374.695 406.168 396.423 442.572 431.773 450.811C467.123 459.05 502.707 436.005 511.253 399.339Z" fill="#00FFAB"/>
<path d="M452.677 366.2C452.55 366.748 452.316 367.264 451.989 367.721C451.662 368.178 451.248 368.566 450.771 368.862C449.807 369.462 448.645 369.654 447.54 369.397C446.435 369.139 445.478 368.453 444.878 367.49C444.279 366.527 444.087 365.365 444.344 364.259C444.882 361.955 446.473 363.564 448.771 364.097C451.068 364.629 453.197 363.903 452.677 366.2Z" fill="#4A4566"/>
<g opacity="0.1">
<path opacity="0.1" d="M498.383 161.616C511.299 164.627 521.668 175.083 529.106 190.917C529.256 190.191 529.419 189.452 529.594 188.707C530.045 186.766 530.552 184.888 531.09 183.072C524.059 171.207 514.993 163.394 504.112 160.858C499.046 159.712 493.792 159.686 488.716 160.783C491.961 160.601 495.216 160.881 498.383 161.616V161.616Z" fill="black"/>
<path opacity="0.1" d="M558.557 351.712C553.167 301.117 551.044 250.491 543.4 216.155C547.294 211.772 567.36 206.626 569.834 196.001C573.59 179.998 556.379 162.31 551.288 161.121C550.036 160.827 548.609 161.353 547.169 162.561C553.517 166.167 567.504 182.152 564.124 196.734C561.619 207.377 541.584 212.474 537.69 216.888C545.341 251.242 547.438 301.868 552.854 352.464C560.016 419.707 547.638 455.633 506.61 476.432C506.61 477.346 505.708 478.016 504.105 478.479C509.114 478.254 512.395 477.402 512.357 475.68C553.342 454.888 565.72 418.956 558.557 351.712Z" fill="black"/>
<path opacity="0.1" d="M450.311 139.683C455.407 140.867 456.509 154.804 452.784 170.813C451.921 174.551 450.812 178.228 449.466 181.82C452.053 179.265 454.654 176.926 457.267 174.801C457.711 173.267 458.131 171.671 458.519 170.068C462.276 154.058 461.142 140.121 456.052 138.932C454.712 138.619 452.296 138.819 449.409 139.558C449.713 139.573 450.014 139.615 450.311 139.683V139.683Z" fill="black"/>
</g>
<g opacity="0.1">
<path opacity="0.1" d="M548.264 367.096C533.52 373.764 503.905 344.781 488.578 310.916C478.153 287.863 474.603 265.273 478.059 251.098C478.663 248.432 479.672 245.875 481.052 243.516C482.553 240.906 484.813 238.816 487.532 237.524C487.996 237.312 488.473 237.13 488.96 236.979C491.735 236.158 494.683 236.115 497.481 236.854C511.744 240.235 529.744 259.732 541.966 286.761C557.286 320.62 563.009 360.421 548.264 367.096Z" fill="black"/>
<g opacity="0.1">
<path opacity="0.1" d="M494 262.668C492.347 264.183 486.487 260.483 480.852 254.391C479.838 253.289 478.905 252.181 478.06 251.098C478.663 248.432 479.673 245.875 481.052 243.516C483.121 245.149 485.052 246.95 486.825 248.9C492.422 254.961 495.622 261.147 494 262.668Z" fill="black"/>
<path opacity="0.1" d="M497.481 236.854C498.93 238.123 500.309 239.469 501.613 240.886C507.211 246.972 510.379 253.133 508.751 254.66C507.123 256.188 501.238 252.482 495.64 246.39C492.51 243.015 490.162 239.615 488.96 236.998L497.481 236.854Z" fill="black"/>
</g>
</g>
<g opacity="0.1">
<path opacity="0.1" d="M550.199 364.767C535.454 371.441 505.84 342.452 490.513 308.593C480.082 285.533 476.532 262.944 479.988 248.769C480.594 246.103 481.605 243.546 482.987 241.187C484.486 238.575 486.747 236.485 489.467 235.195C489.93 234.988 490.405 234.808 490.889 234.657C493.665 233.829 496.616 233.786 499.416 234.531C513.672 237.906 531.673 257.409 543.9 284.432C559.221 318.291 564.937 358.092 550.199 364.767Z" fill="black"/>
</g>
<path d="M549.228 365.931C534.49 372.605 504.869 343.617 489.548 309.751C479.118 286.698 475.568 264.108 479.024 249.933C479.629 247.267 480.641 244.71 482.023 242.351C483.519 239.74 485.778 237.65 488.497 236.359C488.961 236.15 489.438 235.969 489.924 235.815C492.699 234.993 495.647 234.95 498.445 235.69C512.708 239.071 530.708 258.574 542.936 285.596C558.251 319.449 563.973 359.257 549.228 365.931Z" fill="#00FFAB"/>
<path d="M651.978 384.382C651.978 384.382 655.509 388.997 650.35 395.971C645.191 402.946 640.959 408.832 642.649 413.183C642.649 413.183 650.438 400.229 656.78 400.035C663.123 399.841 658.953 392.171 651.978 384.382Z" fill="#00FFAB"/>
<path opacity="0.1" d="M651.978 384.382C652.289 384.826 652.531 385.313 652.698 385.829C658.884 393.098 662.184 399.878 656.236 400.047C650.695 400.204 644.052 410.109 642.461 412.613C642.518 412.801 642.58 412.995 642.649 413.183C642.649 413.183 650.438 400.229 656.78 400.035C663.123 399.841 658.953 392.171 651.978 384.382Z" fill="black"/>
<path d="M658.546 390.268C658.546 391.896 658.364 393.21 658.139 393.21C657.914 393.21 657.732 391.896 657.732 390.268C657.732 388.64 657.957 389.41 658.183 389.41C658.408 389.41 658.546 388.64 658.546 390.268Z" fill="#FFD037"/>
<path d="M660.8 392.209C659.372 392.985 658.126 393.461 658.02 393.261C657.914 393.06 658.978 392.271 660.406 391.495C661.833 390.718 661.276 391.282 661.382 391.495C661.489 391.708 662.227 391.451 660.8 392.209Z" fill="#FFD037"/>
<path d="M633.32 384.382C633.32 384.382 629.789 388.997 634.954 395.971C640.119 402.946 644.346 408.832 642.649 413.183C642.649 413.183 634.86 400.229 628.524 400.035C622.188 399.841 626.352 392.171 633.32 384.382Z" fill="#00FFAB"/>
<path opacity="0.1" d="M633.32 384.382C633.012 384.828 632.77 385.315 632.6 385.829C626.414 393.098 623.121 399.878 629.069 400.047C634.603 400.204 641.246 410.109 642.843 412.613C642.792 412.807 642.729 412.997 642.655 413.183C642.655 413.183 634.866 400.229 628.53 400.035C622.194 399.841 626.351 392.171 633.32 384.382Z" fill="black"/>
<path d="M626.734 390.268C626.734 391.896 626.915 393.21 627.141 393.21C627.366 393.21 627.548 391.896 627.548 390.268C627.548 388.64 627.322 389.41 627.097 389.41C626.872 389.41 626.734 388.64 626.734 390.268Z" fill="#FFD037"/>
<path d="M624.505 392.209C625.932 392.985 627.178 393.461 627.284 393.261C627.391 393.06 626.32 392.271 624.893 391.495C623.465 390.718 624.029 391.282 623.922 391.495C623.816 391.708 623.077 391.451 624.505 392.209Z" fill="#FFD037"/>
<path opacity="0.1" d="M642.655 448.514C663.05 448.514 679.583 445.977 679.583 442.848C679.583 439.718 663.05 437.181 642.655 437.181C622.261 437.181 605.728 439.718 605.728 442.848C605.728 445.977 622.261 448.514 642.655 448.514Z" fill="#00FFAB"/>
<path d="M661.658 406.953L661.482 408.4L661.232 410.434L661.132 411.286L660.881 413.321L660.775 414.172L660.531 416.207L657.701 439.373C657.45 441.445 654.069 443.054 649.993 443.054H635.311C631.229 443.054 627.854 441.445 627.604 439.373L624.774 416.207L624.523 414.172L624.423 413.321L624.173 411.286L624.066 410.434L623.822 408.4L623.641 406.953C623.503 405.782 625.331 404.799 627.635 404.799H657.688C659.973 404.799 661.795 405.782 661.658 406.953Z" fill="#4A4566"/>
<path d="M661.482 408.4L661.238 410.434H624.073L623.822 408.4H661.482Z" fill="#9D9CB5"/>
<path d="M661.132 411.286L660.888 413.321H624.423L624.173 411.286H661.132Z" fill="#9D9CB5"/>
<path d="M660.775 414.172L660.531 416.207H624.774L624.53 414.172H660.775Z" fill="#9D9CB5"/>
<path d="M218.516 427.608C218.516 427.608 223.462 434.076 216.23 443.843C208.999 453.61 203.038 461.856 205.449 467.948C205.449 467.948 216.362 449.791 225.24 449.553C234.118 449.315 228.251 438.515 218.516 427.608Z" fill="#00FFAB"/>
<path opacity="0.1" d="M218.516 427.608C218.947 428.234 219.288 428.917 219.53 429.637C228.189 439.817 232.81 449.315 224.476 449.553C216.719 449.779 207.415 463.647 205.186 467.153C205.261 467.422 205.349 467.685 205.449 467.948C205.449 467.948 216.362 449.791 225.24 449.553C234.118 449.315 228.252 438.515 218.516 427.608Z" fill="black"/>
<path d="M227.682 435.854C227.682 438.133 227.425 439.974 227.112 439.974C226.799 439.974 226.542 438.133 226.542 435.854C226.542 433.575 226.861 434.652 227.168 434.652C227.475 434.652 227.682 433.575 227.682 435.854Z" fill="#FFD037"/>
<path d="M230.837 438.571C228.84 439.661 227.081 440.318 226.943 440.043C226.805 439.767 228.295 438.659 230.293 437.538C232.29 436.418 231.501 437.244 231.651 437.538C231.801 437.833 232.835 437.482 230.837 438.571Z" fill="#FFD037"/>
<path d="M192.357 427.608C192.357 427.608 187.405 434.076 194.636 443.843C201.867 453.61 207.828 461.856 205.417 467.948C205.417 467.948 194.511 449.791 185.633 449.553C176.755 449.315 182.59 438.515 192.357 427.608Z" fill="#00FFAB"/>
<path opacity="0.1" d="M192.357 427.608C191.922 428.234 191.58 428.919 191.343 429.643C182.677 439.824 178.063 449.322 186.39 449.559C194.148 449.785 203.458 463.653 205.687 467.159C205.612 467.429 205.522 467.695 205.417 467.954C205.417 467.954 194.511 449.797 185.633 449.559C176.755 449.322 182.59 438.515 192.357 427.608Z" fill="black"/>
<path d="M183.16 435.854C183.16 438.133 183.41 439.974 183.729 439.974C184.049 439.974 184.299 438.133 184.299 435.854C184.299 433.575 183.98 434.652 183.673 434.652C183.366 434.652 183.16 433.575 183.16 435.854Z" fill="#FFD037"/>
<path d="M180.004 438.571C182.001 439.661 183.761 440.318 183.892 440.043C184.024 439.767 182.546 438.659 180.549 437.538C178.552 436.418 179.34 437.244 179.184 437.538C179.027 437.833 178.001 437.482 180.004 438.571Z" fill="#FFD037"/>
<path opacity="0.1" d="M205.424 517.441C233.989 517.441 257.146 513.887 257.146 509.502C257.146 505.118 233.989 501.564 205.424 501.564C176.858 501.564 153.702 505.118 153.702 509.502C153.702 513.887 176.858 517.441 205.424 517.441Z" fill="#00FFAB"/>
<path d="M232.046 459.226L231.795 461.249L231.445 464.104L231.301 465.293L230.957 468.148L230.806 469.338L230.462 472.187L226.499 504.638C226.148 507.53 221.415 509.79 215.705 509.79H195.137C189.421 509.79 184.7 507.53 184.343 504.638L180.38 472.218L180.036 469.369L179.892 468.18L179.535 465.325L179.391 464.135L179.046 461.28L178.796 459.258C178.602 457.617 181.156 456.24 184.393 456.24H226.455C229.679 456.209 232.246 457.586 232.046 459.226Z" fill="#4A4566"/>
<path d="M231.795 461.249L231.451 464.104H179.397L179.046 461.249H231.795Z" fill="#9D9CB5"/>
<path d="M231.307 465.293L230.956 468.148H179.892L179.541 465.293H231.307Z" fill="#9D9CB5"/>
<path d="M230.806 469.338L230.462 472.187H180.38L180.036 469.338H230.806Z" fill="#9D9CB5"/>
</g>
<defs>
<linearGradient id="paint0_linear" x1="168.399" y1="356.521" x2="320.476" y2="63.7584" gradientUnits="userSpaceOnUse">
<stop stop-color="#808080" stop-opacity="0.25"/>
<stop offset="0.54" stop-color="#808080" stop-opacity="0.12"/>
<stop offset="1" stop-color="#808080" stop-opacity="0.1"/>
</linearGradient>
<clipPath id="clip0">
<rect width="700" height="517.441" fill="white"/>
</clipPath>
</defs>
</svg>
