<svg width="450" height="389" viewBox="0 0 450 389" fill="none" xmlns="http://www.w3.org/2000/svg">
<g clip-path="url(#clip0)">
<rect width="450" height="388.889" transform="matrix(-1 0 0 1 450 0)" fill="white"/>
<path opacity="0.1" d="M8.71214 105.071C13.1646 93.4012 19.1838 82.5756 26.558 72.975L274.203 70.2202L70.3103 37.9033C83.4821 31.9856 97.5048 28.847 111.681 28.6438C131.185 11.0495 155.202 1.03076 180.158 0.077915C205.113 -0.874925 229.675 7.28907 250.188 23.3554C266.584 13.8402 284.761 8.89466 303.198 8.93256C358.223 8.93256 404.071 51.9416 414.355 108.97L8.71214 105.071Z" fill="#63B4FF"/>
<path opacity="0.1" d="M0.00427246 152.902C-0.00811768 137.435 2.61102 122.11 7.71948 107.758L436.917 158.599C441.327 167.632 444.701 177.262 446.958 187.257L314.04 209.612L450 225.915C445.91 290.477 396.867 341.457 336.956 341.457C306.798 341.457 279.392 328.539 259.088 307.472C238.72 328.938 211.05 342.14 180.568 342.14C135.338 342.14 96.3017 313.077 78.1234 271.059C41.6519 257.996 13.3217 225.199 3.62546 184.166L171.707 154.748H0.0213318C0.0128174 154.132 0.00427246 153.517 0.00427246 152.902Z" fill="#63B4FF"/>
<path opacity="0.1" d="M438.025 356.894C431.95 356.894 427.025 356.13 427.025 355.187C427.025 354.245 431.95 353.481 438.025 353.481C444.1 353.481 449.024 354.245 449.024 355.187C449.024 356.13 444.1 356.894 438.025 356.894Z" fill="#63B4FF"/>
<path opacity="0.1" d="M395.887 361.716C389.812 361.716 384.887 360.952 384.887 360.009C384.887 359.067 389.812 358.303 395.887 358.303C401.962 358.303 406.887 359.067 406.887 360.009C406.887 360.952 401.962 361.716 395.887 361.716Z" fill="#63B4FF"/>
<path opacity="0.1" d="M346.251 355.187C340.176 355.187 335.252 354.423 335.252 353.481C335.252 352.538 340.176 351.774 346.251 351.774C352.327 351.774 357.251 352.538 357.251 353.481C357.251 354.423 352.327 355.187 346.251 355.187Z" fill="#63B4FF"/>
<path opacity="0.1" d="M412.753 374.952C408.433 374.952 404.931 374.409 404.931 373.74C404.931 373.071 408.433 372.529 412.753 372.529C417.073 372.529 420.575 373.071 420.575 373.74C420.575 374.409 417.073 374.952 412.753 374.952Z" fill="#63B4FF"/>
<path opacity="0.1" d="M369.014 373.74C364.694 373.74 361.192 373.198 361.192 372.528C361.192 371.859 364.694 371.317 369.014 371.317C373.334 371.317 376.835 371.859 376.835 372.528C376.835 373.198 373.334 373.74 369.014 373.74Z" fill="#63B4FF"/>
<path d="M395.648 359.625C395.648 359.625 411.079 302.549 393.237 279.689C379.886 262.583 364.737 264.631 357.95 266.746C356.194 267.274 354.561 268.227 353.163 269.538C351.765 270.848 350.637 272.486 349.856 274.338C347.483 280.107 347.913 289.486 364.66 300.429C392.7 318.751 394.443 343.88 394.443 343.88L395.648 359.625Z" fill="#63B4FF"/>
<path d="M360.366 274.842C360.366 274.842 405.847 290.89 395.648 359.625" stroke="#565987" stroke-miterlimit="10"/>
<path d="M386.928 280.597C386.928 280.597 380.665 285.357 382.668 292.515" stroke="#565987" stroke-miterlimit="10"/>
<path d="M364.928 284.828C364.928 284.828 368.762 280.434 373.415 282.857" stroke="#565987" stroke-miterlimit="10"/>
<path d="M382.906 306.943C382.906 306.943 389.629 303.097 391.367 307.904" stroke="#565987" stroke-miterlimit="10"/>
<path d="M399.542 314.962C399.542 314.962 394.494 314.51 394.4 317.236" stroke="#565987" stroke-miterlimit="10"/>
<path d="M396.262 360.082C396.262 360.082 378.19 318.597 373.227 319.505C370.871 319.938 369.785 322.553 369.291 325.183C368.678 328.591 369.022 332.13 370.275 335.308C372.831 341.918 379.741 354.538 396.262 360.082Z" fill="#63B4FF"/>
<path d="M373.376 327.38C373.376 327.38 392.343 358.418 396.006 359.779" stroke="#565987" stroke-miterlimit="10"/>
<path d="M371.63 332.221H376.056" stroke="#565987" stroke-miterlimit="10"/>
<path d="M376.933 343.577L383.869 343.914" stroke="#565987" stroke-miterlimit="10"/>
<path d="M381.155 334.495L380.401 338.572" stroke="#565987" stroke-miterlimit="10"/>
<path d="M388.534 346.909L388.398 350.615" stroke="#565987" stroke-miterlimit="10"/>
<path d="M395.738 360.082C395.738 360.082 413.81 318.597 418.773 319.505C421.129 319.938 422.215 322.553 422.709 325.183C423.317 328.582 422.971 332.111 421.721 335.279C419.16 341.918 412.272 354.538 395.738 360.082Z" fill="#63B4FF"/>
<path d="M418.637 327.38C418.637 327.38 399.67 358.418 396.006 359.779" stroke="#565987" stroke-miterlimit="10"/>
<path d="M420.379 332.221H415.953" stroke="#565987" stroke-miterlimit="10"/>
<path d="M415.079 343.577L408.139 343.914" stroke="#565987" stroke-miterlimit="10"/>
<path d="M410.853 334.495L411.607 338.572" stroke="#565987" stroke-miterlimit="10"/>
<path d="M403.474 346.909L403.611 350.615" stroke="#565987" stroke-miterlimit="10"/>
<path d="M364.711 369.769C364.218 369.317 363.859 368.707 363.68 368.019C363.601 367.674 363.629 367.308 363.76 366.983C363.891 366.659 364.117 366.395 364.4 366.235C365.06 365.947 365.767 366.466 366.3 366.985C366.833 367.505 367.45 368.105 368.149 367.995C367.792 367.624 367.526 367.156 367.377 366.636C367.228 366.115 367.2 365.56 367.297 365.024C367.326 364.801 367.409 364.592 367.535 364.418C367.902 363.976 368.566 364.168 369.005 364.514C370.403 365.62 370.79 367.759 370.799 369.687C370.875 368.98 370.884 368.266 370.824 367.557C370.824 366.846 371.003 366.053 371.536 365.673C371.865 365.468 372.238 365.369 372.614 365.384C373.244 365.384 373.939 365.428 374.369 365.947C374.901 366.591 374.765 367.668 374.301 368.38C373.783 369.038 373.169 369.593 372.486 370.019C371.974 370.371 371.537 370.847 371.208 371.413C371.17 371.493 371.138 371.577 371.114 371.663H367.182C366.285 371.163 365.454 370.525 364.711 369.769Z" fill="#63B4FF"/>
<path d="M433.568 353.062C433.075 352.611 432.716 352 432.537 351.312C432.459 350.966 432.487 350.6 432.618 350.275C432.749 349.95 432.975 349.685 433.257 349.524C433.918 349.24 434.621 349.76 435.157 350.279C435.694 350.798 436.303 351.394 437.006 351.284C436.649 350.914 436.382 350.446 436.233 349.925C436.084 349.404 436.056 348.849 436.154 348.312C436.186 348.091 436.27 347.884 436.397 347.711C436.764 347.269 437.428 347.457 437.867 347.808C439.264 348.913 439.652 351.053 439.66 352.981C439.737 352.272 439.746 351.557 439.686 350.846C439.686 350.135 439.861 349.346 440.393 348.966C440.724 348.762 441.098 348.662 441.475 348.678C442.102 348.649 442.8 348.721 443.231 349.24C443.763 349.885 443.622 350.961 443.162 351.644C442.645 352.307 442.03 352.863 441.343 353.288C440.83 353.639 440.393 354.115 440.065 354.682C440.027 354.763 439.994 354.846 439.967 354.932H436.035C435.142 354.438 434.312 353.809 433.568 353.062Z" fill="#63B4FF"/>
<path d="M410.619 369.769C410.126 369.317 409.766 368.707 409.588 368.019C409.509 367.674 409.537 367.308 409.668 366.983C409.799 366.659 410.025 366.395 410.308 366.235C410.968 365.947 411.675 366.466 412.208 366.985C412.74 367.505 413.358 368.105 414.057 367.995C413.7 367.624 413.434 367.156 413.285 366.636C413.136 366.115 413.108 365.56 413.205 365.024C413.234 364.801 413.317 364.592 413.443 364.418C413.81 363.976 414.474 364.168 414.913 364.514C416.31 365.62 416.698 367.759 416.707 369.687C416.783 368.98 416.792 368.266 416.732 367.557C416.732 366.846 416.907 366.053 417.439 365.673C417.771 365.469 418.144 365.369 418.521 365.384C419.148 365.384 419.846 365.428 420.277 365.947C420.809 366.591 420.673 367.668 420.208 368.38C419.69 369.038 419.077 369.593 418.394 370.019C417.881 370.371 417.445 370.847 417.116 371.413C417.077 371.493 417.046 371.577 417.022 371.663H413.09C412.193 371.163 411.361 370.525 410.619 369.769Z" fill="#63B4FF"/>
<path d="M345.536 335.995C345.536 335.995 344.062 338.173 346.217 341.457C348.373 344.74 350.145 347.514 349.43 349.563C349.43 349.563 346.179 343.462 343.534 343.375C340.888 343.289 342.626 339.664 345.536 335.995Z" fill="#63B4FF"/>
<path opacity="0.1" d="M345.536 335.995C345.407 336.206 345.306 336.436 345.233 336.678C342.652 340.101 341.28 343.293 343.759 343.375C346.073 343.452 348.842 348.115 349.506 349.293C349.485 349.385 349.459 349.471 349.43 349.563C349.43 349.563 346.179 343.462 343.533 343.375C340.888 343.289 342.626 339.664 345.536 335.995Z" fill="black"/>
<path d="M342.797 338.769C342.797 339.534 342.873 340.154 342.967 340.154C343.061 340.154 343.137 339.534 343.137 338.769C343.137 338.005 343.039 338.365 342.946 338.365C342.852 338.365 342.797 338.005 342.797 338.769Z" fill="#FFD037"/>
<path d="M341.855 339.683C342.451 340.048 342.971 340.269 343.014 340.164C343.056 340.058 342.613 339.683 342.017 339.332C341.42 338.981 341.659 339.231 341.612 339.332C341.565 339.433 341.259 339.317 341.855 339.683Z" fill="#FFD037"/>
<path d="M353.323 335.995C353.323 335.995 354.797 338.173 352.642 341.457C350.486 344.74 348.71 347.514 349.43 349.563C349.43 349.563 352.68 343.462 355.326 343.375C357.971 343.289 356.216 339.664 353.323 335.995Z" fill="#63B4FF"/>
<path opacity="0.1" d="M353.323 335.995C353.451 336.206 353.552 336.436 353.622 336.678C356.203 340.101 357.579 343.293 355.1 343.375C352.787 343.452 350.013 348.115 349.349 349.293C349.374 349.385 349.4 349.471 349.43 349.563C349.43 349.563 352.68 343.462 355.326 343.375C357.971 343.289 356.216 339.664 353.323 335.995Z" fill="black"/>
<path d="M356.063 338.769C356.063 339.534 355.986 340.154 355.892 340.154C355.799 340.154 355.722 339.534 355.722 338.769C355.722 338.005 355.816 338.365 355.909 338.365C356.003 338.365 356.063 338.005 356.063 338.769Z" fill="#FFD037"/>
<path d="M357.004 339.683C356.408 340.048 355.888 340.269 355.841 340.164C355.794 340.058 356.246 339.683 356.838 339.332C357.43 338.981 357.2 339.231 357.264 339.332C357.328 339.433 357.596 339.317 357.004 339.683Z" fill="#FFD037"/>
<path d="M355.594 349.274C355.594 349.274 351.47 349.135 350.231 348.135C348.991 347.135 343.891 345.942 343.58 347.543C343.269 349.144 337.39 355.505 342.042 355.548C346.695 355.591 352.851 354.731 354.09 353.88C355.33 353.029 355.594 349.274 355.594 349.274Z" fill="#A8A8A8"/>
<path opacity="0.2" d="M341.957 354.99C346.609 355.034 352.77 354.173 354.009 353.322C354.955 352.673 355.33 350.346 355.454 349.269H355.594C355.594 349.269 355.33 353.024 354.09 353.875C352.851 354.726 346.695 355.587 342.042 355.543C340.696 355.543 340.236 354.99 340.262 354.192C340.453 354.683 340.96 354.981 341.957 354.99Z" fill="black"/>
<path opacity="0.1" d="M189.11 388.889C111.603 388.889 48.7708 385.673 48.7708 381.706C48.7708 377.739 111.603 374.524 189.11 374.524C266.617 374.524 329.449 377.739 329.449 381.706C329.449 385.673 266.617 388.889 189.11 388.889Z" fill="#63B4FF"/>
<path d="M203.407 166.964C203.407 166.964 194.461 186.065 193.766 188.791C193.586 189.547 193.196 190.219 192.653 190.709C192.111 191.198 191.444 191.479 190.75 191.512C190.75 191.512 181.838 193.916 179.708 194.238C177.578 194.56 159.114 196.319 159.114 196.319C159.114 196.319 154.428 196.483 153.861 194.56C153.341 192.8 144.289 183.555 139.048 191.622C138.565 192.369 138.245 193.233 138.113 194.145C137.981 195.057 138.042 195.992 138.29 196.872C139.253 200.334 141.23 205.829 143.351 202.411C146.333 197.603 149.801 198.954 149.801 201.516C149.801 204.079 154.573 203.127 156.132 203.488C156.984 203.685 159.915 204.564 162.45 205.334C165.392 206.231 168.406 206.796 171.447 207.021C176.479 207.391 183.896 207.699 186.524 206.579C189.698 205.218 195.232 204.906 197.601 204.834C198.385 204.812 199.143 204.505 199.76 203.959C203.048 201.054 205.829 197.486 207.961 193.435C211.655 186.223 219.251 171.291 218.74 166.964C218.228 162.637 203.407 166.964 203.407 166.964Z" fill="#EFB7B9"/>
<path opacity="0.05" d="M203.407 166.964C203.407 166.964 194.461 186.065 193.766 188.791C193.586 189.547 193.196 190.219 192.653 190.709C192.111 191.198 191.444 191.479 190.75 191.512C190.75 191.512 181.838 193.916 179.708 194.238C177.578 194.56 159.114 196.319 159.114 196.319C159.114 196.319 154.428 196.483 153.861 194.56C153.341 192.8 144.289 183.555 139.048 191.622C138.565 192.369 138.245 193.233 138.113 194.145C137.981 195.057 138.042 195.992 138.29 196.872C139.253 200.334 141.23 205.829 143.351 202.411C146.333 197.603 149.801 198.954 149.801 201.516C149.801 204.079 154.573 203.127 156.132 203.488C156.984 203.685 159.915 204.564 162.45 205.334C165.392 206.231 168.406 206.796 171.447 207.021C176.479 207.391 183.896 207.699 186.524 206.579C189.698 205.218 195.232 204.906 197.601 204.834C198.385 204.812 199.143 204.505 199.76 203.959C203.048 201.054 205.829 197.486 207.961 193.435C211.655 186.223 219.251 171.291 218.74 166.964C218.228 162.637 203.407 166.964 203.407 166.964Z" fill="black"/>
<path d="M65.9223 345.885C65.9381 356.1 69.4461 365.915 75.7154 373.284C81.9848 380.654 90.532 385.009 99.5763 385.443C108.621 385.876 117.464 382.355 124.265 375.613C131.066 368.871 135.3 359.427 136.083 349.25C136.135 348.606 136.173 347.961 136.19 347.327V347.293C136.207 346.816 136.215 346.335 136.215 345.851C136.215 335.332 132.513 325.243 125.921 317.805C119.33 310.367 110.39 306.188 101.069 306.188C91.7474 306.188 82.8077 310.367 76.2165 317.805C69.6252 325.243 65.9223 335.332 65.9223 345.851V345.885Z" fill="#65617D"/>
<path d="M101.069 367.495C90.4811 367.495 81.898 357.809 81.898 345.861C81.898 333.912 90.4811 324.226 101.069 324.226C111.657 324.226 120.24 333.912 120.24 345.861C120.24 357.809 111.657 367.495 101.069 367.495Z" fill="#DCE0ED"/>
<path d="M101.069 358.841C94.7162 358.841 89.5664 353.03 89.5664 345.861C89.5664 338.692 94.7162 332.88 101.069 332.88C107.422 332.88 112.571 338.692 112.571 345.861C112.571 353.03 107.422 358.841 101.069 358.841Z" fill="#65617D"/>
<path d="M193.37 270.54L278.003 272.463V258.386C277.245 247.054 266.927 243.079 257.554 241.833C250.227 240.895 242.808 241.523 235.687 243.684C217.73 249.05 206.291 250.088 200.655 250.189C199.418 250.21 198.225 250.712 197.278 251.611C196.331 252.51 195.688 253.75 195.458 255.122C195.189 256.732 194.925 258.487 194.678 260.218C194.491 261.573 194.312 262.91 194.15 264.155C193.681 267.742 193.37 270.54 193.37 270.54Z" fill="#65617D"/>
<path d="M125.85 348.423H301.664C303.022 348.439 304.353 348.004 305.493 347.172C306.633 346.34 307.531 345.149 308.076 343.745C309.401 340.173 307.548 337.894 305.571 336.558C301.525 333.852 298.459 329.618 296.914 324.606C295.04 318.356 293.208 308.578 292.488 293.299C291.747 277.496 286.677 269.684 281.198 265.895C274.122 261.011 266.364 262.843 266.364 262.843L195.079 263.487C193.81 264.136 192.636 265 191.598 266.049C185.246 272.722 194.508 281.434 194.508 281.434C214.39 305.15 199.339 329.188 199.339 329.188H162.863C156.048 329.228 149.383 326.925 143.756 322.587C138.827 318.741 136.94 315.025 136.181 312.775C135.619 311.053 135.048 309.337 134.366 307.674C124.798 284.256 136.339 246.16 141.319 231.915C142.555 228.372 143.385 226.305 143.385 226.305L131.947 225.343L124.704 224.723H124.632C108.69 255.751 102.764 287.635 100.775 311.26C100.587 313.486 100.434 315.645 100.311 317.717C100.085 321.656 100.578 325.606 101.76 329.322C102.942 333.038 104.787 336.44 107.181 339.319C109.575 342.197 112.467 344.491 115.679 346.057C118.89 347.623 122.352 348.428 125.85 348.423Z" fill="#63B4FF"/>
<path opacity="0.1" d="M194.146 264.155H278.003V260.218H194.674C194.486 261.549 194.307 262.886 194.146 264.155Z" fill="black"/>
<path opacity="0.1" d="M191.594 266.078H280.521C280.752 266.079 280.981 266.027 281.194 265.924C274.118 261.04 266.36 262.871 266.36 262.871L195.074 263.516C193.805 264.165 192.632 265.029 191.594 266.078Z" fill="black"/>
<path d="M190.852 261.155H311.637C312.6 261.155 313.38 262.035 313.38 263.121V263.126C313.38 264.212 312.6 265.092 311.637 265.092H190.852C189.89 265.092 189.11 264.212 189.11 263.126V263.121C189.11 262.035 189.89 261.155 190.852 261.155Z" fill="#DCE0ED"/>
<path opacity="0.1" d="M100.775 311.27C104.826 316.241 107.809 318.197 107.668 312.952C107.242 297.087 131.951 225.357 131.951 225.357L124.645 224.732C108.699 255.737 102.769 287.621 100.775 311.27Z" fill="black"/>
<path opacity="0.1" d="M66.1352 341.515C70.3315 342.649 75.5077 343.803 81.898 344.88C84.2752 345.274 86.8313 345.652 89.5663 346.014C96.0972 346.889 103.651 347.654 112.375 348.24C114.846 348.407 117.412 348.559 120.074 348.697C125.058 348.954 130.393 349.149 136.079 349.284L136.186 347.361V347.327C128.24 343.707 115.737 334.048 113.726 308.89C108.705 306.706 103.306 305.852 97.9463 306.394C92.5865 306.935 87.4083 308.857 82.8105 312.013C78.2127 315.168 74.3179 319.472 71.4262 324.594C68.5345 329.715 66.7229 335.517 66.131 341.553L66.1352 341.515Z" fill="black"/>
<path d="M142.815 348.423C142.815 348.423 102.47 343.481 116.367 274.112C116.367 274.112 96.4338 294.736 84.0323 306.198C71.6309 317.659 49.5247 333.462 49.5247 333.462C49.5247 333.462 62.7228 347.38 142.815 348.423Z" fill="#63B4FF"/>
<path opacity="0.1" d="M142.815 348.423C142.815 348.423 102.47 343.481 116.367 274.112C116.367 274.112 96.4338 294.736 84.0323 306.198C71.6309 317.659 49.5247 333.462 49.5247 333.462C49.5247 333.462 62.7228 347.38 142.815 348.423Z" fill="white"/>
<path d="M250.597 385.524C231.186 385.524 215.451 367.766 215.451 345.861C215.451 323.955 231.186 306.198 250.597 306.198C270.008 306.198 285.744 323.955 285.744 345.861C285.744 367.766 270.008 385.524 250.597 385.524Z" fill="#65617D"/>
<path d="M250.597 367.495C240.01 367.495 231.427 357.809 231.427 345.861C231.427 333.912 240.01 324.226 250.597 324.226C261.185 324.226 269.768 333.912 269.768 345.861C269.768 357.809 261.185 367.495 250.597 367.495Z" fill="#DCE0ED"/>
<path d="M250.597 358.841C244.245 358.841 239.095 353.03 239.095 345.861C239.095 338.692 244.245 332.88 250.597 332.88C256.95 332.88 262.1 338.692 262.1 345.861C262.1 353.03 256.95 358.841 250.597 358.841Z" fill="#65617D"/>
<path opacity="0.1" d="M211.191 333.947C211.191 308.337 229.215 287.573 251.449 287.573C273.683 287.573 291.708 308.337 291.708 333.947C291.708 335.031 291.676 336.103 291.61 337.164H211.289C211.223 336.103 211.191 335.031 211.191 333.947Z" fill="black"/>
<path d="M212.682 333.149C212.682 308.486 230.038 288.491 251.449 288.491C272.861 288.491 290.217 308.486 290.217 333.149C290.217 334.193 290.183 335.221 290.123 336.245H212.775C212.716 335.221 212.682 334.193 212.682 333.149Z" fill="#63B4FF"/>
<path opacity="0.1" d="M212.682 333.149C212.682 333.866 212.682 334.592 212.729 335.284C212.729 335.606 212.758 335.923 212.775 336.245H290.123C290.123 335.923 290.158 335.606 290.17 335.284C290.2 334.577 290.217 333.842 290.217 333.149C290.217 308.486 272.861 288.491 251.449 288.491C230.038 288.491 212.682 308.486 212.682 333.149Z" fill="white"/>
<path opacity="0.1" d="M212.729 335.308C212.729 335.63 212.758 335.947 212.775 336.269H290.123C290.123 335.947 290.158 335.63 290.17 335.308H212.729Z" fill="black"/>
<path opacity="0.1" d="M207.569 337.207H302.631C305.142 337.207 307.177 339.503 307.177 342.334C307.177 345.166 305.142 347.462 302.631 347.462H207.569C205.059 347.462 203.024 345.166 203.024 342.334C203.024 339.503 205.059 337.207 207.569 337.207Z" fill="black"/>
<path d="M207.569 336.245H302.631C305.142 336.245 307.177 338.541 307.177 341.373C307.177 344.204 305.142 346.5 302.631 346.5H207.569C205.059 346.5 203.024 344.204 203.024 341.373C203.024 338.541 205.059 336.245 207.569 336.245Z" fill="#DCE0ED"/>
<path opacity="0.1" d="M107.709 269.363C105.14 268.053 105.428 261.075 108.352 253.779C111.275 246.482 115.727 241.629 118.296 242.939C120.864 244.25 120.576 251.227 117.653 258.524C114.729 265.821 110.277 270.674 107.709 269.363Z" fill="black"/>
<path d="M107.283 268.881C104.715 267.571 105.003 260.593 107.926 253.296C110.85 246 115.302 241.147 117.87 242.457C120.439 243.768 120.151 250.745 117.227 258.042C114.303 265.339 109.851 270.192 107.283 268.881Z" fill="#DCE0ED"/>
<path opacity="0.1" d="M124.709 224.732V232.266H137.702C138.912 232.267 140.12 232.158 141.315 231.939C142.55 228.396 143.381 226.329 143.381 226.329L131.942 225.367L124.709 224.732Z" fill="black"/>
<path d="M124.709 231.285H137.702C149.115 231.285 158.364 221.67 158.364 209.761V207.766C158.364 195.882 149.115 186.247 137.702 186.247L124.709 187.579V231.285Z" fill="#63B4FF"/>
<path d="M146.116 198.988C146.116 198.988 138.341 203.675 142.815 211.608C142.815 211.608 148.302 221.761 156.929 220.8L160.068 198.988C160.068 198.988 149.737 197.906 146.116 198.988Z" fill="#63B4FF"/>
<path opacity="0.1" d="M149.103 198.565C147.867 198.617 146.657 198.983 145.563 199.633C144.469 200.284 143.518 201.204 142.78 202.324C141.396 204.488 140.569 207.641 142.806 211.608C142.806 211.608 148.293 221.761 156.92 220.8L160.06 198.988C160.06 198.988 153.597 198.291 149.103 198.565Z" fill="black"/>
<path opacity="0.1" d="M125.135 187.579H122.63C120.526 187.579 118.508 188.522 117.021 190.201C115.533 191.88 114.697 194.157 114.697 196.531V222.338C114.697 224.712 115.533 226.989 117.021 228.668C118.508 230.347 120.526 231.29 122.63 231.29H125.135V187.579Z" fill="black"/>
<path d="M124.709 187.579H122.204C120.1 187.579 118.082 188.522 116.595 190.201C115.107 191.88 114.271 194.157 114.271 196.531V222.338C114.271 224.712 115.107 226.989 116.595 228.668C118.082 230.347 120.1 231.29 122.204 231.29H124.709V187.579Z" fill="#DCE0ED"/>
<path d="M216.959 243.713C216.959 243.713 214.952 244.54 212.273 245.694C208.012 247.545 202.006 250.247 199.918 251.727C197.831 253.208 190.047 255.641 184.219 257.352C179.899 258.615 175.45 259.234 170.987 259.193C166.454 259.145 160.963 259.097 159.446 259.097C159.181 259.095 158.916 259.117 158.654 259.165C157.061 259.463 157.124 260.669 157.163 260.958V261.02C166.535 267.429 177.897 296.116 178.604 300.924C179.137 304.529 183.819 314.524 186.128 319.303C186.903 320.904 187.406 321.919 187.406 321.919L184.564 325.601L176.329 329.769L168.52 333.616C168.52 333.616 160.281 334.096 160.141 333.616C160 333.135 160 328.169 160 328.169C161.003 327.438 161.954 326.622 162.846 325.726C164.735 323.869 166.49 321.845 168.094 319.673C172.636 313.582 163.549 301.885 163.549 301.885L146.082 276.246C146.082 276.246 144.663 273.362 137.847 261.823C131.031 250.285 137.847 244.035 137.847 244.035L149.844 238.415C170.651 229.627 195.747 222.583 195.747 222.583L196.105 222.531L201.426 221.781L216.959 243.713Z" fill="#EFB7B9"/>
<path d="M163.353 329.77C163.353 329.77 161.862 331.755 162.978 331.933C164.094 332.111 167.025 331.395 167.025 331.395L185.612 320.337C185.612 320.337 187.636 318.712 188.113 321.9C188.59 325.087 188.914 324.784 188.914 324.784C188.914 324.784 191.364 330.731 188.914 331.962C186.464 333.193 171.75 338.063 171.75 338.063C171.75 338.063 150.393 343.534 148.37 337.221C146.346 330.909 151.991 331.996 151.991 331.996C151.991 331.996 159.02 330.072 161.419 326.226C161.436 326.226 164.895 327.308 163.353 329.77Z" fill="#444053"/>
<path opacity="0.05" d="M137.864 244.035L149.861 238.415C170.668 229.627 195.764 222.583 195.764 222.583L196.122 222.531L201.443 221.781L216.959 243.713C216.959 243.713 214.952 244.54 212.273 245.694C208.012 247.545 202.006 250.247 199.918 251.727C197.831 253.208 190.047 255.641 184.219 257.352C179.899 258.615 175.45 259.234 170.987 259.193C166.454 259.145 160.963 259.097 159.446 259.097C159.181 259.095 158.916 259.117 158.654 259.165C157.061 259.463 157.124 260.669 157.163 260.958V261.02C166.535 267.429 177.897 296.116 178.604 300.924C179.137 304.529 183.819 314.525 186.128 319.303L186.439 319.947C187.057 319.832 187.828 320.082 188.1 321.899C188.582 325.082 188.901 324.784 188.901 324.784C188.901 324.784 191.351 330.731 188.901 331.962C186.452 333.193 171.75 338.063 171.75 338.063C171.75 338.063 150.393 343.534 148.37 337.221C146.346 330.909 151.991 331.995 151.991 331.995C151.991 331.995 159.02 330.072 161.419 326.226C161.631 326.296 161.839 326.383 162.041 326.486C162.292 326.255 162.56 326.005 162.846 325.726C164.735 323.869 166.49 321.845 168.094 319.673C172.636 313.582 163.549 301.885 163.549 301.885L146.082 276.246C146.082 276.246 144.663 273.362 137.847 261.823C131.031 250.285 137.864 244.035 137.864 244.035Z" fill="black"/>
<path d="M231.265 136.493L230.617 137.416L230.255 137.931L227.997 141.137C227.997 141.137 222.608 143.089 217.883 144.354C212.963 145.666 208.767 146.238 212.102 143.099C214.173 141.152 214.309 137.892 213.555 134.397C212.92 131.708 212.011 129.11 210.845 126.657C210.678 126.292 210.512 125.936 210.347 125.59C209.289 123.381 208.117 121.244 206.837 119.191C209.866 116.824 213.007 114.646 216.247 112.667C220.15 110.388 223.353 109.393 221.321 113.902C220.018 116.787 220.444 120.027 221.662 123.128C221.756 123.373 221.858 123.609 221.965 123.864C223.058 126.267 224.409 128.509 225.986 130.541C227.602 132.681 229.367 134.671 231.265 136.493Z" fill="#EFB7B9"/>
<path d="M204.281 209.728L201.392 212.704L198.602 224.819H203.258L208.4 217.271L204.281 209.728Z" fill="#444053"/>
<path opacity="0.1" d="M208.4 217.271L205.29 221.833L203.258 224.819H198.602L199.079 222.747L201.111 213.92L201.392 212.704L204.281 209.728L208.226 216.949L208.4 217.271Z" fill="black"/>
<path opacity="0.1" d="M208.4 217.271L205.29 221.833L203.258 224.819H198.602L199.079 222.747L201.111 213.92L201.392 212.704L204.281 209.728L208.226 216.949L208.4 217.271Z" fill="black"/>
<path d="M223.877 249.15C223.877 249.15 221.871 249.977 219.191 251.131C214.931 252.982 208.924 255.684 206.837 257.165C204.749 258.645 196.966 261.078 191.138 262.79C186.817 264.054 182.369 264.675 177.906 264.636C173.373 264.588 167.881 264.54 166.365 264.54C166.1 264.537 165.834 264.56 165.572 264.607C163.979 264.905 164.043 266.112 164.081 266.4V266.463C173.454 272.871 184.816 301.558 185.523 306.366C186.055 309.972 190.737 319.967 193.046 324.746C193.822 326.346 194.324 327.361 194.324 327.361L191.483 331.043L183.252 335.207L175.443 339.053C175.443 339.053 167.204 339.534 167.064 339.053C166.923 338.572 166.923 333.606 166.923 333.606C167.926 332.875 168.877 332.059 169.769 331.164C171.658 329.307 173.413 327.283 175.017 325.111C179.559 319.02 170.472 307.323 170.472 307.323L153.005 281.684C153.005 281.684 151.586 278.799 144.77 267.261C137.954 255.722 144.77 249.473 144.77 249.473L155.702 242.42C172.742 230.723 196.744 223.992 196.744 223.992L197.102 223.939L202.423 223.189L223.877 249.15Z" fill="#EFB7B9"/>
<path opacity="0.1" d="M194.329 327.356L191.487 331.039L183.252 335.207L175.443 339.053C175.443 339.053 167.204 339.534 167.064 339.053C166.923 338.572 166.923 333.606 166.923 333.606C167.926 332.876 168.877 332.059 169.769 331.164C170.651 331.697 171.652 332.697 170.685 334.245C170.685 334.245 169.194 336.226 170.31 336.409C171.426 336.592 174.357 335.87 174.357 335.87L192.944 324.813L193.051 324.731C193.835 326.342 194.329 327.356 194.329 327.356Z" fill="black"/>
<path d="M170.271 335.207C170.271 335.207 168.78 337.188 169.901 337.37C171.021 337.553 173.948 336.827 173.948 336.827L192.531 325.77C192.531 325.77 194.555 324.149 195.036 327.332C195.517 330.515 195.833 330.217 195.833 330.217C195.833 330.217 198.282 336.168 195.833 337.399C193.383 338.63 178.685 343.481 178.685 343.481C178.685 343.481 157.333 348.947 155.31 342.64C153.286 336.332 158.931 337.409 158.931 337.409C158.931 337.409 165.96 335.486 168.354 331.64C168.342 331.659 171.818 332.741 170.271 335.207Z" fill="#444053"/>
<path opacity="0.1" d="M222.744 121.907C220.282 123.83 216.524 126.873 213.316 126.873C212.489 126.873 211.663 126.799 210.845 126.652C209.659 124.065 208.32 121.57 206.837 119.186C206.837 119.186 225.581 104.441 221.321 113.897C219.915 117.042 221.3 118.585 222.744 121.907Z" fill="black"/>
<path d="M228.653 108.604C228.655 111.491 228.017 114.332 226.795 116.868C225.574 119.404 223.809 121.555 221.662 123.123C221.18 123.478 220.679 123.799 220.163 124.085C217.177 125.765 213.788 126.302 210.508 125.612C207.229 124.923 204.237 123.046 201.989 120.265C199.74 117.484 198.355 113.952 198.046 110.203C197.736 106.455 198.518 102.695 200.273 99.4928C202.028 96.2911 204.661 93.8224 207.771 92.4611C210.881 91.0998 214.3 90.9201 217.509 91.9493C220.718 92.9785 223.542 95.1604 225.553 98.1642C227.564 101.168 228.653 104.83 228.653 108.595V108.604Z" fill="#EFB7B9"/>
<path opacity="0.1" d="M223.877 249.15C223.877 249.15 221.871 249.977 219.191 251.131C217.508 249.458 215.783 247.843 215.063 247.549C213.5 246.905 208.387 243.54 208.528 242.578C208.669 241.617 206.398 237.934 204.413 237.29C202.427 236.646 203.561 233.285 203.561 233.285C203.561 233.285 199.726 231.684 198.772 229.439C197.818 227.194 194.895 224.309 195.892 224.473C196.324 224.394 196.737 224.212 197.102 223.939L202.423 223.189L223.877 249.15Z" fill="black"/>
<path d="M235.525 243.381C235.525 243.381 228.99 249.472 228.687 252.194C228.385 254.915 224.022 254.761 224.022 254.761C224.022 254.761 217.487 247.708 215.928 247.069C214.369 246.429 209.252 243.059 209.393 242.098C209.533 241.136 207.263 237.453 205.277 236.809C203.292 236.165 204.425 232.804 204.425 232.804C204.425 232.804 200.591 231.204 199.637 228.958C198.683 226.713 195.76 223.829 196.757 223.992C197.038 224.035 197.937 223.511 199.079 222.747C200.481 221.785 202.257 220.483 203.705 219.382C205.239 218.209 206.411 217.276 206.411 217.276C206.411 217.276 207.08 217.141 208.226 216.954C214.407 215.944 234.541 213.367 239.214 221.761C239.837 222.871 240.304 224.082 240.599 225.353C242.69 234.295 235.525 243.381 235.525 243.381Z" fill="#444053"/>
<path opacity="0.1" d="M228.691 223.949C228.691 223.949 235.363 228.199 237.851 228.199C240.339 228.199 228.691 223.949 228.691 223.949Z" fill="black"/>
<path opacity="0.1" d="M224.235 227.194C224.235 227.194 234.17 230.963 234.17 233.925C234.17 236.886 235.099 225.992 224.235 227.194Z" fill="black"/>
<path opacity="0.1" d="M200.451 210.218L200.591 210.435C200.527 210.379 200.478 210.304 200.451 210.218Z" fill="black"/>
<path opacity="0.1" d="M231.265 136.493L230.617 137.416L230.255 137.931L227.997 141.137C227.997 141.137 222.608 143.089 217.883 144.354C212.963 145.666 208.766 146.238 212.102 143.099C214.173 141.152 214.309 137.892 213.555 134.397L213.704 134.181C213.704 134.181 213.555 137.421 215.255 137.484C217.547 137.565 217.577 136.695 219.69 135.69C222.412 134.392 225.202 132.224 225.986 130.537C227.602 132.678 229.367 134.67 231.265 136.493Z" fill="black"/>
<path opacity="0.1" d="M240.599 225.338C239.436 225.899 238.128 225.933 236.943 225.435C232.543 223.829 225.582 219.963 222.318 221.656C219.702 223.012 209.167 222.973 205.277 221.834C204.31 221.55 203.757 221.199 203.842 220.786C203.897 220.309 203.845 219.825 203.693 219.377C203.241 217.747 202.014 215.483 201.098 213.92L201.379 212.704L204.268 209.728L208.213 216.939C214.394 215.93 234.528 213.353 239.201 221.747C239.829 222.856 240.3 224.067 240.599 225.338Z" fill="black"/>
<path d="M243.474 221.588C243.474 221.588 241.77 226.074 237.369 224.473C232.969 222.872 226.008 219.002 222.744 220.694C219.481 222.386 203.855 221.906 204.281 219.824C204.707 217.742 200.446 211.17 200.446 211.17C200.446 211.17 202.772 210.689 204.212 202.117C204.425 200.867 204.617 199.444 204.779 197.829C205.131 194.521 205.214 191.183 205.026 187.858C204.451 178.579 201.571 174.791 201.571 174.791C201.571 174.791 197.596 169.666 201.004 162.613C202.789 158.916 209.993 148.671 210.091 144.104C210.181 139.96 213.691 135.142 213.691 135.142C213.691 135.142 213.542 138.383 215.242 138.445C217.534 138.527 217.564 137.657 219.677 136.652C222.783 135.171 225.973 132.561 226.182 130.816C226.182 130.816 239.201 130.08 242.043 144.984C244.884 159.887 243.888 168.06 243.462 169.825C243.036 171.589 239.346 194.343 242.328 203.959C245.31 213.574 243.474 221.588 243.474 221.588Z" fill="#A36468"/>
<path opacity="0.1" d="M222.246 195.406C219.898 199.876 216.756 203.751 213.018 206.786C210.525 206.809 208.036 206.997 205.563 207.348C205.776 206.098 205.989 204.675 206.129 203.06C206.481 199.752 206.564 196.414 206.377 193.089C206.786 192.857 207.146 192.53 207.434 192.129C207.722 191.727 207.931 191.261 208.047 190.762C208.758 188.036 215.093 175.055 215.093 175.055C215.093 175.055 229.914 170.729 230.43 175.055C230.945 179.382 225.939 188.195 222.246 195.406Z" fill="black"/>
<path d="M217.334 166.964C217.334 166.964 208.387 186.065 207.693 188.791C207.512 189.547 207.122 190.219 206.58 190.709C206.037 191.198 205.371 191.479 204.677 191.512C204.677 191.512 195.764 193.916 193.634 194.238C191.504 194.56 173.028 196.319 173.028 196.319C173.028 196.319 168.342 196.483 167.775 194.56C167.255 192.8 158.202 183.555 152.962 191.622C152.479 192.369 152.159 193.233 152.027 194.145C151.895 195.057 151.956 195.992 152.204 196.872C153.167 200.334 155.143 205.829 157.265 202.411C160.247 197.603 163.715 198.954 163.715 201.516C163.715 204.079 168.486 203.127 170.046 203.488C170.898 203.685 173.829 204.564 176.363 205.334C179.313 206.233 182.334 206.798 185.382 207.021C190.414 207.391 197.831 207.699 200.459 206.579C203.629 205.218 209.163 204.906 211.536 204.834C212.32 204.812 213.078 204.505 213.696 203.959C216.982 201.054 219.761 197.485 221.892 193.435C225.586 186.223 233.182 171.291 232.67 166.964C232.159 162.637 217.334 166.964 217.334 166.964Z" fill="#EFB7B9"/>
<path opacity="0.1" d="M220.316 140.498C220.316 140.498 215.523 149.474 213.304 155.882C211.084 162.291 208.387 173.512 208.387 173.512L221.739 171.748L222.872 169.666C222.872 169.666 232.406 176.396 231.269 179.281C230.131 182.166 233.825 174.954 233.54 166.781C233.254 158.608 234.566 144.022 233.54 140.498C232.513 136.974 223.456 137.772 220.316 140.498Z" fill="black"/>
<path d="M233.523 165.82C233.808 173.993 230.114 181.204 231.252 178.32C232.389 175.435 222.855 168.705 222.855 168.705L221.735 170.786L208.387 172.551C208.387 172.551 211.084 161.33 213.304 154.921C214.637 151.295 216.162 147.764 217.871 144.344C219.238 141.541 220.316 139.537 220.316 139.537C222.152 137.936 226.05 136.998 229.16 137.219C229.645 137.25 230.127 137.316 230.604 137.416C231.882 137.7 232.913 138.248 233.369 139.114C233.439 139.248 233.496 139.389 233.54 139.537C234.562 143.061 233.25 157.647 233.523 165.82Z" fill="#A36468"/>
<path opacity="0.1" d="M239.487 188.195C239.487 188.195 233.842 196.968 232.138 197.209C232.151 197.228 239.393 195.406 239.487 188.195Z" fill="black"/>
<path opacity="0.1" d="M239.487 200.694C239.487 200.694 228.836 212.834 225.428 212.954C222.02 213.074 239.487 200.694 239.487 200.694Z" fill="black"/>
<path opacity="0.1" d="M239.487 205.762C239.487 205.762 232.67 214.776 232.244 214.776C231.818 214.776 239.606 211.651 239.487 205.762Z" fill="black"/>
<path opacity="0.1" d="M233.382 139.114C232.286 138.929 231.228 138.529 230.255 137.931C229.889 137.715 229.526 137.474 229.173 137.219C227.776 136.164 226.475 134.957 225.288 133.614C223.328 131.465 221.372 129.119 220.563 126.171C220.381 125.492 220.247 124.798 220.163 124.095C219.677 120.398 220.086 116.316 217.743 113.801C217.302 113.332 216.797 112.948 216.247 112.662C212.924 110.878 208.106 112.032 205.627 108.816C204.05 106.778 204.089 103.946 202.879 101.729C202.351 100.768 201.379 99.9363 200.519 99.0517C201.772 96.8986 203.435 95.0884 205.388 93.7532C207.34 92.4179 209.531 91.5912 211.802 91.3335C214.074 91.0757 216.367 91.3933 218.516 92.2631C220.664 93.133 222.614 94.5331 224.222 96.3614C225.83 98.1896 227.056 100.4 227.811 102.831C228.566 105.262 228.83 107.853 228.585 110.414C228.34 112.975 227.591 115.442 226.393 117.635C225.196 119.828 223.579 121.691 221.662 123.09C221.756 123.335 221.858 123.571 221.965 123.825C224.891 130.556 231.265 136.46 231.265 136.46L230.617 137.383C231.908 137.715 232.926 138.248 233.382 139.114Z" fill="black"/>
<path d="M206.479 108.345C209.363 112.075 215.425 109.902 218.599 113.321C221.385 116.316 220.278 121.542 221.415 125.691C222.224 128.638 224.18 130.979 226.14 133.133C228.994 136.267 232.645 139.45 236.547 138.551C238.861 138.017 241.127 136.065 243.364 136.964C244.475 137.416 245.272 138.503 246.103 139.46C248.925 142.705 252.593 144.846 256.57 145.57C257.357 145.77 258.177 145.727 258.943 145.445C260.136 144.897 260.779 143.426 261.866 142.642C263.996 141.104 266.731 142.681 268.942 144.056C275.125 147.834 281.951 150.083 288.965 150.652C295.978 151.222 303.019 150.099 309.618 147.359L306.172 145.435C306.904 143.748 308.885 143.378 310.146 142.142C312.745 139.599 311.216 134.513 308.468 132.181C305.72 129.849 302.163 129.037 299.317 126.859C298.738 126.417 298.15 125.83 298.094 125.046C298.104 124.471 298.265 123.912 298.559 123.441C300.075 120.426 301.754 117.191 301.413 113.744C300.893 108.455 295.777 105.205 291.078 104.835C286.379 104.465 281.727 106.061 277.019 106.152C275.315 106.186 273.53 105.999 272.069 105.003C270.028 103.619 269.001 100.979 267.762 98.6861C265.549 94.6144 262.378 91.3157 258.602 89.1574C254.342 86.7295 249.52 85.8786 245.089 83.869C240.565 81.821 236.449 78.5806 231.716 77.2778C224.845 75.3547 217.483 77.8691 211.548 82.2152C208.69 84.3065 199.56 91.018 199.62 95.3112C199.667 97.8592 202.602 99.239 203.714 101.239C204.941 103.475 204.903 106.306 206.479 108.345Z" fill="#965D7B"/>
<g opacity="0.1">
<path opacity="0.1" d="M298.976 121.032C298.685 121.504 298.523 122.063 298.512 122.638C298.529 122.841 298.579 123.038 298.661 123.22C299.913 120.729 301.217 118.09 301.426 115.311C300.872 117.297 299.896 119.205 298.976 121.032Z" fill="black"/>
<path opacity="0.1" d="M310.564 139.734C309.307 140.969 307.326 141.34 306.589 143.027L307.807 143.71C308.628 143.274 309.409 142.747 310.138 142.138C310.6 141.673 310.96 141.094 311.191 140.446C311.421 139.798 311.516 139.098 311.467 138.402C311.25 138.911 310.942 139.364 310.564 139.734Z" fill="black"/>
<path opacity="0.1" d="M269.359 141.652C267.148 140.277 264.409 138.7 262.283 140.238C261.201 141.022 260.553 142.493 259.361 143.041C258.595 143.323 257.777 143.367 256.992 143.166C253.013 142.442 249.344 140.301 246.52 137.056C245.694 136.094 244.897 135.013 243.781 134.561C241.557 133.662 239.291 135.614 236.965 136.147C233.062 137.046 229.416 133.864 226.557 130.729C224.597 128.58 222.646 126.234 221.837 123.287C220.695 119.138 221.803 113.912 219.017 110.917C215.834 107.499 209.785 109.672 206.896 105.941C205.324 103.902 205.358 101.071 204.148 98.8544C203.126 96.9843 200.476 95.6574 200.101 93.4026C199.808 93.9912 199.646 94.651 199.628 95.3256C199.675 97.8737 202.611 99.2535 203.722 101.253C204.932 103.47 204.898 106.301 206.47 108.34C209.359 112.071 215.417 109.898 218.59 113.316C221.377 116.311 220.269 121.537 221.411 125.686C222.22 128.633 224.171 130.974 226.131 133.128C228.99 136.263 232.636 139.445 236.539 138.546C238.856 138.013 241.123 136.061 243.355 136.96C244.471 137.412 245.268 138.498 246.094 139.455C248.918 142.7 252.587 144.841 256.566 145.565C257.351 145.766 258.169 145.722 258.935 145.44C260.127 144.892 260.775 143.421 261.857 142.637C263.987 141.099 266.722 142.676 268.933 144.051C275.117 147.829 281.942 150.078 288.956 150.647C295.97 151.217 303.01 150.094 309.61 147.354L307.228 146.022C300.972 148.143 294.406 148.849 287.907 148.099C281.409 147.349 275.106 145.158 269.359 141.652Z" fill="black"/>
</g>
<path opacity="0.1" d="M164.081 266.395L160.499 264.439V263.674C160.499 263.381 163.357 264.03 165.572 264.583C163.979 264.9 164.043 266.107 164.081 266.395Z" fill="black"/>
<path d="M160.967 222.184C156.2 222.184 152.336 216.879 152.336 210.334C152.336 203.789 156.2 198.483 160.967 198.483C165.734 198.483 169.598 203.789 169.598 210.334C169.598 216.879 165.734 222.184 160.967 222.184Z" fill="#63B4FF"/>
<path d="M244.041 194.911L257.916 210.353L303.53 209.454L290.988 194.911H244.041Z" fill="#DDA2A6"/>
<path d="M244.041 247.737V194.911L257.916 210.353V262.044L244.041 247.737Z" fill="#B77B7F"/>
<path d="M303.53 209.454V262.044H257.916V210.353L303.53 209.454Z" fill="#DDA2A6"/>
<path opacity="0.3" d="M303.53 209.454V262.044H257.916V210.353L303.53 209.454Z" fill="white"/>
<path d="M261.623 224.829L295.547 218.257L299.969 243.391L265.044 250.631L261.623 224.829Z" fill="#DCE0ED"/>
<path d="M268.324 230.699L291.129 226.656L291.7 230.011L268.895 234.377L268.324 230.699Z" fill="#63B4FF"/>
<path d="M274.595 237.876L287.567 235.751L288.138 239.477L274.595 241.622V237.876Z" fill="#63B4FF"/>
<path d="M249.652 222.636L250.269 201.839L253.835 205.81L253.213 226.656L249.652 222.636Z" fill="#65617D"/>
<path d="M295.577 200.233L251.743 200.901L250.269 201.838L253.835 205.81L255.066 204.992L298.482 203.603L295.577 200.233Z" fill="#65617D"/>
</g>
<defs>
<clipPath id="clip0">
<rect width="450" height="388.889" transform="matrix(-1 0 0 1 450 0)" fill="white"/>
</clipPath>
</defs>
</svg>
