<svg width="450" height="328" viewBox="0 0 450 328" fill="none" xmlns="http://www.w3.org/2000/svg">
<g clip-path="url(#clip0)">
<path opacity="0.1" d="M31.8018 264.178C44.1763 264.178 54.2079 260.612 54.2079 256.212C54.2079 251.812 44.1763 248.245 31.8018 248.245C19.4272 248.245 9.39563 251.812 9.39563 256.212C9.39563 260.612 19.4272 264.178 31.8018 264.178Z" fill="black"/>
<path opacity="0.1" d="M393.776 297.115C406.15 297.115 416.182 293.549 416.182 289.149C416.182 284.749 406.15 281.182 393.776 281.182C381.401 281.182 371.369 284.749 371.369 289.149C371.369 293.549 381.401 297.115 393.776 297.115Z" fill="black"/>
<path opacity="0.1" d="M265.334 9.17653C231.236 22.3464 194.276 22.9588 159.945 10.5607C111.289 -7.00568 47.745 -11.5018 24.1986 68.996C-15.988 206.525 66.2276 255.614 66.2276 255.614C66.2276 255.614 123.627 268.48 155.409 291.728C200.555 324.75 255.843 335.788 307.925 320.303C341.231 310.4 369.776 294.153 377.937 267.569C400.761 193.221 386.272 148.533 427.579 128.93C468.886 109.327 445.902 36.7062 416.525 35.0581C387.148 33.41 317.938 50.2545 296.528 16.7498C288.895 4.85464 277.219 4.58079 265.334 9.17653Z" fill="black"/>
<path d="M392.869 290.279C392.869 290.279 398.844 269.944 391.744 254.977C388.72 248.718 387.808 241.647 389.145 234.826C389.805 231.592 390.76 228.426 391.998 225.366" stroke="#535461" stroke-width="2" stroke-miterlimit="10"/>
<path d="M387.577 215.911C387.577 218.4 392.088 225.63 392.088 225.63C392.088 225.63 396.599 218.405 396.599 215.911C396.599 214.713 396.123 213.565 395.277 212.719C394.43 211.873 393.282 211.397 392.085 211.397C390.888 211.397 389.74 211.873 388.894 212.719C388.047 213.565 387.572 214.713 387.572 215.911H387.577Z" fill="#5DA896"/>
<path d="M380.118 229.718C381.472 231.809 389.19 235.424 389.19 235.424C389.19 235.424 389.05 226.905 387.696 224.813C387.374 224.316 386.957 223.887 386.469 223.551C385.982 223.215 385.432 222.978 384.853 222.854C384.274 222.73 383.676 222.722 383.093 222.829C382.51 222.936 381.954 223.157 381.457 223.479C380.96 223.801 380.531 224.218 380.195 224.706C379.859 225.193 379.622 225.743 379.498 226.322C379.374 226.901 379.365 227.499 379.473 228.082C379.58 228.665 379.801 229.221 380.123 229.718H380.118Z" fill="#5DA896"/>
<path d="M380.441 253.304C382.667 254.424 391.151 253.652 391.151 253.652C391.151 253.652 386.73 246.368 384.504 245.248C383.436 244.709 382.197 244.617 381.061 244.991C379.925 245.365 378.983 246.176 378.445 247.244C377.906 248.313 377.814 249.551 378.188 250.688C378.562 251.824 379.373 252.765 380.441 253.304Z" fill="#5DA896"/>
<path d="M384.708 271.099C386.7 272.593 395.204 273.25 395.204 273.25C395.204 273.25 392.078 265.324 390.076 263.845C389.114 263.133 387.909 262.833 386.725 263.009C385.541 263.186 384.477 263.826 383.765 264.788C383.053 265.75 382.753 266.956 382.93 268.139C383.107 269.323 383.746 270.388 384.708 271.099Z" fill="#5DA896"/>
<path d="M398.66 235.907C396.873 237.645 388.542 239.442 388.542 239.442C388.542 239.442 390.584 231.172 392.371 229.434C393.23 228.6 394.384 228.141 395.581 228.159C396.778 228.176 397.918 228.668 398.752 229.526C399.586 230.384 400.045 231.539 400.028 232.736C400.01 233.932 399.518 235.073 398.66 235.907Z" fill="#5DA896"/>
<path d="M403.385 256.774C401.16 257.895 392.675 257.123 392.675 257.123C392.675 257.123 397.097 249.838 399.322 248.743C400.391 248.204 401.629 248.112 402.766 248.486C403.902 248.861 404.843 249.671 405.382 250.74C405.921 251.808 406.013 253.047 405.639 254.183C405.264 255.319 404.454 256.261 403.385 256.799V256.774Z" fill="#5DA896"/>
<path d="M405.193 277.692C403.201 279.185 394.697 279.843 394.697 279.843C394.697 279.843 397.824 271.916 399.825 270.437C400.787 269.725 401.993 269.425 403.176 269.602C404.36 269.779 405.424 270.419 406.136 271.381C406.848 272.343 407.149 273.548 406.972 274.732C406.795 275.915 406.155 276.98 405.193 277.692Z" fill="#5DA896"/>
<path d="M31.8117 256.272C31.8117 256.272 44.6031 212.893 29.4217 180.927C23.0484 167.518 20.9572 152.471 23.88 137.922C25.289 131.022 27.3273 124.265 29.9695 117.737" stroke="#535461" stroke-width="2" stroke-miterlimit="10"/>
<path d="M20.524 97.5464C20.524 102.864 30.1537 118.29 30.1537 118.29C30.1537 118.29 39.7784 102.854 39.7784 97.5464C39.7784 94.9925 38.7638 92.5431 36.9579 90.7372C35.152 88.9313 32.7026 87.9167 30.1487 87.9167C27.5948 87.9167 25.1454 88.9313 23.3395 90.7372C21.5336 92.5431 20.519 94.9925 20.519 97.5464H20.524Z" fill="#5DA896"/>
<path d="M4.60568 127.008C7.49857 131.489 23.9646 139.187 23.9646 139.187C23.9646 139.187 23.6658 121.003 20.773 116.542C19.3578 114.464 17.1858 113.021 14.7213 112.523C12.2567 112.025 9.69509 112.51 7.58378 113.876C5.47247 115.241 3.97898 117.378 3.42249 119.83C2.866 122.283 3.29065 124.855 4.60568 126.998V127.008Z" fill="#5DA896"/>
<path d="M5.29778 177.357C10.0479 179.752 28.157 178.099 28.157 178.099C28.157 178.099 18.6967 162.554 13.9714 160.174C12.8422 159.605 11.6119 159.263 10.3506 159.169C9.08941 159.075 7.82202 159.23 6.62082 159.626C5.41962 160.022 4.30813 160.65 3.34982 161.476C2.39152 162.301 1.60516 163.307 1.03564 164.436C0.466115 165.565 0.124591 166.796 0.0305613 168.057C-0.0634684 169.318 0.091839 170.586 0.487616 171.787C1.28692 174.213 3.01719 176.222 5.29778 177.372V177.357Z" fill="#5DA896"/>
<path d="M14.3847 215.333C18.6618 218.495 36.7909 219.924 36.7909 219.924C36.7909 219.924 30.1188 202.995 25.8368 199.848C23.7833 198.329 21.2107 197.688 18.6848 198.067C16.159 198.445 13.8868 199.811 12.3682 201.864C10.8496 203.918 10.2089 206.49 10.587 209.016C10.9652 211.542 12.3313 213.814 14.3847 215.333Z" fill="#5DA896"/>
<path d="M44.1849 140.198C40.3709 143.902 22.5953 147.741 22.5953 147.741C22.5953 147.741 26.9471 130.085 30.7611 126.381C32.5934 124.598 35.0588 123.616 37.615 123.651C40.1712 123.686 42.6088 124.735 44.3915 126.567C46.1743 128.4 47.1561 130.865 47.1211 133.421C47.0861 135.977 46.0371 138.415 44.2048 140.198H44.1849Z" fill="#5DA896"/>
<path d="M54.2677 184.766C49.5176 187.161 31.4084 185.508 31.4084 185.508C31.4084 185.508 40.8688 169.963 45.594 167.583C46.7233 167.013 47.9536 166.672 49.2148 166.578C50.4761 166.484 51.7435 166.639 52.9447 167.035C54.1459 167.431 55.2573 168.059 56.2156 168.885C57.174 169.71 57.9603 170.716 58.5298 171.845C59.0994 172.974 59.4409 174.205 59.5349 175.466C59.6289 176.727 59.4736 177.995 59.0778 179.196C58.6821 180.397 58.0536 181.508 57.2283 182.467C56.4029 183.425 55.3969 184.211 54.2677 184.781V184.766Z" fill="#5DA896"/>
<path d="M58.1265 229.409C53.8495 232.571 35.7204 234 35.7204 234C35.7204 234 42.3924 217.071 46.6745 213.924C48.728 212.405 51.3006 211.765 53.8264 212.143C56.3523 212.521 58.6245 213.887 60.1431 215.94C61.6617 217.994 62.3024 220.566 61.9242 223.092C61.5461 225.618 60.18 227.89 58.1265 229.409Z" fill="#5DA896"/>
<path d="M188.784 149.27L161.035 145.675C159.91 145.53 159.044 145.102 159.074 144.729C159.123 144.355 160.069 144.181 161.22 144.345L188.909 148.354C189.67 148.463 190.248 148.752 190.213 149.006C190.178 149.245 189.541 149.369 188.784 149.27Z" fill="#5DA896"/>
<path d="M188.958 149.743L161.125 146.865C159.995 146.75 159.034 146.959 158.999 147.333C158.964 147.706 159.865 148.1 160.991 148.199L188.874 150.689C189.641 150.758 190.268 150.609 190.293 150.355C190.313 150.086 189.72 149.822 188.958 149.743Z" fill="#5DA896"/>
<path d="M230.714 170.68L258.457 167.085C259.583 166.941 260.449 166.513 260.419 166.139C260.369 165.766 259.423 165.591 258.273 165.756L230.584 169.764C229.822 169.873 229.245 170.162 229.28 170.416C229.314 170.655 229.952 170.78 230.714 170.68Z" fill="#5DA896"/>
<path d="M230.534 171.153L258.368 168.275C259.498 168.161 260.459 168.37 260.494 168.743C260.529 169.117 259.627 169.51 258.502 169.61L230.619 172.099C229.852 172.169 229.225 172.019 229.2 171.765C229.18 171.497 229.772 171.233 230.534 171.153Z" fill="#5DA896"/>
<path d="M138.933 200.48H132.166V297.504H138.933V200.48Z" fill="#40414D"/>
<path d="M286.724 200.48H279.957V297.504H286.724V200.48Z" fill="#40414D"/>
<path d="M129.582 192.583H285.927C288.832 192.583 291.619 193.737 293.673 195.792C295.727 197.846 296.881 200.632 296.881 203.537V204.991H118.628V203.537C118.628 200.632 119.782 197.846 121.836 195.792C123.891 193.737 126.677 192.583 129.582 192.583Z" fill="#DFE6F5"/>
<path opacity="0.1" d="M129.084 192.583H285.429C288.335 192.583 291.121 193.737 293.175 195.792C295.229 197.846 296.383 200.632 296.383 203.537V204.991H118.13V203.537C118.13 200.632 119.284 197.846 121.339 195.792C123.393 193.737 126.179 192.583 129.084 192.583Z" fill="black"/>
<path d="M129.582 190.323H285.927C288.832 190.323 291.619 191.477 293.673 193.531C295.727 195.585 296.881 198.372 296.881 201.277V202.731H118.628V201.277C118.628 198.372 119.782 195.585 121.836 193.531C123.891 191.477 126.677 190.323 129.582 190.323Z" fill="#DFE6F5"/>
<path d="M207.755 182.426C215.232 182.426 221.293 176.365 221.293 168.888C221.293 161.411 215.232 155.349 207.755 155.349C200.278 155.349 194.216 161.411 194.216 168.888C194.216 176.365 200.278 182.426 207.755 182.426Z" fill="#FFD77C" stroke="#FFAB50" stroke-miterlimit="10"/>
<path d="M207.755 179.618C213.681 179.618 218.485 174.814 218.485 168.888C218.485 162.961 213.681 158.157 207.755 158.157C201.829 158.157 197.025 162.961 197.025 168.888C197.025 174.814 201.829 179.618 207.755 179.618Z" fill="#FFD77C" stroke="#FFAB50" stroke-miterlimit="10"/>
<path d="M207.755 177.063C212.27 177.063 215.93 173.403 215.93 168.888C215.93 164.372 212.27 160.712 207.755 160.712C203.239 160.712 199.579 164.372 199.579 168.888C199.579 173.403 203.239 177.063 207.755 177.063Z" fill="#FFD77C" stroke="#FFAB50" stroke-miterlimit="10"/>
<path d="M207.755 173.483C210.293 173.483 212.35 171.426 212.35 168.888C212.35 166.349 210.293 164.292 207.755 164.292C205.217 164.292 203.159 166.349 203.159 168.888C203.159 171.426 205.217 173.483 207.755 173.483Z" fill="#FFD77C" stroke="#FFAB50" stroke-miterlimit="10"/>
<path d="M199.858 189.76C207.335 189.76 213.396 183.699 213.396 176.222C213.396 168.745 207.335 162.684 199.858 162.684C192.381 162.684 186.32 168.745 186.32 176.222C186.32 183.699 192.381 189.76 199.858 189.76Z" fill="#FFD77C" stroke="#FFAB50" stroke-miterlimit="10"/>
<path d="M199.858 186.952C205.784 186.952 210.588 182.148 210.588 176.222C210.588 170.296 205.784 165.492 199.858 165.492C193.932 165.492 189.128 170.296 189.128 176.222C189.128 182.148 193.932 186.952 199.858 186.952Z" fill="#FFD77C" stroke="#FFAB50" stroke-miterlimit="10"/>
<path d="M199.858 184.398C204.373 184.398 208.034 180.737 208.034 176.222C208.034 171.706 204.373 168.046 199.858 168.046C195.342 168.046 191.682 171.706 191.682 176.222C191.682 180.737 195.342 184.398 199.858 184.398Z" fill="#FFD77C" stroke="#FFAB50" stroke-miterlimit="10"/>
<path d="M199.858 180.818C202.396 180.818 204.454 178.76 204.454 176.222C204.454 173.684 202.396 171.626 199.858 171.626C197.32 171.626 195.262 173.684 195.262 176.222C195.262 178.76 197.32 180.818 199.858 180.818Z" fill="#FFD77C" stroke="#FFAB50" stroke-miterlimit="10"/>
<path d="M215.652 189.76C223.129 189.76 229.19 183.699 229.19 176.222C229.19 168.745 223.129 162.684 215.652 162.684C208.175 162.684 202.113 168.745 202.113 176.222C202.113 183.699 208.175 189.76 215.652 189.76Z" fill="#FFD77C" stroke="#FFAB50" stroke-miterlimit="10"/>
<path d="M215.652 186.952C221.578 186.952 226.382 182.148 226.382 176.222C226.382 170.296 221.578 165.492 215.652 165.492C209.726 165.492 204.922 170.296 204.922 176.222C204.922 182.148 209.726 186.952 215.652 186.952Z" fill="#FFD77C" stroke="#FFAB50" stroke-miterlimit="10"/>
<path d="M215.652 184.398C220.167 184.398 223.827 180.737 223.827 176.222C223.827 171.706 220.167 168.046 215.652 168.046C211.136 168.046 207.476 171.706 207.476 176.222C207.476 180.737 211.136 184.398 215.652 184.398Z" fill="#FFD77C" stroke="#FFAB50" stroke-miterlimit="10"/>
<path d="M215.652 180.818C218.19 180.818 220.247 178.76 220.247 176.222C220.247 173.684 218.19 171.626 215.652 171.626C213.113 171.626 211.056 173.684 211.056 176.222C211.056 178.76 213.113 180.818 215.652 180.818Z" fill="#FFD77C" stroke="#FFAB50" stroke-miterlimit="10"/>
<path d="M179.548 172.278H235.957V174.927C235.957 177.543 235.441 180.133 234.441 182.549C233.44 184.965 231.973 187.161 230.123 189.01C228.274 190.86 226.078 192.327 223.662 193.328C221.245 194.329 218.656 194.844 216.04 194.844H199.464C196.849 194.844 194.259 194.329 191.843 193.328C189.426 192.327 187.231 190.86 185.381 189.01C183.532 187.161 182.065 184.965 181.064 182.549C180.063 180.133 179.548 177.543 179.548 174.927V172.278Z" fill="#5DA896"/>
<path opacity="0.1" d="M230.868 172.273C230.721 178.157 228.281 183.75 224.068 187.86C219.855 191.97 214.203 194.27 208.317 194.271H197.119C198.753 194.644 200.423 194.835 202.098 194.839H213.381C216.345 194.84 219.281 194.257 222.02 193.124C224.759 191.991 227.247 190.329 229.344 188.233C231.44 186.138 233.103 183.649 234.238 180.911C235.373 178.173 235.957 175.237 235.957 172.273H230.868Z" fill="black"/>
<path d="M283.343 281.142V274.376H136.677V281.142H283.343Z" fill="#40414D"/>
<path d="M81.6878 250.745H75.7676V304.609H81.6878V250.745Z" fill="#40414D"/>
<path d="M128.447 250.745H122.527V304.609H128.447V250.745Z" fill="#40414D"/>
<path d="M133.187 241.867C133.187 245.462 120.998 248.38 105.961 248.38C90.9241 248.38 79.3277 245.467 79.3277 241.867C79.3277 238.267 90.9241 235.354 105.961 235.354C120.998 235.354 133.187 238.287 133.187 241.867Z" fill="#F6C6CD"/>
<path d="M71.0325 241.862H133.182V247.289C133.182 248.676 132.631 250.006 131.651 250.986C130.67 251.966 129.341 252.517 127.954 252.517H79.9949C77.6179 252.517 75.3383 251.573 73.6575 249.892C71.9767 248.211 71.0325 245.932 71.0325 243.555V241.862Z" fill="#40414D"/>
<path d="M60.4783 179.583L61.7605 179.294C62.6622 179.09 63.6079 179.253 64.3894 179.747C65.1709 180.24 65.7243 181.024 65.9278 181.926L81.4498 250.691L79.5071 251.129C77.8763 251.497 76.166 251.202 74.7526 250.31C73.3392 249.417 72.3383 247.999 71.9702 246.368L57.8362 183.753C57.7352 183.305 57.7235 182.842 57.8017 182.391C57.8799 181.939 58.0465 181.507 58.292 181.119C58.5374 180.732 58.8569 180.397 59.232 180.133C59.6072 179.87 60.0307 179.683 60.4783 179.583Z" fill="#40414D"/>
<path d="M334.812 305.565H340.733V251.701H334.812V305.565Z" fill="#40414D"/>
<path d="M288.053 305.565H293.974V251.701H288.053V305.565Z" fill="#40414D"/>
<path d="M283.323 242.823C283.323 246.418 295.512 249.336 310.549 249.336C325.586 249.336 337.183 246.423 337.183 242.823C337.183 239.223 325.581 236.295 310.549 236.295C295.517 236.295 283.323 239.228 283.323 242.823Z" fill="#F6C6CD"/>
<path d="M336.505 253.478H288.546C287.16 253.478 285.83 252.927 284.85 251.947C283.869 250.966 283.318 249.637 283.318 248.25V242.823H345.468V244.516C345.468 246.893 344.524 249.172 342.843 250.853C341.162 252.534 338.882 253.478 336.505 253.478Z" fill="#40414D"/>
<path d="M337.002 252.085L335.059 251.646L350.584 182.872C350.787 181.97 351.34 181.186 352.122 180.693C352.903 180.199 353.849 180.036 354.751 180.239L356.033 180.529C356.935 180.732 357.719 181.286 358.212 182.067C358.706 182.849 358.869 183.794 358.665 184.696L344.529 247.322C344.161 248.951 343.162 250.367 341.751 251.26C340.34 252.153 338.632 252.45 337.002 252.085Z" fill="#40414D"/>
<path d="M339.109 221.856L340.857 221.303C340.857 221.303 337.87 201.347 337.9 183.461C337.9 182.964 337.9 182.431 337.9 181.918C337.934 180.803 337.974 179.697 338.029 178.617C338.099 177.233 338.114 175.913 338.104 174.633C338.268 157.411 331.481 150.136 331.481 150.136C331.481 150.136 323.515 138.774 318.74 136.563C318.327 135.268 317.854 133.605 317.435 131.673C317.59 131.569 317.739 131.464 317.883 131.355C319.855 129.892 321.742 128.318 323.535 126.639C325.984 124.344 328.335 121.546 328.205 118.389C328.219 118.082 328.209 117.774 328.175 117.468C327.722 113.659 323.764 110.791 322.165 107.181C320.821 104.149 321.224 100.773 320.049 97.6957C318.874 94.6186 314.771 91.7556 311.674 93.3738C310.534 93.9713 309.847 95.0269 308.896 95.8286C306.536 97.8202 302.732 98.0044 299.505 97.0982C296.279 96.192 295.323 92.4975 290.812 92.4875C291.212 92.6219 291.595 92.8041 291.952 93.0303C291.575 92.9668 291.194 92.9335 290.812 92.9307C291.729 93.221 292.543 93.771 293.155 94.5142C293.766 95.2574 294.149 96.1618 294.257 97.1182C294.25 97.2383 294.237 97.3579 294.218 97.4767C292.415 98.4476 290.045 97.8949 287.884 97.86C285.723 97.8252 283.263 98.9156 283.477 100.683C283.441 100.884 283.441 101.09 283.477 101.291C283.761 102.63 285.554 103.641 285.773 104.881C285.773 104.915 285.773 104.945 285.773 104.98C281.774 106.979 277.448 108.24 273.001 108.705C272.857 108.705 272.922 108.879 273.131 109.133H273.001C272.19 109.217 277.866 113.704 278.513 113.997C280.883 115.073 283.717 115.865 286.226 116.691L286.445 116.761C285.6 118.725 285.164 120.841 285.165 122.98C285.165 130.648 290.677 137.091 298.141 138.913C299.535 140.541 300.999 142.329 302.334 144.106H302.239C302.239 144.106 293.66 155.519 293.934 172.562C293.909 174.698 294.022 176.834 294.272 178.955C288.755 178.642 276.9 177.188 267.883 170.585C255.719 161.688 242.151 164.356 244.979 169.694C247.807 175.032 262.291 179.478 264.626 179.926C264.846 179.966 265.353 180.086 266.08 180.265C263.202 180.808 261.231 181.759 261.35 183.038C261.584 185.483 273.982 193.27 281.466 193.714C286.41 194.007 292.36 195.531 297.056 196.87C297.509 207.102 295.034 210.17 295.034 210.17C295.034 210.17 295.771 210.623 296.991 211.265L296.468 212.759C293.431 214.511 289.686 216.339 286.281 217.076C281.941 217.967 277.722 219.371 273.713 221.258L256.869 229.399C255.365 230.097 254.063 231.167 253.087 232.508C252.112 233.848 251.494 235.416 251.292 237.062C250.924 240.512 251.964 244.824 257.601 248.245C257.949 251.048 259.662 254.32 264.158 257.317C272.872 263.113 295.771 280.475 298.888 282.845C298.948 287.082 298.39 295.582 293.162 296.906C286.609 298.569 291.882 304.873 297.18 304.624C298.437 305.099 299.805 305.2 301.119 304.913C306.735 303.578 327.319 296.448 328.723 285.783C328.781 285.32 328.808 284.855 328.803 284.389C328.884 282.571 328.431 280.768 327.498 279.205C327.718 279.687 327.896 280.187 328.031 280.699C326.328 276.815 322.18 274.376 318.954 273.001C318.954 272.967 318.954 272.927 318.954 272.892C318.456 272.698 317.958 272.538 317.55 272.394C317.558 272.105 317.536 271.817 317.485 271.533L285.205 249.291C285.205 249.291 299.241 237.724 313.746 239.507C328.25 241.289 330.56 238.655 330.56 238.655C330.56 238.655 337.999 231.58 338.746 223.434L339.214 223.31C339.214 223.31 339.179 222.797 339.109 221.856Z" fill="url(#paint0_linear)"/>
<path d="M299.69 279.788C299.69 279.788 301.009 294.312 294.407 296.075C287.804 297.837 293.969 304.878 299.246 303.543C304.524 302.209 323.898 295.179 325.218 284.623C326.537 274.067 312.013 270.537 312.013 270.537L299.69 279.788Z" fill="#B8616E"/>
<path opacity="0.05" d="M299.69 279.788C299.69 279.788 301.009 294.312 294.407 296.075C287.804 297.837 293.969 304.878 299.246 303.543C304.524 302.209 323.898 295.179 325.218 284.623C326.537 274.067 312.013 270.537 312.013 270.537L299.69 279.788Z" fill="black"/>
<path d="M302.344 280.226C302.344 280.226 303.663 294.75 297.061 296.513C290.458 298.276 296.623 305.316 301.9 303.982C307.178 302.647 326.552 295.617 327.872 285.061C329.191 274.505 314.667 270.975 314.667 270.975L302.344 280.226Z" fill="#B8616E"/>
<path opacity="0.1" d="M315.986 271.423L303.673 280.669C303.673 280.669 303.728 281.297 303.763 282.298C308.413 281.023 318.546 277.637 318.7 272.339C317.815 271.98 316.908 271.674 315.986 271.423Z" fill="black"/>
<path d="M308.284 144.868H303.001V148.832H308.284V144.868Z" fill="#F8BDC5"/>
<path d="M303.225 208.91C303.225 208.91 294.835 215.502 287.944 217.066C283.847 217.952 279.875 219.342 276.118 221.203L260.27 229.26C258.83 229.984 257.596 231.057 256.679 232.382C255.762 233.707 255.192 235.241 255.022 236.843C254.569 241.324 256.371 247.219 267.126 250.725L301.019 278.897L311.585 270.094L275.491 242.37L303.225 225.202V208.91Z" fill="#758AC8"/>
<path opacity="0.1" d="M303.225 208.91C303.225 208.91 294.835 215.502 287.944 217.066C283.847 217.952 279.875 219.342 276.118 221.203L260.27 229.26C258.83 229.984 257.596 231.057 256.679 232.382C255.762 233.707 255.192 235.241 255.022 236.843C254.569 241.324 256.371 247.219 267.126 250.725L301.019 278.897L311.585 270.094L275.491 242.37L303.225 225.202V208.91Z" fill="black"/>
<path d="M298.38 179.423C298.38 179.423 282.093 179.862 270.646 171.058C259.199 162.255 246.438 164.894 249.077 170.177C251.716 175.46 265.363 179.862 267.564 180.3C269.765 180.738 301.457 189.546 301.457 189.546L298.38 179.423Z" fill="#F8BDC5"/>
<path opacity="0.05" d="M298.38 179.423C298.38 179.423 282.093 179.862 270.646 171.058C259.199 162.255 246.438 164.894 249.077 170.177C251.716 175.46 265.363 179.862 267.564 180.3C269.765 180.738 301.457 189.546 301.457 189.546L298.38 179.423Z" fill="black"/>
<path d="M300.143 204.956L294.86 220.805C294.86 220.805 265.149 239.074 262.724 241.493C260.842 243.375 258.323 250.74 267.126 256.899C275.929 263.058 300.138 282.432 300.138 282.432C300.138 282.432 318.625 278.449 317.306 270.98L286.933 248.972C286.933 248.972 300.138 237.52 313.786 239.288C327.433 241.055 329.634 238.406 329.634 238.406C329.634 238.406 340.2 227.831 336.675 217.723C333.149 207.615 300.143 204.956 300.143 204.956Z" fill="#758AC8"/>
<path d="M293.54 133.227C293.54 133.227 308.508 149.514 307.626 154.353C306.745 159.193 319.512 140.267 319.512 140.267C319.512 140.267 315.528 130.583 316.43 120.017L293.54 133.227Z" fill="#F8BDC5"/>
<path opacity="0.1" d="M306.601 148.164C307.622 147.086 308.697 146.061 309.822 145.092C312.074 143.245 314.141 141.182 315.991 138.933C319.073 134.95 330.515 152.138 330.515 152.138C330.515 152.138 337.556 160.059 336.68 178.99C335.803 197.921 337.78 223.23 337.78 223.23L335.116 223.972C332.872 224.72 330.485 224.937 328.143 224.604C325.802 224.272 323.569 223.399 321.623 222.055C318.107 219.625 313.656 217.076 310.27 216.847C303.668 216.408 297.723 212.664 297.723 212.664C297.723 212.664 300.586 205.843 296.184 183.83C291.783 161.817 303.001 146.173 303.001 146.173C303.001 146.173 303.887 150.963 306.601 148.164Z" fill="black"/>
<path d="M339.319 221.243L336.68 222.125L335.111 222.647C332.868 223.397 330.48 223.613 328.138 223.281C325.796 222.948 323.564 222.075 321.618 220.73C318.107 218.306 313.651 215.751 310.265 215.522C303.673 215.079 296.204 210.239 296.204 210.239C296.204 210.239 300.606 204.518 296.204 182.506C291.803 160.493 303.026 144.868 303.026 144.868C303.026 144.868 303.912 149.633 306.626 146.83C307.644 145.753 308.718 144.729 309.842 143.763C312.094 141.916 314.161 139.853 316.011 137.604C319.093 133.62 330.535 150.808 330.535 150.808C330.535 150.808 337.576 158.73 336.7 177.661C336.605 179.652 336.565 181.704 336.56 183.78C336.495 201.496 339.319 221.243 339.319 221.243Z" fill="white"/>
<path opacity="0.1" d="M314.229 178.104L314.667 187.788C314.667 187.788 291.335 189.108 286.495 184.268C281.655 179.428 299.69 198.504 303.673 199.674C307.412 200.774 317.067 201.745 322.131 201.845C323.577 201.891 325.006 201.516 326.244 200.766C327.481 200.015 328.474 198.921 329.101 197.617C329.692 196.334 329.882 194.903 329.649 193.509C328.768 187.788 329.649 175.46 329.649 175.46L314.229 178.104Z" fill="black"/>
<path d="M314.229 177.223L314.667 186.907C314.667 186.907 291.335 188.227 286.495 183.387C281.655 178.547 264.144 179.618 264.487 183.387C264.706 185.807 276.372 193.509 283.408 193.953C290.443 194.396 299.69 197.622 303.673 198.792C307.412 199.893 317.067 200.864 322.131 200.963C323.577 201.01 325.006 200.635 326.244 199.885C327.481 199.134 328.474 198.04 329.101 196.736C329.692 195.453 329.882 194.021 329.649 192.628C328.768 186.907 329.649 174.579 329.649 174.579L314.229 177.223Z" fill="#F8BDC5"/>
<path opacity="0.1" d="M319.512 149.051C319.512 149.051 309.389 150.37 310.708 165.337C312.028 180.305 313.791 181.624 313.791 181.624C313.791 181.624 328.758 180.305 330.516 179.862C332.273 179.418 331.397 163.137 331.397 163.137C331.397 163.137 330.954 148.612 319.512 149.051Z" fill="black"/>
<path d="M319.512 148.612C319.512 148.612 309.389 149.932 310.708 164.899C312.028 179.867 313.791 181.186 313.791 181.186C313.791 181.186 328.758 179.867 330.516 179.423C332.273 178.98 331.397 162.698 331.397 162.698C331.397 162.698 330.954 148.164 319.512 148.612Z" fill="white"/>
<path opacity="0.1" d="M315.767 129.463C315.075 125.977 316.494 124.902 316.868 120.441L293.964 133.645C293.964 133.645 296.588 136.503 299.57 140.173C300.903 140.51 302.273 140.677 303.648 140.671C309.648 140.696 312.929 134.253 315.767 129.463Z" fill="black"/>
<path d="M303.22 140.248C312.215 140.248 319.507 132.956 319.507 123.961C319.507 114.966 312.215 107.674 303.22 107.674C294.225 107.674 286.933 114.966 286.933 123.961C286.933 132.956 294.225 140.248 303.22 140.248Z" fill="#F8BDC5"/>
<path opacity="0.1" d="M307.328 119.017C304.838 120.6 304.803 124.18 306.406 126.66C308.01 129.139 310.773 130.777 313.432 132.321C314.204 132.769 315.055 133.232 315.922 133.132C316.588 133.003 317.205 132.691 317.704 132.231C319.565 130.779 321.34 129.222 323.022 127.566C325.442 125.186 327.767 122.253 327.389 118.932C326.96 115.163 323.236 112.325 321.732 108.755C320.468 105.767 320.846 102.416 319.741 99.3639C318.635 96.3116 314.761 93.4885 311.864 95.0868C310.793 95.6743 310.146 96.7249 309.25 97.5166C307.029 99.4784 303.449 99.6726 300.412 98.7763C297.374 97.8801 296.473 94.2204 292.236 94.2104C294.342 94.9523 295.766 97.1481 295.442 99.1498C293.745 100.111 291.514 99.563 289.467 99.5282C287.421 99.4933 284.986 100.639 285.34 102.481C285.648 103.975 287.804 105.085 287.486 106.579C283.745 108.549 279.668 109.799 275.466 110.263C274.704 110.348 280.042 114.784 280.649 115.078C282.875 116.144 285.549 116.925 287.904 117.742C294.302 119.948 300.855 120.734 307.328 119.017Z" fill="black"/>
<path d="M307.328 118.573C304.838 120.157 304.803 123.737 306.406 126.216C308.01 128.696 310.773 130.334 313.432 131.878C314.204 132.326 315.055 132.789 315.922 132.689C316.588 132.559 317.205 132.247 317.704 131.788C319.565 130.336 321.34 128.778 323.022 127.122C325.442 124.742 327.767 121.81 327.389 118.489C326.96 114.719 323.236 111.881 321.732 108.311C320.468 105.324 320.846 101.973 319.741 98.9206C318.635 95.8684 314.761 93.0452 311.864 94.6435C310.793 95.2311 310.146 96.2817 309.25 97.0734C307.029 99.0352 303.449 99.2293 300.412 98.3331C297.374 97.4368 296.473 93.7772 292.236 93.7672C294.342 94.5091 295.766 96.7049 295.442 98.7065C293.745 99.6675 291.514 99.1198 289.467 99.0849C287.421 99.0501 284.986 100.195 285.34 102.038C285.648 103.531 287.804 104.642 287.486 106.135C283.745 108.106 279.668 109.356 275.466 109.82C274.704 109.905 280.042 114.341 280.649 114.635C282.875 115.7 285.549 116.482 287.904 117.299C294.302 119.509 300.855 120.281 307.328 118.573Z" fill="#916168"/>
<path opacity="0.1" d="M326.721 278.563C327.428 280.193 327.675 281.986 327.433 283.747C326.114 294.312 306.745 301.353 301.462 302.667C298.679 303.364 295.647 301.736 294.377 299.779C295.193 302.08 298.709 304.345 301.905 303.549C307.188 302.229 326.557 295.184 327.877 284.628C328.165 282.534 327.759 280.404 326.721 278.563Z" fill="white"/>
<path d="M186.832 290.568C186.439 289.681 184.398 287.954 174.554 287.58C167.812 287.326 165.517 283.766 164.894 280.291C167.11 280.002 168.843 279.604 169.41 279.051C169.41 279.051 169.38 278.892 169.331 278.608L169.41 278.548C168.98 276.041 168.755 273.503 168.738 270.96C168.725 268.783 168.956 266.612 169.425 264.487C169.699 263.082 169.815 261.651 169.769 260.22C169.824 251.755 166.851 236.878 166.851 236.878L166.443 224.514C166.402 222.972 165.946 221.469 165.123 220.163C164.301 218.858 163.141 217.798 161.767 217.096C160.79 216.59 159.707 216.32 158.606 216.309C158.606 216.309 143.001 213.849 128.955 212.51C127.959 211.708 124.449 209.547 116.402 210.787L111.772 197.234C111.734 197.07 111.708 196.903 111.692 196.736C111.856 195.013 113.007 192.419 118.369 192.255L119.489 193.25C119.489 193.25 119.689 192.857 120.022 192.255C126.674 192.18 162.913 191.811 164.78 192.255C166.836 192.753 184.851 188.739 185.369 188.241C192.369 181.415 164.78 184.726 164.78 184.726C162.066 185.169 153.298 184.641 144.315 183.91C148.762 177.242 152.944 154.612 152.944 154.612C152.944 154.612 168.878 146.581 164.267 142.065C159.656 137.549 145.74 152.103 145.74 152.103C145.74 152.103 140.078 168.668 137.504 173.687C136.508 175.679 135.219 176.087 134.068 175.858C134.591 175.44 134.93 175.191 134.93 175.191C134.93 175.191 123.607 166.154 122.577 162.644C122.385 162.069 122.131 161.516 121.82 160.996C121.277 157.814 120.326 154.682 118.006 152.596C117.616 152.177 117.186 151.799 116.721 151.465C116.094 151.017 115.382 150.629 114.789 150.141C115.123 148.607 115.511 147.014 115.914 145.471C124.319 144.475 130.852 137.504 130.852 129.039C130.851 127.763 130.699 126.491 130.399 125.25C131.655 125.333 132.911 125.089 134.045 124.543C135.179 123.997 136.153 123.167 136.872 122.133C138.57 119.604 138.515 116.158 137.091 113.49C136.502 112.406 135.731 111.432 134.81 110.612C133.343 109.134 131.554 108.016 129.582 107.345C127.874 106.753 125.987 106.399 124.633 105.239C124.028 104.448 123.477 103.616 122.985 102.75C122.416 101.899 121.748 101.12 120.993 100.429C118.504 97.865 114.988 96.2866 111.408 95.5895C107.047 94.7381 102.54 95.0418 98.1041 95.3455C96.446 95.4601 94.4992 95.7538 93.7523 97.1978C93.1896 98.2832 93.5581 99.5828 93.4834 100.793C93.2494 104.642 88.8478 106.768 85.0189 107.699C81.1899 108.63 76.624 109.437 74.7768 112.812C73.0988 115.86 74.2789 119.554 74.8166 122.975C75.7122 128.981 74.3786 135.107 71.0673 140.198C69.3844 142.772 67.2135 145.062 65.884 147.826C64.4112 150.906 64.0693 154.407 64.9181 157.714C65.167 158.68 65.5255 159.666 65.3463 160.652C65.1425 161.465 64.7425 162.215 64.1812 162.838C61.8916 165.665 59.0421 167.988 55.8118 169.662C52.5814 171.335 49.04 172.323 45.4098 172.562C45.7147 173.573 46.3104 174.472 47.1226 175.146C48.1545 176.167 49.3579 176.998 50.6777 177.601C54.1547 179.345 57.811 180.705 61.5821 181.659C64.1214 182.301 66.7753 182.759 69.3595 182.321C71.9436 181.883 74.4631 180.404 75.5237 178.064C76.1411 176.71 76.2307 175.176 76.7784 173.797C77.8688 171.038 80.5725 169.251 82.3998 166.886C81.7845 172.98 81.4936 179.104 81.5285 185.229C81.5285 187.146 81.5285 188.874 81.5285 190.477C81.5285 197.393 81.0306 202.163 76.7435 210.802C76.2326 211.71 76.0087 212.752 76.1012 213.789C76.008 214.35 76.0623 214.925 76.2587 215.459C76.4551 215.992 76.7869 216.465 77.2215 216.832C76.9227 218.555 76.7778 220.301 76.7883 222.05C76.7286 228.343 78.8547 236.793 90.1275 238.934L110.198 237.938C110.198 237.938 138.505 232.416 146.222 236.444C146.859 236.58 147.431 236.93 147.841 237.435C148.252 237.941 148.476 238.572 148.478 239.223C148.454 239.641 148.389 240.057 148.284 240.463C148.069 241.767 147.987 243.09 148.04 244.411C148.005 252.876 149.827 272.085 149.827 272.085V280.231C148.543 282.163 146.959 285.021 147.164 287.127C147.164 287.172 147.164 287.222 147.164 287.267C147.164 287.311 147.164 287.391 147.193 287.451C147.223 287.511 147.193 287.56 147.228 287.615C147.263 287.67 147.258 287.72 147.273 287.774C147.288 287.829 147.313 287.894 147.338 287.949C147.363 288.004 147.373 288.038 147.393 288.083C147.413 288.128 147.457 288.213 147.492 288.272L147.552 288.377C147.612 288.473 147.678 288.564 147.751 288.651C150.325 291.638 163.186 297.419 167.309 297.185C171.686 296.936 186.349 297.683 186.867 291.16C186.933 290.966 186.92 290.753 186.832 290.568Z" fill="url(#paint1_linear)"/>
<path d="M150.246 277.961C150.246 277.961 144.271 285.429 146.76 288.417C149.25 291.404 161.698 297.115 165.681 296.881C169.913 296.632 184.104 297.379 184.602 290.906C184.602 290.906 185.598 287.919 172.652 287.421C159.706 286.923 163.689 273.479 163.689 273.479L150.246 277.961Z" fill="#594C76"/>
<path opacity="0.1" d="M79.0439 215.223C79.0439 215.223 73.0689 235.638 90.9938 239.123L110.412 238.127C110.412 238.127 137.798 232.65 145.266 236.634C145.266 236.634 148.254 237.132 147.258 241.115C146.262 245.098 148.752 271.986 148.752 271.986V280.948C148.752 280.948 165.681 280.948 167.673 278.956C167.673 278.956 166.179 270.99 167.673 264.517C169.166 258.044 165.183 237.63 165.183 237.63L164.79 225.341C164.761 223.823 164.327 222.339 163.534 221.044C162.741 219.749 161.618 218.688 160.279 217.972C159.336 217.472 158.288 217.206 157.221 217.195C157.221 217.195 123.363 211.718 111.413 212.714C99.4634 213.71 79.0439 215.223 79.0439 215.223Z" fill="black"/>
<path d="M79.0439 214.725C79.0439 214.725 73.0689 235.14 90.9938 238.625L110.412 237.63C110.412 237.63 137.798 232.152 145.266 236.136C145.266 236.136 148.254 236.634 147.258 240.617C146.262 244.6 148.752 271.488 148.752 271.488V280.45C148.752 280.45 165.681 280.45 167.673 278.458C167.673 278.458 166.179 270.492 167.673 264.019C169.166 257.546 165.183 237.132 165.183 237.132L164.79 224.843C164.761 223.325 164.327 221.842 163.534 220.546C162.741 219.251 161.618 218.191 160.279 217.474C159.336 216.974 158.288 216.708 157.221 216.697C157.221 216.697 123.363 211.22 111.413 212.216C99.4634 213.212 79.0439 214.725 79.0439 214.725Z" fill="#8B9CD1"/>
<path d="M130.329 174.394C130.329 174.394 134.312 179.374 136.802 174.394C139.291 169.415 144.769 152.984 144.769 152.984C144.769 152.984 158.212 138.545 162.693 143.026C167.175 147.507 151.739 155.474 151.739 155.474C151.739 155.474 146.262 185.846 141.283 186.344C136.304 186.842 128.835 186.344 128.835 186.344L126.346 180.867L130.329 174.394Z" fill="#F8BDC5"/>
<path opacity="0.05" d="M130.329 174.394C130.329 174.394 134.312 179.374 136.802 174.394C139.291 169.415 144.769 152.984 144.769 152.984C144.769 152.984 158.212 138.545 162.693 143.026C167.175 147.507 151.739 155.474 151.739 155.474C151.739 155.474 146.262 185.846 141.283 186.344C136.304 186.842 128.835 186.344 128.835 186.344L126.346 180.867L130.329 174.394Z" fill="black"/>
<path d="M112.404 149.499C112.404 149.499 121.367 159.955 122.362 163.44C123.358 166.926 134.312 175.888 134.312 175.888C134.312 175.888 126.346 181.863 127.839 184.851C129.333 187.838 117.383 174.892 117.383 174.892L103.442 154.478L112.404 149.499Z" fill="#EB6475"/>
<path opacity="0.1" d="M112.404 149.499C112.404 149.499 121.367 159.955 122.362 163.44C123.358 166.926 134.312 175.888 134.312 175.888C134.312 175.888 126.346 181.863 127.839 184.851C129.333 187.838 117.383 174.892 117.383 174.892L103.442 154.478L112.404 149.499Z" fill="black"/>
<path d="M118.379 137.549C118.379 137.549 113.898 151.988 113.898 157.465C113.898 162.942 94.9771 155.972 95.4751 152.984C95.973 149.997 106.429 139.043 106.927 134.561C107.425 130.08 118.379 137.549 118.379 137.549Z" fill="#F8BDC5"/>
<path opacity="0.1" d="M103.442 147.507C103.442 147.507 86.0147 143.026 83.5251 168.42C81.0355 193.813 85.5168 196.801 78.0481 212.236C70.5793 227.671 128.835 214.228 128.835 214.228C128.835 214.228 125.848 210.742 116.387 212.236L111.906 198.792C111.906 198.792 110.412 192.817 118.877 192.817C127.342 192.817 123.358 175.39 123.358 175.39C123.358 175.39 118.877 160.453 116.387 158.959C113.898 157.465 109.417 148.503 103.442 147.507Z" fill="black"/>
<path d="M103.442 146.511C103.442 146.511 86.0147 142.03 83.5251 167.424C81.0355 192.817 85.5168 195.805 78.0481 211.24C70.5793 226.675 128.835 213.232 128.835 213.232C128.835 213.232 125.848 209.746 116.387 211.24L111.906 197.796C111.906 197.796 110.412 191.821 118.877 191.821C127.342 191.821 123.358 174.394 123.358 174.394C123.358 174.394 118.877 159.457 116.387 157.963C113.898 156.47 109.417 147.507 103.442 146.511Z" fill="#EB6475"/>
<path d="M120.869 182.361C120.869 182.361 157.216 186.344 163.191 185.349C163.191 185.349 189.88 182.062 183.108 188.834C182.61 189.332 165.183 193.315 163.191 192.817C161.2 192.319 118.877 192.817 118.877 192.817L118.379 187.838L120.869 182.361Z" fill="#F8BDC5"/>
<path opacity="0.1" d="M92.9855 169.913L119.375 193.813C119.375 193.813 124.354 183.855 125.848 183.855C127.342 183.855 107.923 154.478 107.923 154.478C107.923 154.478 102.944 148.503 99.9563 151.49C96.9688 154.478 88.0064 152.486 92.9855 169.913Z" fill="black"/>
<path d="M92.4876 168.917L118.877 192.817C118.877 192.817 123.856 182.859 125.35 182.859C126.844 182.859 107.425 153.482 107.425 153.482C107.425 153.482 102.446 147.507 99.4584 150.495C96.4709 153.482 87.5084 151.49 92.4876 168.917Z" fill="#EB6475"/>
<path d="M113.898 146.511C122.973 146.511 130.329 139.155 130.329 130.08C130.329 121.005 122.973 113.649 113.898 113.649C104.823 113.649 97.4667 121.005 97.4667 130.08C97.4667 139.155 104.823 146.511 113.898 146.511Z" fill="#F8BDC5"/>
<path opacity="0.1" d="M128.288 125.952C131.076 127.053 134.492 125.733 136.135 123.229C137.778 120.724 137.728 117.314 136.344 114.655C134.96 111.996 132.4 110.064 129.577 109.058C127.864 108.451 125.957 108.102 124.643 106.847C123.811 106.056 123.318 104.985 122.696 104.019C120.371 100.395 116.223 98.2535 112.006 97.412C107.788 96.5705 103.427 96.8693 99.1347 97.168C97.5314 97.2825 95.6493 97.5713 94.9224 99.0053C94.3797 100.081 94.7332 101.37 94.6635 102.57C94.4394 106.389 90.1822 108.506 86.4628 109.422C82.7434 110.338 78.4315 111.199 76.619 114.565C74.9958 117.587 76.156 121.252 76.6589 124.648C77.5189 130.579 76.2335 136.623 73.0341 141.692C71.4059 144.246 69.3097 146.516 68.0201 149.26C66.5935 152.326 66.2631 155.788 67.084 159.069C67.328 160.03 67.6715 161.006 67.5022 161.982C67.3071 162.784 66.9211 163.527 66.377 164.147C64.1948 166.94 61.4511 169.243 58.3232 170.908C55.1953 172.574 51.7528 173.565 48.218 173.817C48.7856 175.953 50.852 177.302 52.8187 178.298C56.1748 180.024 59.7116 181.374 63.3646 182.321C65.8193 182.959 68.3885 183.412 70.8881 182.979C73.3876 182.545 75.8224 181.077 76.863 178.756C77.4605 177.412 77.5502 175.893 78.0779 174.519C79.268 171.437 82.4397 169.575 84.1425 166.742C85.7707 164.033 86.4031 163.714 86.8163 160.587C87.2296 157.46 88.1408 154.085 90.71 152.247C93.3988 150.32 97.1829 150.689 100.17 152.168C103.158 153.646 105.005 153.069 107.5 155.24C111.876 159.041 116.773 162.197 122.044 164.61C121.546 160.269 120.744 155.424 117.219 152.84C116.223 152.098 114.963 151.53 114.436 150.395C113.594 148.588 115.033 146.382 114.381 144.495C113.729 142.608 111.249 141.911 110.149 140.198C109.213 138.744 109.466 136.767 110.343 135.273C111.219 133.78 112.603 132.674 113.983 131.629C115.207 130.703 116.449 129.798 117.707 128.915C118.844 128.194 119.864 127.304 120.734 126.276C121.232 125.594 121.561 124.1 122.253 123.617C123.996 122.412 126.674 125.32 128.288 125.952Z" fill="black"/>
<path d="M127.79 125.455C130.578 126.555 133.994 125.235 135.637 122.731C137.28 120.226 137.23 116.816 135.846 114.157C134.462 111.498 131.902 109.566 129.079 108.56C127.366 107.953 125.459 107.604 124.145 106.35C123.313 105.558 122.82 104.487 122.198 103.521C119.873 99.8966 115.725 97.7556 111.508 96.9141C107.291 96.0726 102.929 96.3713 98.6368 96.6701C97.0335 96.7846 95.1514 97.0734 94.4244 98.5074C93.8817 99.5829 94.2352 100.872 94.1655 102.072C93.9415 105.891 89.6843 108.008 85.9649 108.924C82.2455 109.84 77.9335 110.701 76.1211 114.067C74.4979 117.09 75.6581 120.754 76.161 124.15C77.0209 130.082 75.7355 136.125 72.5361 141.194C70.908 143.748 68.8117 146.018 67.5221 148.762C66.0956 151.828 65.7651 155.29 66.5861 158.571C66.83 159.532 67.1736 160.508 67.0043 161.484C66.8092 162.286 66.4231 163.029 65.879 163.65C63.6969 166.442 60.9532 168.745 57.8253 170.411C54.6974 172.076 51.2548 173.067 47.7201 173.319C48.2877 175.455 50.3541 176.804 52.3208 177.8C55.6769 179.526 59.2137 180.876 62.8666 181.823C65.3214 182.461 67.8906 182.914 70.3901 182.481C72.8897 182.047 75.3245 180.579 76.3651 178.258C76.9626 176.914 77.0522 175.395 77.58 174.021C78.77 170.939 81.9417 169.077 83.6446 166.244C85.2728 163.535 85.9051 163.216 86.3184 160.089C86.7317 156.963 87.6429 153.587 90.2121 151.749C92.9008 149.822 96.685 150.191 99.6725 151.67C102.66 153.149 104.507 152.571 107.002 154.742C111.378 158.543 116.276 161.699 121.546 164.113C121.048 159.771 120.246 154.926 116.721 152.342C115.725 151.6 114.465 151.032 113.938 149.897C113.096 148.09 114.535 145.884 113.883 143.997C113.231 142.11 110.751 141.413 109.651 139.7C108.715 138.246 108.969 136.269 109.845 134.775C110.721 133.282 112.105 132.176 113.485 131.131C114.709 130.205 115.951 129.3 117.209 128.417C118.346 127.696 119.367 126.806 120.236 125.778C120.734 125.096 121.063 123.602 121.755 123.119C123.498 121.914 126.176 124.822 127.79 125.455Z" fill="#916168"/>
<g opacity="0.1">
<path opacity="0.1" d="M163.122 277.403C163.159 276.078 163.35 274.761 163.689 273.479L163.44 273.564C163.192 274.828 163.085 276.116 163.122 277.403Z" fill="white"/>
<path opacity="0.1" d="M165.681 295.886C161.698 296.12 149.25 290.409 146.76 287.421C146.433 287.017 146.232 286.525 146.183 286.007C146.11 286.427 146.123 286.857 146.223 287.272C146.322 287.686 146.505 288.076 146.76 288.417C149.25 291.404 161.698 297.116 165.681 296.881C169.913 296.633 184.104 297.379 184.602 290.907C184.639 290.728 184.614 290.542 184.532 290.379C183.392 296.344 169.809 295.642 165.681 295.886Z" fill="white"/>
</g>
<path d="M185.847 147.258H185.349V167.673H185.847V147.258Z" fill="#FFD77C" stroke="#FFAB50" stroke-width="0.25" stroke-miterlimit="10"/>
<path d="M186.344 147.258H185.846V167.673H186.344V147.258Z" fill="#FFD77C" stroke="#FFAB50" stroke-width="0.25" stroke-miterlimit="10"/>
<path d="M186.842 147.258H186.344V167.673H186.842V147.258Z" fill="#FFD77C" stroke="#FFAB50" stroke-width="0.25" stroke-miterlimit="10"/>
<path d="M187.34 147.258H186.842V167.673H187.34V147.258Z" fill="#FFD77C" stroke="#FFAB50" stroke-width="0.25" stroke-miterlimit="10"/>
<path d="M187.838 147.258H187.34V167.673H187.838V147.258Z" fill="#FFD77C" stroke="#FFAB50" stroke-width="0.25" stroke-miterlimit="10"/>
<path d="M188.336 147.258H187.838V167.673H188.336V147.258Z" fill="#FFD77C" stroke="#FFAB50" stroke-width="0.25" stroke-miterlimit="10"/>
<path d="M188.834 147.258H188.336V167.673H188.834V147.258Z" fill="#FFD77C" stroke="#FFAB50" stroke-width="0.25" stroke-miterlimit="10"/>
</g>
<defs>
<linearGradient id="paint0_linear" x1="292.719" y1="305.097" x2="292.719" y2="92.4875" gradientUnits="userSpaceOnUse">
<stop stop-color="#808080" stop-opacity="0.25"/>
<stop offset="0.54" stop-color="#808080" stop-opacity="0.12"/>
<stop offset="1" stop-color="#808080" stop-opacity="0.1"/>
</linearGradient>
<linearGradient id="paint1_linear" x1="54016" y1="145281" x2="54016" y2="63204.7" gradientUnits="userSpaceOnUse">
<stop stop-color="#808080" stop-opacity="0.25"/>
<stop offset="0.54" stop-color="#808080" stop-opacity="0.12"/>
<stop offset="1" stop-color="#808080" stop-opacity="0.1"/>
</linearGradient>
<clipPath id="clip0">
<rect width="450" height="327.199" fill="white"/>
</clipPath>
</defs>
</svg>
