<svg width="248" height="400" viewBox="0 0 248 400" fill="none" xmlns="http://www.w3.org/2000/svg">
<mask id="mask0" mask-type="alpha" maskUnits="userSpaceOnUse" x="0" y="0" width="248" height="400">
<rect width="248" height="400" fill="url(#paint0_linear)"/>
</mask>
<g mask="url(#mask0)">
<path fill-rule="evenodd" clip-rule="evenodd" d="M212.373 0H40.4615C20.1854 0 3.74825 13.1497 3.74825 29.3706L3.74825 53.6131C2.78272 53.6131 2 54.3958 2 55.3614V66.7833C2 67.7488 2.78272 68.5315 3.74825 68.5315V82.5174C2.78272 82.5174 2 83.3001 2 84.2657V109.674C2 110.639 2.78272 111.422 3.74825 111.422V118.881C2.78272 118.881 2 119.664 2 120.629V146.037C2 147.003 2.78272 147.786 3.74825 147.786L3.74825 370.629C3.74825 386.85 20.1854 400 40.4615 400H212.373C232.649 400 249.086 386.85 249.086 370.629V138.462C250.052 138.461 250.834 137.679 250.834 136.713V93.5897C250.834 92.6243 250.052 91.8416 249.086 91.8415V29.3706C249.086 13.1497 232.649 0 212.373 0ZM6.662 29.3706C6.662 14.4371 21.7946 2.331 40.4615 2.331H212.373C231.04 2.331 246.172 14.4371 246.172 29.3706V370.629C246.172 385.563 231.04 397.669 212.373 397.669H40.4615C21.7946 397.669 6.662 385.563 6.662 370.629V29.3706Z" fill="#AABBCC"/>
<mask id="mask1" mask-type="alpha" maskUnits="userSpaceOnUse" x="17" y="10" width="219" height="380">
<path d="M212.373 389.277H40.4614C27.5826 389.277 17.1514 380.932 17.1514 370.629V29.3707C17.1514 19.0676 27.5826 10.7227 40.4614 10.7227H212.373C225.252 10.7227 235.683 19.0676 235.683 29.3707V370.629C235.683 380.932 225.252 389.277 212.373 389.277Z" fill="white"/>
</mask>
<g mask="url(#mask1)">
<rect x="17.1514" y="10.7227" width="218.531" height="378.555" fill="url(#paint1_linear)"/>
</g>
<path fill-rule="evenodd" clip-rule="evenodd" d="M235.683 29.3705C235.683 19.0675 225.252 10.7225 212.373 10.7225H191.685C189.111 10.7225 187.023 12.3923 187.023 14.4521V14.9183C187.023 20.606 181.312 25.1747 174.203 25.1747H78.6318C71.5222 25.1747 65.8113 20.606 65.8113 14.9183V14.4521C65.8113 12.3923 63.724 10.7225 61.1493 10.7225H40.4616C27.5829 10.7225 17.1516 19.0675 17.1516 29.3705V370.629C17.1516 380.932 27.5829 389.277 40.4616 389.277H212.373C225.252 389.277 235.683 380.932 235.683 370.629V29.3705ZM40.4616 2.33089H212.373C231.021 2.33089 246.173 14.4521 246.173 29.3705V370.629C246.173 385.548 231.021 397.669 212.373 397.669H40.4616C21.8136 397.669 6.66211 385.548 6.66211 370.629V29.3705C6.66211 14.4521 21.8136 2.33089 40.4616 2.33089Z" fill="#333333"/>
<path opacity="0.6" fill-rule="evenodd" clip-rule="evenodd" d="M87.6641 383.217C87.6641 382.573 88.3163 382.051 89.1209 382.051H164.296C165.1 382.051 165.753 382.573 165.753 383.217C165.753 383.86 165.1 384.382 164.296 384.382H89.1209C88.3163 384.382 87.6641 383.86 87.6641 383.217Z" fill="#333333"/>
<path d="M156.721 14.9183C156.721 16.7206 154.894 18.1817 152.642 18.1817C150.389 18.1817 148.562 16.7206 148.562 14.9183C148.562 13.116 150.389 11.6549 152.642 11.6549C154.894 11.6549 156.721 13.116 156.721 14.9183Z" fill="#4F4F4F"/>
<path d="M113.306 13.5197C112.34 13.5197 111.558 14.1459 111.558 14.9183C111.558 15.6907 112.34 16.3169 113.306 16.3169H138.947C139.912 16.3169 140.695 15.6907 140.695 14.9183C140.695 14.1459 139.912 13.5197 138.947 13.5197H113.306Z" fill="#4F4F4F"/>
</g>
<defs>
<linearGradient id="paint0_linear" x1="124" y1="0" x2="124" y2="400" gradientUnits="userSpaceOnUse">
<stop offset="0.71875" stop-color="#C4C4C4"/>
<stop offset="0.9375" stop-color="#C4C4C4" stop-opacity="0"/>
</linearGradient>
<linearGradient id="paint1_linear" x1="235.683" y1="10.7227" x2="86.3739" y2="414.852" gradientUnits="userSpaceOnUse">
<stop stop-color="white"/>
<stop offset="1" stop-color="#3195A3"/>
</linearGradient>
</defs>
</svg>
