<svg width="200" height="215" viewBox="0 0 200 215" fill="none" xmlns="http://www.w3.org/2000/svg">
<g clip-path="url(#clip0)">
<path d="M200 214.598H39.8796V214.899H200V214.598Z" fill="#3C354C"/>
<path d="M89.5019 97.2853C89.4658 95.7804 89.0444 94.5193 88.4395 93.824L87.9609 95.7111V93.4448C87.7509 93.3159 87.5051 93.2579 87.2596 93.2792C86.0828 93.3876 85.1738 95.365 85.228 97.6946C85.2822 100.024 86.2814 101.827 87.4583 101.719C88.6351 101.61 89.5561 99.6239 89.5019 97.2853Z" fill="#57B894"/>
<path opacity="0.1" d="M89.2161 98.4198C88.7224 98.5281 88.2439 98.8321 87.7503 98.8923C87.2567 98.9525 86.7149 98.7177 86.4049 97.9563C86.2364 97.5469 86.1521 97.0292 86.0106 96.5808C85.9013 96.2144 85.7179 95.8743 85.4719 95.5815C85.2999 96.2701 85.223 96.979 85.2431 97.6884C85.2973 100.018 86.2966 101.818 87.4734 101.709C88.4606 101.619 89.2582 100.205 89.4568 98.3806C89.3759 98.389 89.2955 98.4021 89.2161 98.4198V98.4198Z" fill="black"/>
<path d="M187.284 81.7274C186.23 80.671 185.047 80.0389 184.129 79.9517L185.072 81.6371L183.521 79.9848C183.281 80.0363 183.063 80.1628 182.898 80.3459C182.119 81.2489 182.823 83.2955 184.47 84.9479C186.116 86.6002 188.081 87.2173 188.858 86.3264C189.634 85.4355 188.921 83.3708 187.284 81.7274Z" fill="#57B894"/>
<path opacity="0.1" d="M187.844 82.7419C187.561 83.1573 187.422 83.7081 187.106 84.0903C186.79 84.4726 186.236 84.6772 185.487 84.3432C185.081 84.1626 184.662 83.8435 184.253 83.6178C183.921 83.4255 183.553 83.3036 183.172 83.2596C183.523 83.8783 183.957 84.4463 184.461 84.9481C186.107 86.6005 188.072 87.2175 188.849 86.3266C189.499 85.5802 189.108 84.0121 187.994 82.5493C187.939 82.6095 187.889 82.6739 187.844 82.7419Z" fill="black"/>
<path d="M109.911 87.8855L104.728 84.8757C104.728 84.8757 92.2016 83.1481 93.9292 77.1015C95.6568 71.0548 104.298 77.1015 104.298 77.1015L109.911 80.963V87.8855Z" fill="#FFC1C7"/>
<path opacity="0.1" d="M109.911 87.8855L104.728 84.8757C104.728 84.8757 92.2016 83.1481 93.9292 77.1015C95.6568 71.0548 104.298 77.1015 104.298 77.1015L109.911 80.963V87.8855Z" fill="black"/>
<path d="M128.915 57.2189C128.915 57.2189 116.391 66.2904 116.391 63.2655C116.391 61.4597 114.206 55.8825 112.46 51.732C111.305 48.9811 110.354 46.8532 110.354 46.8532L123.296 43.3979C122.898 45.4914 122.947 47.6454 123.44 49.7185C124.203 52.8433 126.171 55.5395 128.915 57.2189V57.2189Z" fill="#FFC1C7"/>
<path d="M103.01 134.218C103.01 134.218 93.0775 156.247 96.5298 164.452C96.5298 164.452 85.7337 197.279 82.2785 198.573C78.8232 199.868 90.9165 202.029 90.9165 202.029C90.9165 202.029 105.162 183.025 106.02 167.907C106.877 152.789 122.438 137.246 122.438 137.246L103.01 134.218Z" fill="#FFC1C7"/>
<path d="M125.884 143.169C125.884 143.169 131.497 161.312 138.841 166.495C138.841 166.495 153.959 191.545 151.783 199.32C151.783 199.32 160.421 200.617 160.855 199.32C160.855 199.32 156.966 172.108 147.464 161.312C137.962 150.516 142.306 137.547 142.306 137.547L125.884 143.169Z" fill="#FFC1C7"/>
<path d="M87.8827 199.007C87.8827 199.007 82.6998 194.688 78.8142 198.143C74.9286 201.598 68.0151 200.734 62.8323 199.007C57.6494 197.279 58.0828 201.598 70.1761 207.211C82.2694 212.825 89.1799 214.134 89.1799 214.134C89.1799 214.134 90.9075 207.211 90.9075 205.496C90.9075 203.78 91.982 200.539 91.982 200.539L87.8827 199.007Z" fill="#F2F2F2"/>
<path d="M156.126 198.456C156.126 198.456 150.944 195.446 150.08 201.047C149.216 206.649 136.689 210.119 136.689 210.119C136.689 210.119 130.643 215.732 149.216 213.995C167.789 212.259 166.492 208.813 166.492 208.813L160.611 197.634L156.126 198.456Z" fill="#F2F2F2"/>
<path d="M109.911 114.233C109.911 114.233 96.5207 133.237 101.704 135.395C106.886 137.553 106.456 131.939 111.636 137.986C116.816 144.033 130.209 140.996 131.937 139.714C133.664 138.431 137.983 132.791 141.439 133.237C144.894 133.682 135.816 111.208 135.816 111.208L109.911 114.233Z" fill="#3F3D56"/>
<path opacity="0.1" d="M122.272 47.8554C120.424 49.58 119.118 52.5056 116.391 52.5056C115.043 52.5076 113.707 52.2448 112.46 51.732C111.305 48.9811 110.354 46.8532 110.354 46.8532L123.296 43.3979C122.874 45.872 121.83 46.0977 122.272 47.8554Z" fill="black"/>
<path d="M116.391 51.603C122.116 51.603 126.757 46.9621 126.757 41.2373C126.757 35.5125 122.116 30.8716 116.391 30.8716C110.666 30.8716 106.026 35.5125 106.026 41.2373C106.026 46.9621 110.666 51.603 116.391 51.603Z" fill="#FFC1C7"/>
<path d="M122.438 55.9248C122.438 55.9248 117.959 60.4696 115.88 60.7886C113.8 61.1077 106.02 74.4952 108.184 85.2943C110.348 96.0934 105.592 118.552 107.753 119.847C109.914 121.141 144.473 115.097 144.473 115.097L122.438 55.9248Z" fill="#F2F2F2"/>
<path d="M126.757 53.7636C126.757 53.7636 118.983 51.1721 116.391 64.993C113.8 78.814 110.345 67.1541 110.345 84.8576C110.345 102.561 109.047 109.047 111.208 124.162C113.369 139.277 115.094 139.28 112.503 144.463C109.911 149.646 140.144 148.352 147.488 138.417C154.832 128.481 145.327 91.3377 141.442 85.7214C137.556 80.1052 137.553 62.832 134.519 58.513C133.613 57.2386 132.458 56.1609 131.124 55.3446C129.79 54.5284 128.304 53.9906 126.757 53.7636V53.7636Z" fill="#00BFA6"/>
<path d="M126.525 138.305L122.7 133.52L110.489 75.2445L118.697 59.9248C119.39 58.6297 120.387 57.5219 121.602 56.6963C122.817 55.8707 124.214 55.3519 125.673 55.1844C127.125 55.0059 128.597 55.187 129.962 55.7119C131.327 56.2368 132.541 57.0892 133.499 58.1941C145.379 71.7201 151.341 113.661 151.588 115.44L151.612 115.609L150.408 118.742L144.087 132.909L126.525 138.305ZM123.904 132.954L126.986 136.807L143.13 131.828L149.198 118.23L150.278 115.44C149.851 112.497 143.78 71.8495 132.521 59.0339C131.689 58.0937 130.643 57.3687 129.471 56.9206C128.299 56.4726 127.035 56.3149 125.789 56.461C124.543 56.6071 123.35 57.0526 122.313 57.7595C121.276 58.4665 120.426 59.4138 119.835 60.5207L111.853 75.4281L123.904 132.954Z" fill="#2F2E41"/>
<path d="M100.409 80.1114L89.1859 70.1279C89.0649 70.0192 88.987 69.8706 88.9666 69.7092C88.9461 69.5479 88.9844 69.3845 89.0745 69.2491L89.213 69.0384C89.261 68.9635 89.3251 68.9003 89.4006 68.8531C89.476 68.806 89.561 68.7762 89.6494 68.7658C89.7377 68.7555 89.8273 68.7648 89.9116 68.7932C89.9959 68.8216 90.0729 68.8683 90.137 68.93L100.37 78.4108C100.488 78.5178 100.583 78.6476 100.649 78.7923C100.715 78.937 100.751 79.0937 100.754 79.2527C100.758 79.4117 100.729 79.5699 100.67 79.7175C100.611 79.8651 100.522 79.9991 100.409 80.1114V80.1114Z" fill="#00BFA6"/>
<path d="M100.409 80.1116L89.1859 70.1281C89.0649 70.0194 88.987 69.8708 88.9666 69.7094C88.9461 69.548 88.9844 69.3847 89.0745 69.2493L89.213 69.0386L100.382 79.0551C100.456 79.1211 100.516 79.2015 100.557 79.2913C100.599 79.3811 100.622 79.4785 100.624 79.5775C100.627 79.6765 100.609 79.7749 100.572 79.8667C100.535 79.9586 100.48 80.0419 100.409 80.1116V80.1116Z" fill="#192534"/>
<path d="M133.667 82.2693C133.667 82.2693 117.685 80.9751 114.664 75.3468C111.642 69.7186 103.865 72.7554 106.026 75.3468C108.187 77.9383 107.753 83.9849 113.8 84.4183C119.846 84.8517 134.962 87.8856 134.962 87.8856L133.667 82.2693Z" fill="#FFC1C7"/>
<path d="M150.944 115.527C150.944 115.527 140.144 116.391 137.553 127.621C134.962 138.85 123.302 133.237 123.302 133.237C123.302 133.237 122.004 162.606 141.008 155.265C160.012 147.925 164.334 134.101 164.334 132.373C164.334 130.645 151.377 120.28 150.944 115.527Z" fill="#2F2E41"/>
<path opacity="0.1" d="M124.165 135.395C124.165 135.395 135.816 141.011 138.417 129.782C140.885 119.085 150.79 117.794 151.729 117.694C151.324 117.032 151.057 116.295 150.944 115.527C150.944 115.527 140.144 116.391 137.553 127.621C134.962 138.85 123.302 133.237 123.302 133.237C123.302 133.237 122.88 142.823 126.062 149.673C123.825 143.133 124.165 135.395 124.165 135.395Z" fill="black"/>
<path opacity="0.1" d="M164.241 133.033C164.292 132.819 164.323 132.601 164.334 132.382C164.334 130.905 154.85 123.1 151.84 117.902C152.479 121.917 161.291 129.577 164.241 133.033Z" fill="black"/>
<path d="M103.01 33.9654C102.408 35.8556 104.355 37.7668 106.32 37.9654C108.286 38.1641 110.191 37.222 111.991 36.3793C113.791 35.5365 115.801 34.7479 117.725 35.2596C119.831 35.8164 121.234 37.7758 122.17 39.7321C122.987 41.4433 123.583 43.2518 123.943 45.1136C124.328 47.1061 124.506 49.2972 125.875 50.8021C127.244 52.307 129.517 52.7133 131.594 52.7043C133.67 52.6953 135.771 52.4033 137.773 52.915C141.746 53.9504 144.205 57.9082 145.622 61.7517C147.04 65.5952 147.892 69.7818 150.459 72.9812C152.599 75.6539 155.72 77.3484 158.847 78.754C160.424 79.4613 162.059 80.1204 163.78 80.2829C165.502 80.4455 167.35 80.0452 168.596 78.8653C170.001 77.547 170.453 75.5365 170.835 73.6524C171.392 70.9195 171.949 68.1114 171.488 65.3574C170.886 61.7457 168.566 58.5704 168.033 54.9436C167.515 51.4161 168.734 47.8556 168.611 44.292C168.403 38.3266 164.012 32.7344 158.254 31.1001C156.147 30.4981 153.935 30.3898 151.913 29.5952C149.276 28.5448 147.244 26.4319 145.089 24.5869C139.939 20.1872 133.789 17.1151 127.178 15.6388C122.742 14.6546 117.493 14.6396 114.357 17.9173C113.083 19.2506 112.25 21.0534 110.624 21.9443C109.791 22.4048 108.834 22.5704 107.937 22.8804C103.506 24.4033 100.96 29.9233 102.679 34.2694" fill="#2F2E41"/>
<path opacity="0.1" d="M166.387 75.9638C164.665 75.8012 163.031 75.1421 161.454 74.4348C158.326 73.0292 155.208 71.3347 153.065 68.662C150.498 65.4626 149.643 61.279 148.229 57.4325C146.814 53.586 144.352 49.6312 140.379 48.5958C138.378 48.0721 136.268 48.3761 134.2 48.3851C132.132 48.3942 129.881 48.0119 128.481 46.4829C127.082 44.954 126.934 42.7869 126.549 40.7944C126.19 38.9325 125.594 37.124 124.776 35.413C123.84 33.4566 122.432 31.5002 120.331 30.9404C118.408 30.4288 116.397 31.2173 114.597 32.0601C112.798 32.9028 110.907 33.8449 108.927 33.6462C106.946 33.4476 105.014 31.5394 105.616 29.6462L105.315 29.9472C104.668 28.2444 104.596 26.3764 105.111 24.6289C102.561 27.0217 101.421 30.9795 102.721 34.2602L103.022 33.9592C102.42 35.8494 104.367 37.7606 106.332 37.9592C108.298 38.1579 110.203 37.2158 112.003 36.3731C113.803 35.5303 115.813 34.7418 117.737 35.2534C119.843 35.8103 121.246 37.7696 122.182 39.726C122.999 41.4372 123.595 43.2456 123.955 45.1075C124.34 47.0999 124.518 49.2911 125.887 50.796C127.257 52.3008 129.529 52.7072 131.606 52.6981C133.682 52.6891 135.783 52.3972 137.785 52.9088C141.758 53.9442 144.217 57.9021 145.634 61.7455C147.052 65.589 147.904 69.7756 150.471 72.975C152.611 75.6477 155.732 77.3423 158.859 78.7478C160.436 79.4551 162.071 80.1143 163.792 80.2768C165.514 80.4393 167.362 80.039 168.608 78.8592C169.667 77.866 170.185 76.4754 170.54 75.0428C169.296 75.8008 167.835 76.1248 166.387 75.9638Z" fill="black"/>
<path d="M122.438 59.8107C122.438 59.8107 121.141 69.3126 125.893 71.4736C130.646 73.6346 134.098 80.9634 134.098 80.9634L130.212 81.8272C130.212 81.8272 128.915 87.8739 132.37 89.6015C135.826 91.3291 145.327 89.6015 145.327 89.6015C145.327 89.6015 149.649 87.4405 146.191 80.53C142.733 73.6196 132.807 58.5165 132.807 58.5165C132.807 58.5165 127.621 52.9002 122.438 59.8107Z" fill="#00BFA6"/>
<path d="M123.702 44.5024C124.851 44.5024 125.782 43.1063 125.782 41.3842C125.782 39.6621 124.851 38.2661 123.702 38.2661C122.553 38.2661 121.622 39.6621 121.622 41.3842C121.622 43.1063 122.553 44.5024 123.702 44.5024Z" fill="#FFC1C7"/>
<path d="M123.702 42.7686C124.275 42.7686 124.74 42.3037 124.74 41.7303C124.74 41.1568 124.275 40.6919 123.702 40.6919C123.128 40.6919 122.664 41.1568 122.664 41.7303C122.664 42.3037 123.128 42.7686 123.702 42.7686Z" fill="#F2F2F2"/>
<path d="M123.3 43.5235C123.601 42.925 123.637 42.3351 123.38 42.2059C123.123 42.0767 122.671 42.4571 122.37 43.0556C122.069 43.654 122.033 44.2439 122.29 44.3731C122.547 44.5023 122.999 44.1219 123.3 43.5235Z" fill="#F2F2F2"/>
<path d="M166.552 10.9044C166.516 9.41456 166.095 8.13842 165.49 7.44316L165.011 9.33029V7.06392C164.801 6.93503 164.555 6.877 164.31 6.89838C163.133 7.00674 162.224 8.98416 162.278 11.3137C162.333 13.6433 163.332 15.4462 164.509 15.3378C165.685 15.2295 166.606 13.243 166.552 10.9044Z" fill="#57B894"/>
<path opacity="0.1" d="M166.266 12.0394C165.773 12.1477 165.294 12.4517 164.801 12.5119C164.307 12.5721 163.765 12.3374 163.455 11.5759C163.287 11.1666 163.202 10.6489 163.061 10.2004C162.952 9.834 162.768 9.49391 162.522 9.20117C162.35 9.88974 162.273 10.5986 162.293 11.308C162.348 13.6376 163.347 15.4374 164.524 15.3291C165.511 15.2388 166.308 13.8242 166.507 12.0003C166.426 12.0086 166.346 12.0217 166.266 12.0394V12.0394Z" fill="black"/>
<path d="M188.373 133.685C189.737 133.083 190.751 132.202 191.16 131.374L189.249 131.651L191.356 130.796C191.394 130.553 191.354 130.304 191.242 130.086C190.691 129.041 188.515 128.96 186.384 129.905C184.253 130.85 182.971 132.46 183.521 133.517C184.072 134.573 186.239 134.63 188.373 133.685Z" fill="#57B894"/>
<path opacity="0.1" d="M187.224 133.851C186.923 133.439 186.471 133.114 186.227 132.68C185.983 132.247 185.99 131.657 186.573 131.079C186.874 130.778 187.332 130.477 187.69 130.176C187.988 129.936 188.233 129.637 188.409 129.297C187.707 129.405 187.023 129.608 186.375 129.899C184.244 130.844 182.962 132.455 183.512 133.511C183.976 134.387 185.583 134.586 187.347 134.068C187.31 133.993 187.269 133.921 187.224 133.851Z" fill="black"/>
<path d="M72.4967 147.531C73.8601 146.929 74.8744 146.047 75.2837 145.219L73.3725 145.496L75.4794 144.641C75.5172 144.398 75.4771 144.15 75.365 143.931C74.8142 142.886 72.6381 142.805 70.5072 143.75C68.3763 144.695 67.0941 146.306 67.6449 147.362C68.1957 148.418 70.3627 148.476 72.4967 147.531Z" fill="#57B894"/>
<path opacity="0.1" d="M71.3468 147.696C71.0458 147.284 70.5944 146.959 70.3506 146.526C70.1068 146.092 70.1128 145.502 70.6967 144.924C70.9977 144.623 71.4552 144.322 71.8133 144.021C72.1116 143.782 72.3566 143.482 72.5327 143.143C71.8304 143.25 71.1459 143.453 70.4981 143.745C68.3671 144.69 67.085 146.3 67.6357 147.356C68.0993 148.232 69.7065 148.431 71.4702 147.913C71.4333 147.839 71.3921 147.766 71.3468 147.696Z" fill="black"/>
<path opacity="0.3" d="M57.1859 11.437H18.9617V15.0487H57.1859V11.437Z" fill="#3C354C"/>
<path opacity="0.1" d="M74.4921 58.0495L66.7329 44.5446H0V0.300781H87.8856V44.5446H74.4921V58.0495ZM0.300978 44.2436H66.9074L74.1911 56.9238V44.2436H87.5847V0.601759H0.300978V44.2436Z" fill="black"/>
<path d="M74.4921 57.7487L66.7329 44.2438H0V0H87.8856V44.2438H74.4921V57.7487ZM0.300978 43.9428H66.9074L74.1911 56.623V43.9428H87.5847V0.300978H0.300978V43.9428Z" fill="#F2F2F2"/>
<path opacity="0.3" d="M9.93233 18.2091C12.675 18.2091 14.8985 15.9857 14.8985 13.243C14.8985 10.5003 12.675 8.27686 9.93233 8.27686C7.1896 8.27686 4.96619 10.5003 4.96619 13.243C4.96619 15.9857 7.1896 18.2091 9.93233 18.2091Z" fill="#3C354C"/>
<path opacity="0.3" d="M72.0843 35.6659C73.0817 35.6659 73.8902 34.8574 73.8902 33.8601C73.8902 32.8627 73.0817 32.0542 72.0843 32.0542C71.087 32.0542 70.2784 32.8627 70.2784 33.8601C70.2784 34.8574 71.087 35.6659 72.0843 35.6659Z" fill="#00BFA6"/>
<path opacity="0.3" d="M76.599 35.6659C77.5963 35.6659 78.4048 34.8574 78.4048 33.8601C78.4048 32.8627 77.5963 32.0542 76.599 32.0542C75.6016 32.0542 74.7931 32.8627 74.7931 33.8601C74.7931 34.8574 75.6016 35.6659 76.599 35.6659Z" fill="#00BFA6"/>
<path opacity="0.3" d="M81.1136 35.6659C82.111 35.6659 82.9195 34.8574 82.9195 33.8601C82.9195 32.8627 82.111 32.0542 81.1136 32.0542C80.1163 32.0542 79.3077 32.8627 79.3077 33.8601C79.3077 34.8574 80.1163 35.6659 81.1136 35.6659Z" fill="#00BFA6"/>
</g>
<defs>
<clipPath id="clip0">
<rect width="200" height="214.898" fill="white"/>
</clipPath>
</defs>
</svg>
